<?xml version="1.0" encoding="utf-8"?>
<!-- Generator: Adobe Illustrator 26.0.0, SVG Export Plug-In . SVG Version: 6.00 Build 0)  -->
<svg version="1.1" id="Layer_1" xmlns="http://www.w3.org/2000/svg" xmlns:xlink="http://www.w3.org/1999/xlink" x="0px" y="0px"
	 viewBox="0 0 479.3 1037.2" style="enable-background:new 0 0 479.3 1037.2;" xml:space="preserve">
<style type="text/css">
	.st0{fill:#A6C7FF;}
	.st1{fill:#1B006B;}
	.st2{fill:#FFFFFF;}
	.st3{fill:#0049EC;}
	.st4{fill:none;stroke:#FFFFFF;stroke-width:2;stroke-linecap:round;stroke-linejoin:round;stroke-miterlimit:10;}
	.st5{fill:#100077;stroke:#0049EC;stroke-width:2;stroke-linecap:round;stroke-linejoin:round;stroke-miterlimit:10;}
	.st6{fill:#100077;stroke:#0049EC;stroke-linecap:round;stroke-linejoin:round;stroke-miterlimit:10;}
	.st7{fill:#FFFFFF;stroke:#0049EC;stroke-linecap:round;stroke-linejoin:round;stroke-miterlimit:10;}
	.st8{fill:#130061;stroke:#0049EC;stroke-linecap:round;stroke-linejoin:round;stroke-miterlimit:10;}
	.st9{fill:#DFEBFF;}
	.st10{fill:#000FB9;}
	.st11{fill:#22006E;}
	.st12{fill:#FFFFFF;stroke:#0049EC;stroke-width:3;stroke-linejoin:round;stroke-miterlimit:10;}
	.st13{fill:none;stroke:#0049EC;stroke-width:2;stroke-linejoin:round;stroke-miterlimit:10;}
</style>
<rect y="1137.2" class="st0" width="479.3" height="1037.2"/>
<rect x="135.9" y="1523.6" class="st0" width="213.5" height="135.9"/>
<path class="st1" d="M172.6,1523.6c-20.3,0-36.7,16.4-36.7,36.7v53.1h103.7v41.3h34.5c43.6-13.5,75.3-54.2,75.3-102.3l0,0
	c0-15.9-12.9-28.9-28.9-28.9H172.6z"/>
<path class="st2" d="M340,1589.3c0-0.1,0-0.3-0.1-0.4c-0.2-1.1-0.5-2.2-1-3.2c-0.1-0.1-0.1-0.2-0.2-0.4c-0.2-0.5-0.5-1-0.8-1.4
	c0,0,0,0,0,0c0-0.1-0.1-0.1-0.1-0.2c-2.3-3.3-6.1-5.4-10.4-5.4c0,0,0,0,0,0c-0.5,0-1,0-1.5,0.1c-2.2,0.3-4.2,1.1-5.8,2.3
	c-0.2-0.3-0.3-0.5-0.5-0.8c-0.1-0.1-0.1-0.2-0.2-0.2c-0.7-1-1.4-1.9-2.2-2.7c0,0,0,0-0.1-0.1c-3.6-3.5-8.5-5.7-13.9-5.7c0,0,0,0,0,0
	c-0.5,0-1.1,0-1.6,0.1c-0.3,0-0.5,0-0.8,0.1c0,0,0,0,0,0v0c-5.8,0.7-10.8,3.9-13.9,8.5c-1.8-0.9-3.8-1.5-5.9-1.5c0,0,0,0,0,0
	c0,0,0,0,0,0c-0.5,0-1,0-1.5,0.1c0,0,0,0,0,0c-6.3,0.8-11.1,6.1-11.1,12.6h15.1h10.2h21.2h8.2h17.2
	C340.1,1590.4,340.1,1589.9,340,1589.3z"/>
<path class="st2" d="M226.7,1567.6c0-0.1,0-0.2-0.1-0.4c-0.2-1-0.5-2-0.9-2.9c-0.1-0.1-0.1-0.2-0.2-0.3c-0.2-0.4-0.5-0.9-0.7-1.3
	c0,0,0,0,0,0c0-0.1-0.1-0.1-0.1-0.2c-2.1-2.9-5.5-4.9-9.4-4.9c0,0,0,0,0,0c-0.5,0-0.9,0-1.4,0.1c-2,0.2-3.8,1-5.3,2.1
	c-0.1-0.2-0.3-0.5-0.4-0.7c0-0.1-0.1-0.1-0.2-0.2c-0.6-0.9-1.3-1.7-2-2.4c0,0,0,0-0.1-0.1c-3.2-3.2-7.7-5.2-12.6-5.2c0,0,0,0,0,0
	c-0.5,0-1,0-1.4,0.1c-0.2,0-0.5,0-0.7,0.1c0,0,0,0,0,0v0c-5.2,0.6-9.8,3.5-12.6,7.7c-1.6-0.9-3.4-1.3-5.4-1.3c0,0,0,0,0,0
	c0,0,0,0,0,0c-0.5,0-0.9,0-1.4,0.1c0,0,0,0,0,0c-5.7,0.7-10.1,5.5-10.1,11.4h13.7h9.2h19.2h7.4h15.5
	C226.8,1568.6,226.8,1568.1,226.7,1567.6z"/>
<polygon class="st3" points="269.9,1647.7 269.9,1636.4 258.6,1636.4 258.6,1625.1 247.3,1625.1 247.3,1613.4 179.4,1613.4 
	179.4,1625.1 190.7,1625.1 190.7,1636.4 202,1636.4 202,1647.7 213.5,1647.7 213.5,1795.4 281.2,1795.4 281.2,1647.7 "/>
<rect x="0" class="st0" width="479.3" height="1037.2"/>
<g>
	<rect x="-716.2" y="555.9" class="st2" width="479.3" height="255.5"/>
	<g>
		<g>
			<path class="st0" d="M-381.1,746.3c26.4,0,47.9-21.4,47.9-47.9h-95.8C-428.9,724.8-407.5,746.3-381.1,746.3z"/>
			<path class="st0" d="M-476.8,746.3c26.4,0,47.9-21.4,47.9-47.9h-95.8C-524.7,724.8-503.3,746.3-476.8,746.3z"/>
			<path class="st0" d="M-572.6,746.3c26.4,0,47.9-21.4,47.9-47.9h-95.8C-620.4,724.8-599,746.3-572.6,746.3z"/>
			<path class="st0" d="M-668.3,746.3c26.4,0,47.9-21.4,47.9-47.9h-95.8C-716.2,724.8-694.8,746.3-668.3,746.3z"/>
			<path class="st0" d="M-285.3,746.3c26.4,0,47.9-21.4,47.9-47.9h-95.8C-333.2,724.8-311.7,746.3-285.3,746.3z"/>
		</g>
		<g>
			<path class="st0" d="M-381.1,794.1c26.4,0,47.9-21.4,47.9-47.9h-95.8C-428.9,772.7-407.5,794.1-381.1,794.1z"/>
			<path class="st0" d="M-476.8,794.1c26.4,0,47.9-21.4,47.9-47.9h-95.8C-524.7,772.7-503.3,794.1-476.8,794.1z"/>
			<path class="st0" d="M-572.6,794.1c26.4,0,47.9-21.4,47.9-47.9h-95.8C-620.4,772.7-599,794.1-572.6,794.1z"/>
			<path class="st0" d="M-668.3,794.1c26.4,0,47.9-21.4,47.9-47.9h-95.8C-716.2,772.7-694.8,794.1-668.3,794.1z"/>
			<path class="st0" d="M-285.3,794.1c26.4,0,47.9-21.4,47.9-47.9h-95.8C-333.2,772.7-311.7,794.1-285.3,794.1z"/>
		</g>
		<g>
			<path class="st0" d="M-381.1,602.6c26.4,0,47.9-21.4,47.9-47.9h-95.8C-428.9,581.2-407.5,602.6-381.1,602.6z"/>
			<path class="st0" d="M-476.8,602.6c26.4,0,47.9-21.4,47.9-47.9h-95.8C-524.7,581.2-503.3,602.6-476.8,602.6z"/>
			<path class="st0" d="M-572.6,602.6c26.4,0,47.9-21.4,47.9-47.9h-95.8C-620.4,581.2-599,602.6-572.6,602.6z"/>
			<path class="st0" d="M-668.3,602.6c26.4,0,47.9-21.4,47.9-47.9h-95.8C-716.2,581.2-694.8,602.6-668.3,602.6z"/>
			<path class="st0" d="M-285.3,602.6c26.4,0,47.9-21.4,47.9-47.9h-95.8C-333.2,581.2-311.7,602.6-285.3,602.6z"/>
		</g>
		<g>
			<path class="st0" d="M-381.1,650.5c26.4,0,47.9-21.4,47.9-47.9h-95.8C-428.9,629.1-407.5,650.5-381.1,650.5z"/>
			<path class="st0" d="M-476.8,650.5c26.4,0,47.9-21.4,47.9-47.9h-95.8C-524.7,629.1-503.3,650.5-476.8,650.5z"/>
			<path class="st0" d="M-572.6,650.5c26.4,0,47.9-21.4,47.9-47.9h-95.8C-620.4,629.1-599,650.5-572.6,650.5z"/>
			<path class="st0" d="M-668.3,650.5c26.4,0,47.9-21.4,47.9-47.9h-95.8C-716.2,629.1-694.8,650.5-668.3,650.5z"/>
			<path class="st0" d="M-285.3,650.5c26.4,0,47.9-21.4,47.9-47.9h-95.8C-333.2,629.1-311.7,650.5-285.3,650.5z"/>
		</g>
		<g>
			<path class="st0" d="M-381.1,698.4c26.4,0,47.9-21.4,47.9-47.9h-95.8C-428.9,676.9-407.5,698.4-381.1,698.4z"/>
			<path class="st0" d="M-476.8,698.4c26.4,0,47.9-21.4,47.9-47.9h-95.8C-524.7,676.9-503.3,698.4-476.8,698.4z"/>
			<path class="st0" d="M-572.6,698.4c26.4,0,47.9-21.4,47.9-47.9h-95.8C-620.4,676.9-599,698.4-572.6,698.4z"/>
			<path class="st0" d="M-668.3,698.4c26.4,0,47.9-21.4,47.9-47.9h-95.8C-716.2,676.9-694.8,698.4-668.3,698.4z"/>
			<path class="st0" d="M-285.3,698.4c26.4,0,47.9-21.4,47.9-47.9h-95.8C-333.2,676.9-311.7,698.4-285.3,698.4z"/>
		</g>
	</g>
</g>
<g>
	
		<rect x="0" y="-119.3" transform="matrix(-1 -5.469093e-07 5.469093e-07 -1 479.2871 -40.0608)" class="st2" width="479.3" height="198.5"/>
	<g>
		<g>
			<g>
				<path class="st0" d="M-38.7-79.5c-22,0-39.8,17.8-39.8,39.8l79.5,0C1-61.7-16.8-79.5-38.7-79.5z"/>
				<path class="st0" d="M40.8-79.5C18.8-79.5,1-61.7,1-39.8l79.5,0C80.6-61.7,62.8-79.5,40.8-79.5z"/>
				<path class="st0" d="M120.3-79.5c-22,0-39.8,17.8-39.8,39.8l79.5,0C160.1-61.7,142.3-79.5,120.3-79.5z"/>
				<path class="st0" d="M199.9-79.5c-22,0-39.8,17.8-39.8,39.8l79.5,0C239.6-61.7,221.8-79.5,199.9-79.5z"/>
				<path class="st0" d="M-118.3-79.5c-22,0-39.8,17.8-39.8,39.8l79.5,0C-78.5-61.7-96.3-79.5-118.3-79.5z"/>
			</g>
			<g>
				<path class="st0" d="M-38.7-119.3c-22,0-39.8,17.8-39.8,39.8l79.5,0C1-101.5-16.8-119.3-38.7-119.3z"/>
				<path class="st0" d="M40.8-119.3c-22,0-39.8,17.8-39.8,39.8l79.5,0C80.6-101.5,62.8-119.3,40.8-119.3z"/>
				<path class="st0" d="M120.3-119.3c-22,0-39.8,17.8-39.8,39.8l79.5,0C160.1-101.5,142.3-119.3,120.3-119.3z"/>
				<path class="st0" d="M199.9-119.3c-22,0-39.8,17.8-39.8,39.8l79.5,0C239.6-101.5,221.8-119.3,199.9-119.3z"/>
				<path class="st0" d="M-118.3-119.3c-22,0-39.8,17.8-39.8,39.8l79.5,0C-78.5-101.5-96.3-119.3-118.3-119.3z"/>
			</g>
			<g>
				<path class="st0" d="M-38.7,39.8c-22,0-39.8,17.8-39.8,39.8l79.5,0C1,57.6-16.8,39.8-38.7,39.8z"/>
				<path class="st0" d="M40.8,39.8C18.8,39.8,1,57.6,1,79.5l79.5,0C80.6,57.6,62.8,39.8,40.8,39.8z"/>
				<path class="st0" d="M120.3,39.8c-22,0-39.8,17.8-39.8,39.8l79.5,0C160.1,57.6,142.3,39.8,120.3,39.8z"/>
				<path class="st0" d="M199.9,39.8c-22,0-39.8,17.8-39.8,39.8l79.5,0C239.6,57.6,221.8,39.8,199.9,39.8z"/>
				<path class="st0" d="M-118.3,39.8c-22,0-39.8,17.8-39.8,39.8l79.5,0C-78.5,57.6-96.3,39.8-118.3,39.8z"/>
			</g>
			<g>
				<path class="st0" d="M-38.7,0c-22,0-39.8,17.8-39.8,39.8l79.5,0C1,17.8-16.8,0-38.7,0z"/>
				<path class="st0" d="M40.8,0C18.8,0,1,17.8,1,39.8l79.5,0C80.6,17.8,62.8,0,40.8,0z"/>
				<path class="st0" d="M120.3,0c-22,0-39.8,17.8-39.8,39.8l79.5,0C160.1,17.8,142.3,0,120.3,0z"/>
				<path class="st0" d="M199.9,0c-22,0-39.8,17.8-39.8,39.8l79.5,0C239.6,17.8,221.8,0,199.9,0z"/>
				<path class="st0" d="M-118.3,0c-22,0-39.8,17.8-39.8,39.8l79.5,0C-78.5,17.8-96.3,0-118.3,0z"/>
			</g>
			<g>
				<path class="st0" d="M-38.7-39.8c-22,0-39.8,17.8-39.8,39.8L1,0C1-22-16.8-39.8-38.7-39.8z"/>
				<path class="st0" d="M40.8-39.8C18.8-39.8,1-22,1,0l79.5,0C80.6-22,62.8-39.8,40.8-39.8z"/>
				<path class="st0" d="M120.3-39.8C98.4-39.8,80.6-22,80.6,0l79.5,0C160.1-22,142.3-39.8,120.3-39.8z"/>
				<path class="st0" d="M199.9-39.8c-22,0-39.8,17.8-39.8,39.8l79.5,0C239.6-22,221.8-39.8,199.9-39.8z"/>
				<path class="st0" d="M-118.3-39.8C-140.2-39.8-158-22-158,0l79.5,0C-78.5-22-96.3-39.8-118.3-39.8z"/>
			</g>
		</g>
		<g>
			<g>
				<path class="st0" d="M358.9-79.5c-22,0-39.8,17.8-39.8,39.8l79.5,0C398.7-61.7,380.9-79.5,358.9-79.5z"/>
				<path class="st0" d="M438.5-79.5c-22,0-39.8,17.8-39.8,39.8l79.5,0C478.2-61.7,460.4-79.5,438.5-79.5z"/>
				<path class="st0" d="M518-79.5c-22,0-39.8,17.8-39.8,39.8l79.5,0C557.8-61.7,540-79.5,518-79.5z"/>
				<path class="st0" d="M597.5-79.5c-22,0-39.8,17.8-39.8,39.8l79.5,0C637.3-61.7,619.5-79.5,597.5-79.5z"/>
				<path class="st0" d="M279.4-79.5c-22,0-39.8,17.8-39.8,39.8l79.5,0C319.2-61.7,301.4-79.5,279.4-79.5z"/>
			</g>
			<g>
				<path class="st0" d="M358.9-119.3c-22,0-39.8,17.8-39.8,39.8l79.5,0C398.7-101.5,380.9-119.3,358.9-119.3z"/>
				<path class="st0" d="M438.5-119.3c-22,0-39.8,17.8-39.8,39.8l79.5,0C478.2-101.5,460.4-119.3,438.5-119.3z"/>
				<path class="st0" d="M518-119.3c-22,0-39.8,17.8-39.8,39.8l79.5,0C557.8-101.5,540-119.3,518-119.3z"/>
				<path class="st0" d="M597.5-119.3c-22,0-39.8,17.8-39.8,39.8l79.5,0C637.3-101.5,619.5-119.3,597.5-119.3z"/>
				<path class="st0" d="M279.4-119.3c-22,0-39.8,17.8-39.8,39.8l79.5,0C319.2-101.5,301.4-119.3,279.4-119.3z"/>
			</g>
			<g>
				<path class="st0" d="M358.9,39.8c-22,0-39.8,17.8-39.8,39.8l79.5,0C398.7,57.6,380.9,39.8,358.9,39.8z"/>
				<path class="st0" d="M438.5,39.8c-22,0-39.8,17.8-39.8,39.8l79.5,0C478.2,57.6,460.4,39.8,438.5,39.8z"/>
				<path class="st0" d="M518,39.8c-22,0-39.8,17.8-39.8,39.8l79.5,0C557.8,57.6,540,39.8,518,39.8z"/>
				<path class="st0" d="M597.5,39.8c-22,0-39.8,17.8-39.8,39.8l79.5,0C637.3,57.6,619.5,39.8,597.5,39.8z"/>
				<path class="st0" d="M279.4,39.8c-22,0-39.8,17.8-39.8,39.8l79.5,0C319.2,57.6,301.4,39.8,279.4,39.8z"/>
			</g>
			<g>
				<path class="st0" d="M358.9,0c-22,0-39.8,17.8-39.8,39.8l79.5,0C398.7,17.8,380.9,0,358.9,0z"/>
				<path class="st0" d="M438.5,0c-22,0-39.8,17.8-39.8,39.8l79.5,0C478.2,17.8,460.4,0,438.5,0z"/>
				<path class="st0" d="M518,0c-22,0-39.8,17.8-39.8,39.8l79.5,0C557.8,17.8,540,0,518,0z"/>
				<path class="st0" d="M597.5,0c-22,0-39.8,17.8-39.8,39.8l79.5,0C637.3,17.8,619.5,0,597.5,0z"/>
				<path class="st0" d="M279.4,0c-22,0-39.8,17.8-39.8,39.8l79.5,0C319.2,17.8,301.4,0,279.4,0z"/>
			</g>
			<g>
				<path class="st0" d="M358.9-39.8c-22,0-39.8,17.8-39.8,39.8l79.5,0C398.7-22,380.9-39.8,358.9-39.8z"/>
				<path class="st0" d="M438.5-39.8c-22,0-39.8,17.8-39.8,39.8l79.5,0C478.2-22,460.4-39.8,438.5-39.8z"/>
				<path class="st0" d="M518-39.8c-22,0-39.8,17.8-39.8,39.8l79.5,0C557.8-22,540-39.8,518-39.8z"/>
				<path class="st0" d="M597.5-39.8c-22,0-39.8,17.8-39.8,39.8l79.5,0C637.3-22,619.5-39.8,597.5-39.8z"/>
				<path class="st0" d="M279.4-39.8c-22,0-39.8,17.8-39.8,39.8l79.5,0C319.2-22,301.4-39.8,279.4-39.8z"/>
			</g>
		</g>
	</g>
</g>
<rect x="106.9" y="1795.4" class="st2" width="472.2" height="135.9"/>
<path class="st0" d="M213.7,1930.7l0-135.4c-37.4,0-67.7,30.3-67.7,67.7C146,1900.4,176.3,1930.7,213.7,1930.7z"/>
<path class="st3" d="M213.5,1795.4v135.4c37.4,0,67.7-30.3,67.7-67.7S250.9,1795.4,213.5,1795.4z"/>
<path class="st0" d="M78.1,1795.4v135.4c37.4,0,67.7-30.3,67.7-67.7S115.5,1795.4,78.1,1795.4z"/>
<rect x="0" y="1659.4" transform="matrix(-1 -1.224647e-16 1.224647e-16 -1 213.5011 3454.7981)" class="st0" width="213.5" height="135.9"/>
<g>
	<path class="st4" d="M197.9,1715.7v56.1h-24.8v-56.1c0.4-11.2,5-21.3,12.4-28.6C192.9,1694.4,197.6,1704.5,197.9,1715.7z"/>
	<path class="st4" d="M185.5,1687c-7.4,7.4-12,17.5-12.4,28.6c-0.4-11.2-5-21.3-12.4-28.6c3.6-3.6,7.8-6.5,12.4-8.7
		C177.8,1680.5,181.9,1683.5,185.5,1687z"/>
	<path class="st4" d="M173.1,1715.7v56.1h-24.8v-56.1c0.4-11.2,5-21.3,12.4-28.6C168.1,1694.4,172.7,1704.5,173.1,1715.7z"/>
</g>
<g>
	<path class="st4" d="M132.3,1715.7v56.1h-24.8v-56.1c0.4-11.2,5-21.3,12.4-28.6C127.3,1694.4,132,1704.5,132.3,1715.7z"/>
	<path class="st4" d="M119.9,1687c-7.4,7.4-12,17.5-12.4,28.6c-0.4-11.2-5-21.3-12.4-28.6c3.6-3.6,7.8-6.5,12.4-8.7
		C112.2,1680.5,116.4,1683.5,119.9,1687z"/>
	<path class="st4" d="M107.5,1715.7v56.1H82.7v-56.1c0.4-11.2,5-21.3,12.4-28.6C102.5,1694.4,107.1,1704.5,107.5,1715.7z"/>
</g>
<g>
	<path class="st4" d="M66.7,1715.7v56.1H41.9v-56.1c0.4-11.2,5-21.3,12.4-28.6C61.7,1694.4,66.4,1704.5,66.7,1715.7z"/>
	<path class="st4" d="M54.3,1687c-7.4,7.4-12,17.5-12.4,28.6c-0.4-11.2-5-21.3-12.4-28.6c3.6-3.6,7.8-6.5,12.4-8.7
		C46.6,1680.5,50.8,1683.5,54.3,1687z"/>
	<path class="st4" d="M41.9,1715.7v56.1H17.1v-56.1c0.4-11.2,5-21.3,12.4-28.6C36.9,1694.4,41.5,1704.5,41.9,1715.7z"/>
</g>
<rect x="0" y="1931.3" class="st2" width="213.5" height="135.9"/>
<rect x="0" y="1523.6" class="st0" width="135.9" height="135.9"/>
<rect x="349.4" y="1523.6" class="st0" width="213.5" height="135.9"/>
<g>
	<g>
		<g>
			<path class="st2" d="M38.6,1554.1c-1.5-1.5-3.9-1.5-5.4,0c-1.5,1.5-1.5,3.9,0,5.4c1.5,1.5,3.9,1.5,5.4,0
				C40.1,1558,40.1,1555.6,38.6,1554.1z"/>
			<path class="st2" d="M38.6,1571.5c-1.5-1.5-3.9-1.5-5.4,0c-1.5,1.5-1.5,3.9,0,5.4s3.9,1.5,5.4,0
				C40.1,1575.4,40.1,1573,38.6,1571.5z"/>
			<path class="st2" d="M38.6,1588.9c-1.5-1.5-3.9-1.5-5.4,0c-1.5,1.5-1.5,3.9,0,5.4c1.5,1.5,3.9,1.5,5.4,0
				C40.1,1592.8,40.1,1590.3,38.6,1588.9z"/>
			<path class="st2" d="M38.6,1606.2c-1.5-1.5-3.9-1.5-5.4,0c-1.5,1.5-1.5,3.9,0,5.4c1.5,1.5,3.9,1.5,5.4,0
				C40.1,1610.1,40.1,1607.7,38.6,1606.2z"/>
			<path class="st2" d="M38.6,1623.6c-1.5-1.5-3.9-1.5-5.4,0c-1.5,1.5-1.5,3.9,0,5.4s3.9,1.5,5.4,0
				C40.1,1627.5,40.1,1625.1,38.6,1623.6z"/>
		</g>
	</g>
	<g>
		<g>
			<path class="st2" d="M60,1554.1c-1.5-1.5-3.9-1.5-5.4,0c-1.5,1.5-1.5,3.9,0,5.4c1.5,1.5,3.9,1.5,5.4,0
				C61.5,1558,61.5,1555.6,60,1554.1z"/>
			<path class="st2" d="M60,1571.5c-1.5-1.5-3.9-1.5-5.4,0c-1.5,1.5-1.5,3.9,0,5.4s3.9,1.5,5.4,0S61.5,1573,60,1571.5z"/>
			<path class="st2" d="M60,1588.9c-1.5-1.5-3.9-1.5-5.4,0c-1.5,1.5-1.5,3.9,0,5.4c1.5,1.5,3.9,1.5,5.4,0
				C61.5,1592.8,61.5,1590.3,60,1588.9z"/>
			<path class="st2" d="M60,1606.2c-1.5-1.5-3.9-1.5-5.4,0c-1.5,1.5-1.5,3.9,0,5.4c1.5,1.5,3.9,1.5,5.4,0
				C61.5,1610.1,61.5,1607.7,60,1606.2z"/>
			<path class="st2" d="M60,1623.6c-1.5-1.5-3.9-1.5-5.4,0c-1.5,1.5-1.5,3.9,0,5.4s3.9,1.5,5.4,0S61.5,1625.1,60,1623.6z"/>
		</g>
	</g>
	<g>
		<g>
			<path class="st2" d="M81.3,1554.1c-1.5-1.5-3.9-1.5-5.4,0c-1.5,1.5-1.5,3.9,0,5.4c1.5,1.5,3.9,1.5,5.4,0
				C82.8,1558,82.8,1555.6,81.3,1554.1z"/>
			<path class="st2" d="M81.3,1571.5c-1.5-1.5-3.9-1.5-5.4,0c-1.5,1.5-1.5,3.9,0,5.4c1.5,1.5,3.9,1.5,5.4,0
				C82.8,1575.4,82.8,1573,81.3,1571.5z"/>
			<path class="st2" d="M81.3,1588.9c-1.5-1.5-3.9-1.5-5.4,0c-1.5,1.5-1.5,3.9,0,5.4c1.5,1.5,3.9,1.5,5.4,0
				C82.8,1592.8,82.8,1590.3,81.3,1588.9z"/>
			<path class="st2" d="M81.3,1606.2c-1.5-1.5-3.9-1.5-5.4,0c-1.5,1.5-1.5,3.9,0,5.4c1.5,1.5,3.9,1.5,5.4,0
				C82.8,1610.1,82.8,1607.7,81.3,1606.2z"/>
			<path class="st2" d="M81.3,1623.6c-1.5-1.5-3.9-1.5-5.4,0c-1.5,1.5-1.5,3.9,0,5.4c1.5,1.5,3.9,1.5,5.4,0
				C82.8,1627.5,82.8,1625.1,81.3,1623.6z"/>
		</g>
	</g>
	<g>
		<g>
			<path class="st2" d="M102.7,1554.1c-1.5-1.5-3.9-1.5-5.4,0c-1.5,1.5-1.5,3.9,0,5.4c1.5,1.5,3.9,1.5,5.4,0
				C104.2,1558,104.2,1555.6,102.7,1554.1z"/>
			<path class="st2" d="M102.7,1571.5c-1.5-1.5-3.9-1.5-5.4,0c-1.5,1.5-1.5,3.9,0,5.4c1.5,1.5,3.9,1.5,5.4,0
				S104.2,1573,102.7,1571.5z"/>
			<path class="st2" d="M102.7,1588.9c-1.5-1.5-3.9-1.5-5.4,0c-1.5,1.5-1.5,3.9,0,5.4c1.5,1.5,3.9,1.5,5.4,0
				C104.2,1592.8,104.2,1590.3,102.7,1588.9z"/>
			<path class="st2" d="M102.7,1606.2c-1.5-1.5-3.9-1.5-5.4,0c-1.5,1.5-1.5,3.9,0,5.4c1.5,1.5,3.9,1.5,5.4,0
				C104.2,1610.1,104.2,1607.7,102.7,1606.2z"/>
			<path class="st2" d="M102.7,1623.6c-1.5-1.5-3.9-1.5-5.4,0c-1.5,1.5-1.5,3.9,0,5.4c1.5,1.5,3.9,1.5,5.4,0
				S104.2,1625.1,102.7,1623.6z"/>
		</g>
	</g>
</g>
<rect x="281.5" y="1659.4" transform="matrix(-1 -1.224647e-16 1.224647e-16 -1 708.4554 3454.7981)" class="st2" width="145.5" height="135.9"/>
<rect x="0" y="1795.4" class="st3" width="135.9" height="135.9"/>
<rect x="427" y="1931.2" transform="matrix(-1 -3.464102e-07 3.464102e-07 -1 989.9081 3998.3359)" class="st0" width="135.9" height="135.9"/>
<rect x="213.5" y="1953.5" transform="matrix(-1 -2.896248e-07 2.896248e-07 -1 640.5025 4020.6138)" class="st3" width="213.5" height="113.6"/>
<rect x="0" y="1931.2" transform="matrix(-1 -3.464102e-07 3.464102e-07 -1 213.5004 3998.3354)" class="st2" width="213.5" height="135.9"/>
<path class="st0" d="M281.5,1659.1v136.6c37.7,0,68.3-30.6,68.3-68.3S319.2,1659.1,281.5,1659.1z"/>
<path class="st3" d="M281.2,1795.4l0,135.4c37.4,0,67.7-30.3,67.7-67.7C348.9,1825.7,318.6,1795.4,281.2,1795.4z"/>
<path class="st0" d="M427,1659.4L427,1659.4c-37.5,0.1-67.9,30.5-67.9,68c0,37.5,30.4,67.9,67.9,67.9v0.1h135.9v-135.9H427z"/>
<path class="st3" d="M0,1795.5h135.9c0-37.5-30.4-68-68-68S0,1758,0,1795.5z"/>
<g>
	<g>
		<rect x="222.6" y="1673.5" class="st5" width="49.8" height="107.6"/>
	</g>
	<line class="st5" x1="222.6" y1="1727.3" x2="272.4" y2="1727.3"/>
	<line class="st5" x1="248.4" y1="1780.2" x2="248.4" y2="1673.5"/>
</g>
<circle class="st2" cx="32.6" cy="1875.4" r="18.6"/>
<g>
	<path class="st4" d="M111.9,1819.5v99.3h-44v-99.3c0.6-19.8,8.9-37.7,22-50.8C103,1781.8,111.3,1799.7,111.9,1819.5z"/>
	<path class="st4" d="M89.9,1768.7c-13.1,13.1-21.3,31-22,50.8c-0.6-19.8-8.9-37.7-22-50.8c6.3-6.4,13.8-11.6,22-15.4
		C76.2,1757.1,83.6,1762.4,89.9,1768.7z"/>
	<path class="st4" d="M67.9,1819.5v99.3H24v-99.3c0.6-19.8,8.9-37.7,22-50.8C59,1781.8,67.3,1799.7,67.9,1819.5z"/>
</g>
<g>
	<g>
		<polygon class="st2" points="364.3,1658.9 364.3,1607 376.7,1574.3 389,1607 389,1658.9 		"/>
		<path class="st3" d="M376.7,1575.7l11.8,31.4v51.3h-23.7v-51.3L376.7,1575.7 M376.7,1572.9l-12.8,34.1v52.5h25.7V1607
			L376.7,1572.9L376.7,1572.9z"/>
	</g>
	<polygon class="st1" points="376.7,1572.9 389.5,1607 407.7,1607 394.8,1572.9 	"/>
	<rect x="389.5" y="1607" class="st1" width="18.2" height="52.5"/>
	<g id="XMLID_00000119106983747177355520000001516032790447963282_">
		<g>
			<path class="st6" d="M383.6,1611.2v17.3h-7.7v-17.3c0.1-3.5,1.6-6.6,3.8-8.9C382,1604.6,383.5,1607.7,383.6,1611.2z"/>
			<path class="st7" d="M379.8,1602.3c-2.3,2.3-3.7,5.4-3.8,8.9c-0.1-3.5-1.6-6.6-3.8-8.9c1.1-1.1,2.4-2,3.8-2.7
				C377.4,1600.3,378.7,1601.2,379.8,1602.3z"/>
			<path class="st6" d="M375.9,1611.2v17.3h-7.7v-17.3c0.1-3.5,1.6-6.6,3.8-8.9C374.4,1604.6,375.8,1607.7,375.9,1611.2z"/>
		</g>
	</g>
	<rect x="368.3" y="1645.7" class="st8" width="4.6" height="13.3"/>
</g>
<g>
	<path class="st1" d="M750.7,1804.8c-3.7-5.5-9.9-8.8-16.6-8.8h-17.7v91.6h0h35.5v-81.1L750.7,1804.8z"/>
	<g>
		<path class="st2" d="M699.1,1887.2v-80.5l1.1-1.6c3.6-5.4,9.7-8.5,16.2-8.5c6.5,0,12.5,3.2,16.2,8.5l1.1,1.6v80.5H699.1z"/>
		<g>
			<path class="st3" d="M716.3,1797.1c6.3,0,12.2,3.1,15.8,8.3l1,1.4v79.8h-33.5v-79.8l1-1.4C704.1,1800.2,710,1797.1,716.3,1797.1
				 M716.3,1796.1c-6.6,0-12.8,3.3-16.6,8.8l-1.2,1.7v81.1h35.5v-81.1l-1.2-1.7C729.2,1799.3,723,1796.1,716.3,1796.1L716.3,1796.1z
				"/>
		</g>
	</g>
	<g>
		<g>
			<g>
				<rect x="703.1" y="1811.6" class="st6" width="6.3" height="15.4"/>
			</g>
			<line class="st6" x1="703.4" y1="1819.4" x2="709.5" y2="1819.4"/>
			<line class="st6" x1="706.4" y1="1826.9" x2="706.4" y2="1811.6"/>
		</g>
		<g>
			<g>
				<rect x="713.1" y="1811.6" class="st6" width="6.3" height="15.4"/>
			</g>
			<line class="st6" x1="713.3" y1="1819.4" x2="719.4" y2="1819.4"/>
			<line class="st6" x1="716.4" y1="1826.9" x2="716.4" y2="1811.6"/>
		</g>
		<g>
			<g>
				<rect x="723.8" y="1811.6" class="st6" width="6.3" height="15.4"/>
			</g>
			<line class="st6" x1="724" y1="1819.4" x2="730.1" y2="1819.4"/>
			<line class="st6" x1="727.1" y1="1826.9" x2="727.1" y2="1811.6"/>
		</g>
	</g>
	<g>
		<g>
			<g>
				<rect x="703.1" y="1832.6" class="st6" width="6.3" height="15.4"/>
			</g>
			<line class="st6" x1="703.4" y1="1840.3" x2="709.5" y2="1840.3"/>
			<line class="st6" x1="706.4" y1="1847.9" x2="706.4" y2="1832.6"/>
		</g>
		<g>
			<g>
				<rect x="713.1" y="1832.6" class="st6" width="6.3" height="15.4"/>
			</g>
			<line class="st6" x1="713.3" y1="1840.3" x2="719.4" y2="1840.3"/>
			<line class="st6" x1="716.4" y1="1847.9" x2="716.4" y2="1832.6"/>
		</g>
		<g>
			<g>
				<rect x="723.8" y="1832.6" class="st6" width="6.3" height="15.4"/>
			</g>
			<line class="st6" x1="724" y1="1840.3" x2="730.1" y2="1840.3"/>
			<line class="st6" x1="727.1" y1="1847.9" x2="727.1" y2="1832.6"/>
		</g>
	</g>
	<g>
		<g>
			<g>
				<rect x="703.1" y="1852.8" class="st6" width="6.3" height="15.4"/>
			</g>
			<line class="st6" x1="703.4" y1="1860.5" x2="709.5" y2="1860.5"/>
			<line class="st6" x1="706.4" y1="1868.1" x2="706.4" y2="1852.8"/>
		</g>
		<g>
			<g>
				<rect x="713.1" y="1852.8" class="st6" width="6.3" height="15.4"/>
			</g>
			<line class="st6" x1="713.3" y1="1860.5" x2="719.4" y2="1860.5"/>
			<line class="st6" x1="716.4" y1="1868.1" x2="716.4" y2="1852.8"/>
		</g>
		<g>
			<g>
				<rect x="723.8" y="1852.8" class="st6" width="6.3" height="15.4"/>
			</g>
			<line class="st6" x1="724" y1="1860.5" x2="730.1" y2="1860.5"/>
			<line class="st6" x1="727.1" y1="1868.1" x2="727.1" y2="1852.8"/>
		</g>
	</g>
</g>
<g>
	<path class="st1" d="M448.6,1549.8v-6.6v-1.5c-1.2-1.2-2.8-1.9-4.6-1.9h-17.4v28.9l-1,1.5h-2.6v1.8h1v87.5h2.6h17.4h10.5h9.6v-86.9
		L448.6,1549.8z"/>
	<g>
		<path class="st2" d="M408.2,1658.9v-86.1c0-0.3-0.2-0.5-0.5-0.5h-0.5v-1.8h2.1c0.2,0,0.3-0.1,0.4-0.2l13.8-20.4
			c0.1-0.1,0.1-0.2,0.1-0.3v-7.9c1.1-1,2.6-1.6,4.1-1.6s3,0.6,4.1,1.6v7.9c0,0.1,0,0.2,0.1,0.3l13.8,20.4c0.1,0.1,0.2,0.2,0.4,0.2
			h2.1v2h-0.5c-0.3,0-0.5,0.2-0.5,0.5v85.8H408.2z"/>
		<path class="st3" d="M427.7,1540.8c1.3,0,2.6,0.5,3.6,1.3v1v6.6c0,0.2,0.1,0.4,0.2,0.6l13.8,20.4c0.2,0.3,0.5,0.4,0.8,0.4h1.6v1
			c-0.5,0-1,0.5-1,1v85.3h-19.1h-19.1v-85.6c0-0.5-0.4-1-1-1v-0.8h1.6c0.3,0,0.6-0.2,0.8-0.4l13.8-20.4c0.1-0.2,0.2-0.4,0.2-0.6
			v-6.6v-1C425.1,1541.2,426.4,1540.8,427.7,1540.8 M427.7,1539.8c-1.8,0-3.4,0.7-4.6,1.9v1.5v6.6l-13.8,20.4h-2.6v2.8h1v86.6h20.1
			h20.1v-86.3h1v-3h-2.6l-13.8-20.4v-6.6v-1.5C431.2,1540.5,429.5,1539.8,427.7,1539.8L427.7,1539.8z"/>
	</g>
	<g>
		<g>
			<g>
				<g>
					<rect x="411.5" y="1577.7" class="st6" width="6.2" height="15.2"/>
				</g>
				<line class="st6" x1="411.7" y1="1585.3" x2="417.7" y2="1585.3"/>
				<line class="st6" x1="414.7" y1="1592.7" x2="414.7" y2="1577.7"/>
			</g>
			<g>
				<g>
					<g>
						<rect x="423" y="1577.7" class="st6" width="6.2" height="15.2"/>
					</g>
					<line class="st6" x1="423.2" y1="1585.3" x2="429.2" y2="1585.3"/>
					<line class="st6" x1="426.2" y1="1592.7" x2="426.2" y2="1577.7"/>
				</g>
				<g>
					<g>
						<rect x="429.2" y="1577.7" class="st6" width="3.2" height="15.2"/>
					</g>
					<line class="st6" x1="429.3" y1="1585.3" x2="432.5" y2="1585.3"/>
				</g>
			</g>
			<g>
				<g>
					<rect x="437.7" y="1577.7" class="st6" width="6.2" height="15.2"/>
				</g>
				<line class="st6" x1="437.9" y1="1585.3" x2="443.9" y2="1585.3"/>
				<line class="st6" x1="440.9" y1="1592.7" x2="440.9" y2="1577.7"/>
			</g>
		</g>
		<g>
			<g>
				<g>
					<rect x="411.5" y="1597.3" class="st6" width="6.2" height="15.2"/>
				</g>
				<line class="st6" x1="411.7" y1="1604.9" x2="417.7" y2="1604.9"/>
				<line class="st6" x1="414.7" y1="1612.3" x2="414.7" y2="1597.3"/>
			</g>
			<g>
				<g>
					<g>
						<rect x="423" y="1597.3" class="st6" width="6.2" height="15.2"/>
					</g>
					<line class="st6" x1="423.2" y1="1604.9" x2="429.2" y2="1604.9"/>
					<line class="st6" x1="426.2" y1="1612.3" x2="426.2" y2="1597.3"/>
				</g>
				<g>
					<g>
						<rect x="429.2" y="1597.3" class="st6" width="3.2" height="15.2"/>
					</g>
					<line class="st6" x1="429.3" y1="1604.9" x2="432.5" y2="1604.9"/>
				</g>
			</g>
			<g>
				<g>
					<rect x="437.7" y="1597.3" class="st6" width="6.2" height="15.2"/>
				</g>
				<line class="st6" x1="437.9" y1="1604.9" x2="443.9" y2="1604.9"/>
				<line class="st6" x1="440.9" y1="1612.3" x2="440.9" y2="1597.3"/>
			</g>
		</g>
		<g>
			<g>
				<g>
					<rect x="411.5" y="1616.9" class="st6" width="6.2" height="15.2"/>
				</g>
				<line class="st6" x1="411.7" y1="1624.4" x2="417.7" y2="1624.4"/>
				<line class="st6" x1="414.7" y1="1631.9" x2="414.7" y2="1616.9"/>
			</g>
			<g>
				<g>
					<g>
						<rect x="423" y="1616.9" class="st6" width="6.2" height="15.2"/>
					</g>
					<line class="st6" x1="423.2" y1="1624.4" x2="429.2" y2="1624.4"/>
					<line class="st6" x1="426.2" y1="1631.9" x2="426.2" y2="1616.9"/>
				</g>
				<g>
					<g>
						<rect x="429.2" y="1616.9" class="st6" width="3.2" height="15.2"/>
					</g>
					<line class="st6" x1="429.3" y1="1624.4" x2="432.5" y2="1624.4"/>
				</g>
			</g>
			<g>
				<g>
					<rect x="437.7" y="1616.9" class="st6" width="6.2" height="15.2"/>
				</g>
				<line class="st6" x1="437.9" y1="1624.4" x2="443.9" y2="1624.4"/>
				<line class="st6" x1="440.9" y1="1631.9" x2="440.9" y2="1616.9"/>
			</g>
		</g>
		<g>
			<g>
				<g>
					<rect x="411.5" y="1636.4" class="st6" width="6.2" height="15.2"/>
				</g>
				<line class="st6" x1="411.7" y1="1644" x2="417.7" y2="1644"/>
				<line class="st6" x1="414.7" y1="1651.5" x2="414.7" y2="1636.4"/>
			</g>
			<g>
				<g>
					<g>
						<rect x="423" y="1636.4" class="st6" width="6.2" height="15.2"/>
					</g>
					<line class="st6" x1="423.2" y1="1644" x2="429.2" y2="1644"/>
					<line class="st6" x1="426.2" y1="1651.5" x2="426.2" y2="1636.4"/>
				</g>
				<g>
					<g>
						<rect x="429.2" y="1636.4" class="st6" width="3.2" height="15.2"/>
					</g>
					<line class="st6" x1="429.3" y1="1644" x2="432.5" y2="1644"/>
				</g>
			</g>
			<g>
				<g>
					<rect x="437.7" y="1636.4" class="st6" width="6.2" height="15.2"/>
				</g>
				<line class="st6" x1="437.9" y1="1644" x2="443.9" y2="1644"/>
				<line class="st6" x1="440.9" y1="1651.5" x2="440.9" y2="1636.4"/>
			</g>
		</g>
		<rect x="423.4" y="1560.2" class="st6" width="8.6" height="10.9"/>
	</g>
	<path d="M423.9,1659.4"/>
</g>
<g>
	<rect x="-160.7" y="1601.5" class="st3" width="69.7" height="9.9"/>
	<rect x="-169.2" y="1591.6" class="st3" width="69.7" height="9.9"/>
	<rect x="-176.3" y="1581.6" class="st3" width="69.7" height="9.9"/>
	<rect x="-184.1" y="1571.7" class="st3" width="69.7" height="9.9"/>
</g>
<g>
	<g>
		<path class="st1" d="M429,1735c-4.2,0-7.6-3.4-7.6-7.6c0-4.2,3.4-7.6,7.6-7.6c4.2,0,7.6,3.4,7.6,7.6
			C436.6,1731.6,433.2,1735,429,1735z M429,1721.4c-3.3,0-6,2.7-6,6c0,3.3,2.7,6,6,6s6-2.7,6-6C435,1724.1,432.3,1721.4,429,1721.4z
			"/>
	</g>
	<g>
		<rect x="429" y="1665.5" class="st1" width="133.9" height="1.5"/>
	</g>
	<g>
		<rect x="429" y="1672.3" class="st1" width="133.9" height="1.5"/>
	</g>
	<g>
		<g>
			<path class="st1" d="M429,1789.3c-34.1,0-61.9-27.8-61.9-61.9c0-34.1,27.8-61.9,61.9-61.9v1.5c-33.3,0-60.4,27.1-60.4,60.4
				c0,33.3,27.1,60.4,60.4,60.4V1789.3z"/>
		</g>
		<g>
			<path class="st1" d="M429,1782.5c-30.4,0-55.1-24.7-55.1-55.1c0-30.4,24.7-55.1,55.1-55.1v1.5c-29.6,0-53.6,24-53.6,53.6
				s24,53.6,53.6,53.6V1782.5z"/>
		</g>
		<g>
			<path class="st1" d="M429,1775.7c-26.6,0-48.3-21.7-48.3-48.3c0-26.6,21.7-48.3,48.3-48.3v1.5c-25.8,0-46.8,21-46.8,46.8
				c0,25.8,21,46.8,46.8,46.8V1775.7z"/>
		</g>
		<g>
			<path class="st1" d="M429,1768.9c-22.9,0-41.5-18.6-41.5-41.5c0-22.9,18.6-41.5,41.5-41.5v1.5c-22.1,0-40,18-40,40s17.9,40,40,40
				V1768.9z"/>
		</g>
		<g>
			<path class="st1" d="M429,1762.1c-19.2,0-34.7-15.6-34.7-34.7c0-19.2,15.6-34.7,34.7-34.7v1.5c-18.3,0-33.2,14.9-33.2,33.2
				c0,18.3,14.9,33.2,33.2,33.2V1762.1z"/>
		</g>
		<g>
			<path class="st1" d="M429,1755.3c-15.4,0-27.9-12.5-27.9-27.9c0-15.4,12.5-27.9,27.9-27.9v1.5c-14.6,0-26.4,11.9-26.4,26.4
				s11.9,26.4,26.4,26.4V1755.3z"/>
		</g>
		<g>
			<path class="st1" d="M429,1748.5c-11.7,0-21.1-9.5-21.1-21.1c0-11.7,9.5-21.1,21.1-21.1v1.5c-10.8,0-19.6,8.8-19.6,19.6
				c0,10.8,8.8,19.6,19.6,19.6V1748.5z"/>
		</g>
		<g>
			<path class="st1" d="M429,1741.7c-7.9,0-14.3-6.4-14.3-14.3c0-7.9,6.4-14.3,14.3-14.3v1.5c-7.1,0-12.8,5.8-12.8,12.8
				s5.8,12.8,12.8,12.8V1741.7z"/>
		</g>
		<g>
			<rect x="429" y="1679.1" class="st1" width="133.9" height="1.5"/>
		</g>
		<g>
			<rect x="429" y="1685.9" class="st1" width="133.9" height="1.5"/>
		</g>
		<g>
			<rect x="429" y="1692.7" class="st1" width="133.9" height="1.5"/>
		</g>
		<g>
			<rect x="429" y="1699.5" class="st1" width="133.9" height="1.5"/>
		</g>
		<g>
			<rect x="429" y="1706.3" class="st1" width="133.9" height="1.5"/>
		</g>
		<g>
			<rect x="429" y="1713.1" class="st1" width="133.9" height="1.5"/>
		</g>
		<g>
			<rect x="429" y="1740.2" class="st1" width="133.9" height="1.5"/>
		</g>
		<g>
			<rect x="429" y="1747" class="st1" width="133.9" height="1.5"/>
		</g>
		<g>
			<rect x="429" y="1753.8" class="st1" width="133.9" height="1.5"/>
		</g>
		<g>
			<rect x="429" y="1760.6" class="st1" width="133.9" height="1.5"/>
		</g>
		<g>
			<rect x="429" y="1767.4" class="st1" width="133.9" height="1.5"/>
		</g>
		<g>
			<rect x="429" y="1774.2" class="st1" width="133.9" height="1.5"/>
		</g>
		<g>
			<rect x="429" y="1781" class="st1" width="133.9" height="1.5"/>
		</g>
	</g>
	<g>
		<rect x="429" y="1787.8" class="st1" width="133.9" height="1.5"/>
	</g>
</g>
<path class="st2" d="M328.3,1986.2c-5.3-0.2-10.7-0.2-16,0l-98.7,4.3v36.3h30.2l0,0c0-9.9,7.4-18,17-19.1h0c0,0,0,0,0,0
	c0.8-0.1,1.5-0.2,2.3-0.2c0,0,0,0,0,0c0,0,0,0,0,0l0,0c6.5,0,12.3,3.2,15.8,8.2c0.1,0.1,0.2,0.2,0.2,0.3c0,0,0,0,0,0
	c0.5,0.7,0.9,1.4,1.2,2.1c0.1,0.2,0.2,0.4,0.3,0.6c0.7,1.5,1.2,3.1,1.5,4.8c0,0.2,0.1,0.4,0.1,0.6c0.1,0.9,0.2,1.7,0.2,2.6h7.8
	c0-15.4,11.6-28.1,26.5-29.9v0c0,0,0,0,0,0c0.4,0,0.8-0.1,1.2-0.1c0.8-0.1,1.6-0.1,2.4-0.1c0,0,0,0,0,0l0,0c8.3,0,15.8,3.3,21.2,8.7
	c0,0,0.1,0.1,0.1,0.1v0c1.3,1.3,2.4,2.6,3.4,4.1c0.1,0.1,0.2,0.2,0.3,0.4c0.5,0.7,0.9,1.5,1.4,2.2c0.1,0.2,0.2,0.5,0.4,0.7
	c0.3,0.6,0.6,1.2,0.8,1.7c0.1,0.2,0.2,0.5,0.3,0.7c0.3,0.8,0.6,1.6,0.9,2.5c0,0,0,0,0,0.1c0.3,0.8,0.5,1.7,0.7,2.6
	c0.1,0.3,0.1,0.5,0.2,0.8c0.1,0.6,0.2,1.3,0.3,2c0,0.3,0.1,0.6,0.1,0.8c0.1,0.9,0.1,1.8,0.1,2.7c0,0,0,0,0,0.1h7.8
	c0-9.9,7.4-18,17-19.1l0,0l0,0c0.8-0.1,1.5-0.2,2.3-0.2c0,0,0,0,0,0l0,0l0,0c6.5,0,12.3,3.2,15.8,8.2c0.1,0.1,0.2,0.2,0.2,0.3
	c0,0,0,0,0,0c0.5,0.7,0.9,1.4,1.2,2.1c0.1,0.2,0.2,0.4,0.3,0.6c0.7,1.5,1.2,3.1,1.5,4.8c0,0.2,0.1,0.4,0.1,0.6
	c0.1,0.9,0.2,1.7,0.2,2.6l0,0H427v-36.3L328.3,1986.2z"/>
<path class="st2" d="M328.3,2026.5c-5.3-0.2-10.7-0.2-16,0l-98.7,4.3v36.3h30.2l0,0c0-9.9,7.4-18,17-19.1h0c0,0,0,0,0,0
	c0.8-0.1,1.5-0.2,2.3-0.2c0,0,0,0,0,0c0,0,0,0,0,0l0,0c6.5,0,12.3,3.2,15.8,8.2c0.1,0.1,0.2,0.2,0.2,0.3c0,0,0,0,0,0
	c0.5,0.7,0.9,1.4,1.2,2.1c0.1,0.2,0.2,0.4,0.3,0.6c0.7,1.5,1.2,3.1,1.5,4.8c0,0.2,0.1,0.4,0.1,0.6c0.1,0.9,0.2,1.7,0.2,2.6h7.8
	c0-15.4,11.6-28.1,26.5-29.9v0c0,0,0,0,0,0c0.4,0,0.8-0.1,1.2-0.1c0.8-0.1,1.6-0.1,2.4-0.1c0,0,0,0,0,0l0,0c8.3,0,15.8,3.3,21.2,8.7
	c0,0,0.1,0.1,0.1,0.1v0c1.3,1.3,2.4,2.6,3.4,4.1c0.1,0.1,0.2,0.2,0.3,0.4c0.5,0.7,0.9,1.5,1.4,2.2c0.1,0.2,0.2,0.5,0.4,0.7
	c0.3,0.6,0.6,1.2,0.8,1.7c0.1,0.2,0.2,0.5,0.3,0.7c0.3,0.8,0.6,1.6,0.9,2.5c0,0,0,0,0,0.1c0.3,0.8,0.5,1.7,0.7,2.6
	c0.1,0.3,0.1,0.5,0.2,0.8c0.1,0.6,0.2,1.3,0.3,2c0,0.3,0.1,0.6,0.1,0.8c0.1,0.9,0.1,1.8,0.1,2.7c0,0,0,0,0,0.1h7.8
	c0-9.9,7.4-18,17-19.1l0,0l0,0c0.8-0.1,1.5-0.2,2.3-0.2c0,0,0,0,0,0l0,0l0,0c6.5,0,12.3,3.2,15.8,8.2c0.1,0.1,0.2,0.2,0.2,0.3
	c0,0,0,0,0,0c0.5,0.7,0.9,1.4,1.2,2.1c0.1,0.2,0.2,0.4,0.3,0.6c0.7,1.5,1.2,3.1,1.5,4.8c0,0.2,0.1,0.4,0.1,0.6
	c0.1,0.9,0.2,1.7,0.2,2.6l0,0H427v-36.3L328.3,2026.5z"/>
<path class="st2" d="M328.3,1944.6c-5.3-0.2-10.7-0.2-16,0l-98.7,4.3v36.3h30.2l0,0c0-9.9,7.4-18,17-19.1h0c0,0,0,0,0,0
	c0.8-0.1,1.5-0.2,2.3-0.2c0,0,0,0,0,0c0,0,0,0,0,0l0,0c6.5,0,12.3,3.2,15.8,8.2c0.1,0.1,0.2,0.2,0.2,0.3c0,0,0,0,0,0
	c0.5,0.7,0.9,1.4,1.2,2.1c0.1,0.2,0.2,0.4,0.3,0.6c0.7,1.5,1.2,3.1,1.5,4.8c0,0.2,0.1,0.4,0.1,0.6c0.1,0.9,0.2,1.7,0.2,2.6h7.8
	c0-15.4,11.6-28.1,26.5-29.9v0c0,0,0,0,0,0c0.4,0,0.8-0.1,1.2-0.1c0.8-0.1,1.6-0.1,2.4-0.1c0,0,0,0,0,0l0,0c8.3,0,15.8,3.3,21.2,8.7
	c0,0,0.1,0.1,0.1,0.1v0c1.3,1.3,2.4,2.6,3.4,4.1c0.1,0.1,0.2,0.2,0.3,0.4c0.5,0.7,0.9,1.5,1.4,2.2c0.1,0.2,0.2,0.5,0.4,0.7
	c0.3,0.6,0.6,1.2,0.8,1.7c0.1,0.2,0.2,0.5,0.3,0.7c0.3,0.8,0.6,1.6,0.9,2.5c0,0,0,0,0,0.1c0.3,0.8,0.5,1.7,0.7,2.6
	c0.1,0.3,0.1,0.5,0.2,0.8c0.1,0.6,0.2,1.3,0.3,2c0,0.3,0.1,0.6,0.1,0.8c0.1,0.9,0.1,1.8,0.1,2.7c0,0,0,0,0,0.1h7.8
	c0-9.9,7.4-18,17-19.1l0,0l0,0c0.8-0.1,1.5-0.2,2.3-0.2c0,0,0,0,0,0l0,0l0,0c6.5,0,12.3,3.2,15.8,8.2c0.1,0.1,0.2,0.2,0.2,0.3
	c0,0,0,0,0,0c0.5,0.7,0.9,1.4,1.2,2.1c0.1,0.2,0.2,0.4,0.3,0.6c0.7,1.5,1.2,3.1,1.5,4.8c0,0.2,0.1,0.4,0.1,0.6
	c0.1,0.9,0.2,1.7,0.2,2.6l0,0H427v-36.3L328.3,1944.6z"/>
<g>
	<g>
		<rect x="44.7" y="2047.9" class="st3" width="125.6" height="19.4"/>
		<polygon class="st3" points="127,1927.7 142.3,2049 81,2049 91.8,1927.7 		"/>
		<g>
			<path class="st2" d="M42,2047.5c18.2-30,28-106.8,29.4-118.3h21.6l-9.8,118.3H42z"/>
			<path class="st3" d="M91.4,1930.7L81.9,2046H44.6c17-30.6,26.3-100.5,28.1-115.3H91.4 M94.7,1927.7L94.7,1927.7L94.7,1927.7z
				 M94.7,1927.7H70.1c0,0-10.5,91.6-30.8,121.3h45.4L94.7,1927.7L94.7,1927.7z"/>
		</g>
		<g>
			<polygon class="st9" points="76.5,2033.2 70.8,2033.2 73.7,2017.9 79.4,2017.9 			"/>
			<polygon class="st10" points="73.7,2017.9 78.6,2022.1 79.4,2017.9 			"/>
		</g>
		<g>
			<polygon class="st9" points="85.2,1958.7 80.2,1958.7 82.8,1945 87.9,1945 			"/>
			<polygon class="st10" points="82.8,1945 87.2,1948.7 87.9,1945 			"/>
		</g>
		<path class="st11" d="M149,1927.7c0,0,10.5,91.6,30.8,121.3h-45.4l-10.1-121.3H149z"/>
		<g>
			<path class="st2" d="M109.8,1919c-0.1,0-0.2,0-0.3,0l-37.5-0.7l1.6-16.6l12.8-19.5h49l12.8,19.5l1.6,16.6l-37.5,0.7
				c-0.1,0-0.2,0-0.3,0l-1,0L109.8,1919z"/>
			<path class="st3" d="M134.5,1883.8l12.1,18.5l1.4,14.6l-35.9,0.6c-0.1,0-0.3,0-0.4,0l-0.8,0c0,0,0,0-0.1,0s0,0-0.1,0l-0.8,0
				c-0.1,0-0.3,0-0.4,0l-35.9-0.6l1.4-14.6l12.1-18.5h22.3h2.7H134.5 M136.1,1880.8h-24h-2.7h-24l-13.4,20.4l-1.8,18.6l39.1,0.7v0
				l1.3,0l1.3,0v0l39.1-0.7l-1.8-18.6L136.1,1880.8L136.1,1880.8z"/>
		</g>
		<g>
			<polygon class="st9" points="144.4,2031.2 150,2031.2 147.1,2015.9 141.4,2015.9 			"/>
			<polygon class="st3" points="147.1,2015.9 142.2,2020.1 141.4,2015.9 			"/>
		</g>
		<g>
			<rect x="142.7" y="1941.3" class="st2" width="5.4" height="5.4"/>
			<path class="st3" d="M146.6,1942.8v2.4h-2.4v-2.4H146.6 M149.6,1939.8h-8.4v8.4h8.4V1939.8L149.6,1939.8z"/>
		</g>
		<g>
			<path class="st2" d="M71.5,1928.4c-1.8,0-3.3-1.5-3.3-3.3v-2.6c0-1.8,1.5-3.3,3.3-3.3h78.6c1.8,0,3.3,1.5,3.3,3.3v2.6
				c0,1.8-1.5,3.3-3.3,3.3H71.5z"/>
			<path class="st3" d="M150.1,1920.7c1,0,1.8,0.8,1.8,1.8v2.6c0,1-0.8,1.8-1.8,1.8H71.5c-1,0-1.8-0.8-1.8-1.8v-2.6
				c0-1,0.8-1.8,1.8-1.8H150.1 M150.1,1917.7H71.5c-2.6,0-4.8,2.1-4.8,4.8v2.6c0,2.6,2.1,4.8,4.8,4.8h78.6c2.6,0,4.8-2.1,4.8-4.8
				v-2.6C154.8,1919.9,152.7,1917.7,150.1,1917.7L150.1,1917.7z"/>
		</g>
	</g>
	<g>
		<g>
			<g>
				
					<rect x="130.9" y="1846.3" transform="matrix(0.7071 -0.7071 0.7071 0.7071 -1262.2948 666.2643)" class="st12" width="84.5" height="21.2"/>
				
					<rect x="126.1" y="1848.6" transform="matrix(0.7071 -0.7071 0.7071 0.7071 -1260.2642 661.4673)" class="st3" width="84.4" height="6.8"/>
				<line class="st13" x1="109.6" y1="1905.4" x2="194.3" y2="1820.7"/>
			</g>
			<g>
				
					<rect x="18.8" y="1831.3" transform="matrix(-0.7071 -0.7071 0.7071 -0.7071 -1198.261 3187.3875)" class="st12" width="84.5" height="21.2"/>
				
					<rect x="14" y="1843.3" transform="matrix(-0.7071 -0.7071 0.7071 -0.7071 -1209.9163 3192.1101)" class="st3" width="84.4" height="6.8"/>
				<line class="st13" x1="109.6" y1="1905.4" x2="24.8" y2="1820.7"/>
			</g>
			<g>
				
					<rect x="3.8" y="1943.4" transform="matrix(-0.7071 0.7071 -0.7071 -0.7071 1460.1974 3303.1013)" class="st12" width="84.5" height="21.2"/>
				
					<rect x="8.6" y="1955.4" transform="matrix(-0.7071 0.7071 -0.7071 -0.7071 1471.7784 3308.0034)" class="st3" width="84.4" height="6.8"/>
				<line class="st13" x1="109.6" y1="1905.4" x2="24.8" y2="1990.1"/>
			</g>
			<g>
				
					<rect x="115.9" y="1958.4" transform="matrix(0.7071 0.7071 -0.7071 0.7071 1438.576 464.8953)" class="st12" width="84.5" height="21.2"/>
				
					<rect x="120.8" y="1960.8" transform="matrix(0.7071 0.7071 -0.7071 0.7071 1436.6199 460.0674)" class="st3" width="84.4" height="6.8"/>
				<line class="st13" x1="109.6" y1="1905.4" x2="194.3" y2="1990.1"/>
			</g>
		</g>
		<rect x="103.8" y="1899.6" class="st12" width="11.5" height="11.5"/>
	</g>
</g>
<g>
	<g>
		<path class="st0" d="M498.6,1816.7c11.8,0,21.4-9.6,21.4-21.4h-42.7C477.3,1807.1,486.8,1816.7,498.6,1816.7z"/>
		<path class="st0" d="M455.9,1816.7c11.8,0,21.4-9.6,21.4-21.4h-42.7C434.6,1807.1,444.1,1816.7,455.9,1816.7z"/>
		<path class="st0" d="M413.2,1816.7c11.8,0,21.4-9.6,21.4-21.4h-42.7C391.9,1807.1,401.4,1816.7,413.2,1816.7z"/>
		<path class="st0" d="M370.5,1816.7c11.8,0,21.4-9.6,21.4-21.4h-42.7C349.2,1807.1,358.7,1816.7,370.5,1816.7z"/>
		<path class="st0" d="M541.3,1816.7c11.8,0,21.4-9.6,21.4-21.4H520C520,1807.1,529.5,1816.7,541.3,1816.7z"/>
	</g>
	<g>
		<path class="st0" d="M498.6,1902.1c11.8,0,21.4-9.6,21.4-21.4h-42.7C477.3,1892.5,486.8,1902.1,498.6,1902.1z"/>
		<path class="st0" d="M455.9,1902.1c11.8,0,21.4-9.6,21.4-21.4h-42.7C434.6,1892.5,444.1,1902.1,455.9,1902.1z"/>
		<path class="st0" d="M413.2,1902.1c11.8,0,21.4-9.6,21.4-21.4h-42.7C391.9,1892.5,401.4,1902.1,413.2,1902.1z"/>
		<path class="st0" d="M370.5,1902.1c11.8,0,21.4-9.6,21.4-21.4h-42.7C349.2,1892.5,358.7,1902.1,370.5,1902.1z"/>
		<path class="st0" d="M541.3,1902.1c11.8,0,21.4-9.6,21.4-21.4H520C520,1892.5,529.5,1902.1,541.3,1902.1z"/>
	</g>
	<g>
		<path class="st0" d="M498.6,1923.5c11.8,0,21.4-9.6,21.4-21.4h-42.7C477.3,1913.9,486.8,1923.5,498.6,1923.5z"/>
		<path class="st0" d="M455.9,1923.5c11.8,0,21.4-9.6,21.4-21.4h-42.7C434.6,1913.9,444.1,1923.5,455.9,1923.5z"/>
		<path class="st0" d="M413.2,1923.5c11.8,0,21.4-9.6,21.4-21.4h-42.7C391.9,1913.9,401.4,1923.5,413.2,1923.5z"/>
		<path class="st0" d="M370.5,1923.5c11.8,0,21.4-9.6,21.4-21.4h-42.7C349.2,1913.9,358.7,1923.5,370.5,1923.5z"/>
		<path class="st0" d="M541.3,1923.5c11.8,0,21.4-9.6,21.4-21.4H520C520,1913.9,529.5,1923.5,541.3,1923.5z"/>
	</g>
	<g>
		<path class="st0" d="M498.6,1838.1c11.8,0,21.4-9.6,21.4-21.4h-42.7C477.3,1828.5,486.8,1838.1,498.6,1838.1z"/>
		<path class="st0" d="M455.9,1838.1c11.8,0,21.4-9.6,21.4-21.4h-42.7C434.6,1828.5,444.1,1838.1,455.9,1838.1z"/>
		<path class="st0" d="M413.2,1838.1c11.8,0,21.4-9.6,21.4-21.4h-42.7C391.9,1828.5,401.4,1838.1,413.2,1838.1z"/>
		<path class="st0" d="M370.5,1838.1c11.8,0,21.4-9.6,21.4-21.4h-42.7C349.2,1828.5,358.7,1838.1,370.5,1838.1z"/>
		<path class="st0" d="M541.3,1838.1c11.8,0,21.4-9.6,21.4-21.4H520C520,1828.5,529.5,1838.1,541.3,1838.1z"/>
	</g>
	<g>
		<path class="st0" d="M498.6,1859.4c11.8,0,21.4-9.6,21.4-21.4h-42.7C477.3,1849.8,486.8,1859.4,498.6,1859.4z"/>
		<path class="st0" d="M455.9,1859.4c11.8,0,21.4-9.6,21.4-21.4h-42.7C434.6,1849.8,444.1,1859.4,455.9,1859.4z"/>
		<path class="st0" d="M413.2,1859.4c11.8,0,21.4-9.6,21.4-21.4h-42.7C391.9,1849.8,401.4,1859.4,413.2,1859.4z"/>
		<path class="st0" d="M370.5,1859.4c11.8,0,21.4-9.6,21.4-21.4h-42.7C349.2,1849.8,358.7,1859.4,370.5,1859.4z"/>
		<path class="st0" d="M541.3,1859.4c11.8,0,21.4-9.6,21.4-21.4H520C520,1849.8,529.5,1859.4,541.3,1859.4z"/>
	</g>
	<g>
		<path class="st0" d="M498.6,1880.8c11.8,0,21.4-9.6,21.4-21.4h-42.7C477.3,1871.2,486.8,1880.8,498.6,1880.8z"/>
		<path class="st0" d="M455.9,1880.8c11.8,0,21.4-9.6,21.4-21.4h-42.7C434.6,1871.2,444.1,1880.8,455.9,1880.8z"/>
		<path class="st0" d="M413.2,1880.8c11.8,0,21.4-9.6,21.4-21.4h-42.7C391.9,1871.2,401.4,1880.8,413.2,1880.8z"/>
		<path class="st0" d="M370.5,1880.8c11.8,0,21.4-9.6,21.4-21.4h-42.7C349.2,1871.2,358.7,1880.8,370.5,1880.8z"/>
		<path class="st0" d="M541.3,1880.8c11.8,0,21.4-9.6,21.4-21.4H520C520,1871.2,529.5,1880.8,541.3,1880.8z"/>
	</g>
</g>
<rect x="427" y="1931.2" transform="matrix(-1 -1.224647e-16 1.224647e-16 -1 1067.5061 3998.3357)" class="st0" width="213.5" height="135.9"/>
<rect x="793.8" y="2084.2" transform="matrix(-1 -1.224647e-16 1.224647e-16 -1 1801.0709 4304.2583)" class="st3" width="213.5" height="135.9"/>
<rect x="861.7" y="2084.2" transform="matrix(-1 -1.224647e-16 1.224647e-16 -1 1869.0232 4304.2583)" class="st2" width="145.5" height="135.9"/>
<path class="st0" d="M861.7,2084.2v135.9c37.5,0,68-30.4,68-68C929.7,2114.6,899.3,2084.2,861.7,2084.2z"/>
<path class="st0" d="M1007.3,2084.2L1007.3,2084.2c-37.5,0.1-67.9,30.5-67.9,68c0,37.5,30.4,67.9,67.9,67.9v0.1h135.9v-135.9H1007.3
	z"/>
<g>
	<g>
		
			<rect x="802.9" y="2098.2" transform="matrix(-1 -1.224647e-16 1.224647e-16 -1 1655.5222 4304.063)" class="st5" width="49.8" height="107.6"/>
	</g>
	<line class="st5" x1="852.7" y1="2152" x2="802.9" y2="2152"/>
	<line class="st5" x1="826.8" y1="2099.2" x2="826.8" y2="2205.8"/>
</g>
<g>
	<g>
		<path class="st1" d="M1009.3,2159.7c-4.2,0-7.6-3.4-7.6-7.6c0-4.2,3.4-7.6,7.6-7.6c4.2,0,7.6,3.4,7.6,7.6
			C1016.8,2156.3,1013.5,2159.7,1009.3,2159.7z M1009.3,2146.1c-3.3,0-6,2.7-6,6s2.7,6,6,6c3.3,0,6-2.7,6-6
			S1012.6,2146.1,1009.3,2146.1z"/>
	</g>
	<g>
		<rect x="1009.3" y="2090.2" class="st1" width="133.9" height="1.5"/>
	</g>
	<g>
		<rect x="1009.3" y="2097" class="st1" width="133.9" height="1.5"/>
	</g>
	<g>
		<g>
			<path class="st1" d="M1009.3,2214c-34.1,0-61.9-27.8-61.9-61.9c0-34.1,27.8-61.9,61.9-61.9v1.5c-33.3,0-60.4,27.1-60.4,60.4
				c0,33.3,27.1,60.4,60.4,60.4V2214z"/>
		</g>
		<g>
			<path class="st1" d="M1009.3,2207.2c-30.4,0-55.1-24.7-55.1-55.1s24.7-55.1,55.1-55.1v1.5c-29.6,0-53.6,24-53.6,53.6
				s24,53.6,53.6,53.6V2207.2z"/>
		</g>
		<g>
			<path class="st1" d="M1009.3,2200.5c-26.6,0-48.3-21.7-48.3-48.3c0-26.6,21.7-48.3,48.3-48.3v1.5c-25.8,0-46.8,21-46.8,46.8
				s21,46.8,46.8,46.8V2200.5z"/>
		</g>
		<g>
			<path class="st1" d="M1009.3,2193.7c-22.9,0-41.5-18.6-41.5-41.5c0-22.9,18.6-41.5,41.5-41.5v1.5c-22.1,0-40,18-40,40
				c0,22.1,17.9,40,40,40V2193.7z"/>
		</g>
		<g>
			<path class="st1" d="M1009.3,2186.9c-19.2,0-34.7-15.6-34.7-34.7s15.6-34.7,34.7-34.7v1.5c-18.3,0-33.2,14.9-33.2,33.2
				c0,18.3,14.9,33.2,33.2,33.2V2186.9z"/>
		</g>
		<g>
			<path class="st1" d="M1009.3,2180.1c-15.4,0-27.9-12.5-27.9-27.9s12.5-27.9,27.9-27.9v1.5c-14.6,0-26.4,11.9-26.4,26.4
				s11.9,26.4,26.4,26.4V2180.1z"/>
		</g>
		<g>
			<path class="st1" d="M1009.3,2173.3c-11.7,0-21.1-9.5-21.1-21.1c0-11.7,9.5-21.1,21.1-21.1v1.5c-10.8,0-19.6,8.8-19.6,19.6
				c0,10.8,8.8,19.6,19.6,19.6V2173.3z"/>
		</g>
		<g>
			<path class="st1" d="M1009.3,2166.5c-7.9,0-14.3-6.4-14.3-14.3s6.4-14.3,14.3-14.3v1.5c-7.1,0-12.8,5.8-12.8,12.8
				s5.8,12.8,12.8,12.8V2166.5z"/>
		</g>
		<g>
			<rect x="1009.3" y="2103.8" class="st1" width="133.9" height="1.5"/>
		</g>
		<g>
			<rect x="1009.3" y="2110.6" class="st1" width="133.9" height="1.5"/>
		</g>
		<g>
			<rect x="1009.3" y="2117.4" class="st1" width="133.9" height="1.5"/>
		</g>
		<g>
			<rect x="1009.3" y="2124.2" class="st1" width="133.9" height="1.5"/>
		</g>
		<g>
			<rect x="1009.3" y="2131" class="st1" width="133.9" height="1.5"/>
		</g>
		<g>
			<rect x="1009.3" y="2137.8" class="st1" width="133.9" height="1.5"/>
		</g>
		<g>
			<rect x="1009.3" y="2165" class="st1" width="133.9" height="1.5"/>
		</g>
		<g>
			<rect x="1009.3" y="2171.8" class="st1" width="133.9" height="1.5"/>
		</g>
		<g>
			<rect x="1009.3" y="2178.6" class="st1" width="133.9" height="1.5"/>
		</g>
		<g>
			<rect x="1009.3" y="2185.3" class="st1" width="133.9" height="1.5"/>
		</g>
		<g>
			<rect x="1009.3" y="2192.1" class="st1" width="133.9" height="1.5"/>
		</g>
		<g>
			<rect x="1009.3" y="2198.9" class="st1" width="133.9" height="1.5"/>
		</g>
		<g>
			<rect x="1009.3" y="2205.7" class="st1" width="133.9" height="1.5"/>
		</g>
	</g>
	<g>
		<rect x="1009.3" y="2212.5" class="st1" width="133.9" height="1.5"/>
	</g>
</g>
<g>
	<g>
		<path class="st3" d="M576.5,1952.6c11.8,0,21.4-9.6,21.4-21.4h-42.7C555.1,1943,564.7,1952.6,576.5,1952.6z"/>
		<path class="st3" d="M533.8,1952.6c11.8,0,21.4-9.6,21.4-21.4h-42.7C512.4,1943,522,1952.6,533.8,1952.6z"/>
		<path class="st3" d="M491.1,1952.6c11.8,0,21.4-9.6,21.4-21.4h-42.7C469.7,1943,479.3,1952.6,491.1,1952.6z"/>
		<path class="st3" d="M448.4,1952.6c11.8,0,21.4-9.6,21.4-21.4H427C427,1943,436.6,1952.6,448.4,1952.6z"/>
		<path class="st3" d="M619.2,1952.6c11.8,0,21.4-9.6,21.4-21.4h-42.7C597.8,1943,607.4,1952.6,619.2,1952.6z"/>
	</g>
	<g>
		<path class="st3" d="M576.5,2038c11.8,0,21.4-9.6,21.4-21.4h-42.7C555.1,2028.4,564.7,2038,576.5,2038z"/>
		<path class="st3" d="M533.8,2038c11.8,0,21.4-9.6,21.4-21.4h-42.7C512.4,2028.4,522,2038,533.8,2038z"/>
		<path class="st3" d="M491.1,2038c11.8,0,21.4-9.6,21.4-21.4h-42.7C469.7,2028.4,479.3,2038,491.1,2038z"/>
		<path class="st3" d="M448.4,2038c11.8,0,21.4-9.6,21.4-21.4H427C427,2028.4,436.6,2038,448.4,2038z"/>
		<path class="st3" d="M619.2,2038c11.8,0,21.4-9.6,21.4-21.4h-42.7C597.8,2028.4,607.4,2038,619.2,2038z"/>
	</g>
	<g>
		<path class="st3" d="M576.5,2059.3c11.8,0,21.4-9.6,21.4-21.4h-42.7C555.1,2049.8,564.7,2059.3,576.5,2059.3z"/>
		<path class="st3" d="M533.8,2059.3c11.8,0,21.4-9.6,21.4-21.4h-42.7C512.4,2049.8,522,2059.3,533.8,2059.3z"/>
		<path class="st3" d="M491.1,2059.3c11.8,0,21.4-9.6,21.4-21.4h-42.7C469.7,2049.8,479.3,2059.3,491.1,2059.3z"/>
		<path class="st3" d="M448.4,2059.3c11.8,0,21.4-9.6,21.4-21.4H427C427,2049.8,436.6,2059.3,448.4,2059.3z"/>
		<path class="st3" d="M619.2,2059.3c11.8,0,21.4-9.6,21.4-21.4h-42.7C597.8,2049.8,607.4,2059.3,619.2,2059.3z"/>
	</g>
	<g>
		<path class="st3" d="M576.5,1973.9c11.8,0,21.4-9.6,21.4-21.4h-42.7C555.1,1964.4,564.7,1973.9,576.5,1973.9z"/>
		<path class="st3" d="M533.8,1973.9c11.8,0,21.4-9.6,21.4-21.4h-42.7C512.4,1964.4,522,1973.9,533.8,1973.9z"/>
		<path class="st3" d="M491.1,1973.9c11.8,0,21.4-9.6,21.4-21.4h-42.7C469.7,1964.4,479.3,1973.9,491.1,1973.9z"/>
		<path class="st3" d="M448.4,1973.9c11.8,0,21.4-9.6,21.4-21.4H427C427,1964.4,436.6,1973.9,448.4,1973.9z"/>
		<path class="st3" d="M619.2,1973.9c11.8,0,21.4-9.6,21.4-21.4h-42.7C597.8,1964.4,607.4,1973.9,619.2,1973.9z"/>
	</g>
	<g>
		<path class="st3" d="M576.5,1995.3c11.8,0,21.4-9.6,21.4-21.4h-42.7C555.1,1985.7,564.7,1995.3,576.5,1995.3z"/>
		<path class="st3" d="M533.8,1995.3c11.8,0,21.4-9.6,21.4-21.4h-42.7C512.4,1985.7,522,1995.3,533.8,1995.3z"/>
		<path class="st3" d="M491.1,1995.3c11.8,0,21.4-9.6,21.4-21.4h-42.7C469.7,1985.7,479.3,1995.3,491.1,1995.3z"/>
		<path class="st3" d="M448.4,1995.3c11.8,0,21.4-9.6,21.4-21.4H427C427,1985.7,436.6,1995.3,448.4,1995.3z"/>
		<path class="st3" d="M619.2,1995.3c11.8,0,21.4-9.6,21.4-21.4h-42.7C597.8,1985.7,607.4,1995.3,619.2,1995.3z"/>
	</g>
	<g>
		<path class="st3" d="M576.5,2016.6c11.8,0,21.4-9.6,21.4-21.4h-42.7C555.1,2007.1,564.7,2016.6,576.5,2016.6z"/>
		<path class="st3" d="M533.8,2016.6c11.8,0,21.4-9.6,21.4-21.4h-42.7C512.4,2007.1,522,2016.6,533.8,2016.6z"/>
		<path class="st3" d="M491.1,2016.6c11.8,0,21.4-9.6,21.4-21.4h-42.7C469.7,2007.1,479.3,2016.6,491.1,2016.6z"/>
		<path class="st3" d="M448.4,2016.6c11.8,0,21.4-9.6,21.4-21.4H427C427,2007.1,436.6,2016.6,448.4,2016.6z"/>
		<path class="st3" d="M619.2,2016.6c11.8,0,21.4-9.6,21.4-21.4h-42.7C597.8,2007.1,607.4,2016.6,619.2,2016.6z"/>
	</g>
</g>
<g>
	<g>
		<g>
			<g>
				<polygon class="st2" points="338.5,838.9 338.5,791.1 349.8,761.1 361.1,791.1 361.1,838.9 				"/>
				<path class="st3" d="M349.8,762.5l10.8,28.7v47.2H339v-47.2L349.8,762.5 M349.8,759.7L338,791v48.4h23.6V791L349.8,759.7
					L349.8,759.7z"/>
			</g>
			<polygon class="st1" points="349.8,759.7 361.6,791 378.4,791 366.5,759.7 			"/>
			<rect x="361.6" y="791" class="st1" width="16.8" height="48.4"/>
			<g id="XMLID_00000054252650308650555740000009929449664014952381_">
				<g>
					<path class="st6" d="M356.2,794.9v16h-7.1v-16c0.1-3.2,1.4-6.1,3.5-8.2C354.8,788.9,356.1,791.7,356.2,794.9z"/>
					<path class="st7" d="M352.7,786.8c-2.1,2.1-3.4,5-3.5,8.2c-0.1-3.2-1.4-6.1-3.5-8.2c1-1,2.2-1.9,3.5-2.5
						C350.4,784.9,351.6,785.8,352.7,786.8z"/>
					<path class="st6" d="M349.1,794.9v16h-7.1v-16c0.1-3.2,1.4-6.1,3.5-8.2C347.7,788.9,349,791.7,349.1,794.9z"/>
				</g>
			</g>
			<rect x="342.1" y="826.7" class="st8" width="4.3" height="12.3"/>
		</g>
		<g>
			<path class="st1" d="M478.2,763.1c-3.4-5.1-9.2-8.1-15.3-8.1h-16.3v84.4h0h32.7v-74.7L478.2,763.1z"/>
			<g>
				<path class="st2" d="M430.7,838.9v-74.1l1-1.4c3.4-4.9,8.9-7.9,14.9-7.9c6,0,11.5,2.9,14.9,7.9l1,1.4v74.1H430.7z"/>
				<g>
					<path class="st3" d="M446.6,756c5.8,0,11.2,2.9,14.5,7.6l0.9,1.3v73.4h-30.7V765l0.9-1.3C435.4,758.9,440.8,756,446.6,756
						 M446.6,755c-6.1,0-11.8,3-15.3,8.1l-1.1,1.6v74.7h32.7v-74.7l-1.1-1.6C458.4,758.1,452.7,755,446.6,755L446.6,755z"/>
				</g>
			</g>
			<g>
				<g>
					<g>
						<rect x="434.4" y="769.4" class="st6" width="5.8" height="14.2"/>
					</g>
					<line class="st6" x1="434.7" y1="776.5" x2="440.3" y2="776.5"/>
					<line class="st6" x1="437.5" y1="783.5" x2="437.5" y2="769.4"/>
				</g>
				<g>
					<g>
						<rect x="443.6" y="769.4" class="st6" width="5.8" height="14.2"/>
					</g>
					<line class="st6" x1="443.8" y1="776.5" x2="449.4" y2="776.5"/>
					<line class="st6" x1="446.6" y1="783.5" x2="446.6" y2="769.4"/>
				</g>
				<g>
					<g>
						<rect x="453.4" y="769.4" class="st6" width="5.8" height="14.2"/>
					</g>
					<line class="st6" x1="453.7" y1="776.5" x2="459.3" y2="776.5"/>
					<line class="st6" x1="456.5" y1="783.5" x2="456.5" y2="769.4"/>
				</g>
			</g>
			<g>
				<g>
					<g>
						<rect x="434.4" y="788.7" class="st6" width="5.8" height="14.2"/>
					</g>
					<line class="st6" x1="434.7" y1="795.8" x2="440.3" y2="795.8"/>
					<line class="st6" x1="437.5" y1="802.8" x2="437.5" y2="788.7"/>
				</g>
				<g>
					<g>
						<rect x="443.6" y="788.7" class="st6" width="5.8" height="14.2"/>
					</g>
					<line class="st6" x1="443.8" y1="795.8" x2="449.4" y2="795.8"/>
					<line class="st6" x1="446.6" y1="802.8" x2="446.6" y2="788.7"/>
				</g>
				<g>
					<g>
						<rect x="453.4" y="788.7" class="st6" width="5.8" height="14.2"/>
					</g>
					<line class="st6" x1="453.7" y1="795.8" x2="459.3" y2="795.8"/>
					<line class="st6" x1="456.5" y1="802.8" x2="456.5" y2="788.7"/>
				</g>
			</g>
			<g>
				<g>
					<g>
						<rect x="434.4" y="807.3" class="st6" width="5.8" height="14.2"/>
					</g>
					<line class="st6" x1="434.7" y1="814.4" x2="440.3" y2="814.4"/>
					<line class="st6" x1="437.5" y1="821.4" x2="437.5" y2="807.3"/>
				</g>
				<g>
					<g>
						<rect x="443.6" y="807.3" class="st6" width="5.8" height="14.2"/>
					</g>
					<line class="st6" x1="443.8" y1="814.4" x2="449.4" y2="814.4"/>
					<line class="st6" x1="446.6" y1="821.4" x2="446.6" y2="807.3"/>
				</g>
				<g>
					<g>
						<rect x="453.4" y="807.3" class="st6" width="5.8" height="14.2"/>
					</g>
					<line class="st6" x1="453.7" y1="814.4" x2="459.3" y2="814.4"/>
					<line class="st6" x1="456.5" y1="821.4" x2="456.5" y2="807.3"/>
				</g>
			</g>
		</g>
		<g>
			<path class="st1" d="M416,738.4v-6.1v-1.4c-1.1-1.1-2.6-1.7-4.3-1.7h-16v26.6l-0.9,1.3h-2.4v1.6h0.9v80.6h2.4h16h9.7h8.8v-80
				L416,738.4z"/>
			<g>
				<path class="st2" d="M378.8,838.9v-79.2c0-0.3-0.2-0.5-0.5-0.5h-0.4v-1.5h1.9c0.2,0,0.3-0.1,0.4-0.2l12.7-18.8
					c0.1-0.1,0.1-0.2,0.1-0.3v-7.3c1-0.9,2.4-1.5,3.8-1.5s2.7,0.5,3.8,1.5v7.3c0,0.1,0,0.2,0.1,0.3l12.7,18.8
					c0.1,0.1,0.2,0.2,0.4,0.2h1.9v1.8h-0.4c-0.3,0-0.5,0.2-0.5,0.5v79H378.8z"/>
				<path class="st3" d="M396.8,730.2c1.2,0,2.3,0.4,3.3,1.2v0.9v6.1c0,0.2,0.1,0.4,0.2,0.6l12.7,18.8c0.2,0.3,0.5,0.4,0.8,0.4h1.4
					v0.8c-0.5,0-0.9,0.5-0.9,1v78.5h-17.5h-17.5v-78.7c0-0.5-0.4-0.9-0.9-1v-0.5h1.4c0.3,0,0.6-0.2,0.8-0.4l12.7-18.8
					c0.1-0.2,0.2-0.4,0.2-0.6v-6.1v-0.9C394.5,730.6,395.6,730.2,396.8,730.2 M396.8,729.2c-1.7,0-3.2,0.7-4.3,1.7v1.4v6.1
					l-12.7,18.8h-2.4v2.5h0.9v79.7h18.5h18.5v-79.5h0.9v-2.8h-2.4l-12.7-18.8v-6.1v-1.4C400,729.8,398.5,729.2,396.8,729.2
					L396.8,729.2z"/>
			</g>
			<g>
				<g>
					<g>
						<g>
							<rect x="381.9" y="764.1" class="st6" width="5.7" height="14"/>
						</g>
						<line class="st6" x1="382.1" y1="771.1" x2="387.6" y2="771.1"/>
						<line class="st6" x1="384.9" y1="777.9" x2="384.9" y2="764.1"/>
					</g>
					<g>
						<g>
							<g>
								<rect x="392.5" y="764.1" class="st6" width="5.7" height="14"/>
							</g>
							<line class="st6" x1="392.7" y1="771.1" x2="398.2" y2="771.1"/>
							<line class="st6" x1="395.4" y1="777.9" x2="395.4" y2="764.1"/>
						</g>
						<g>
							<g>
								<rect x="398.2" y="764.1" class="st6" width="3" height="14"/>
							</g>
							<line class="st6" x1="398.3" y1="771.1" x2="401.2" y2="771.1"/>
						</g>
					</g>
					<g>
						<g>
							<rect x="406" y="764.1" class="st6" width="5.7" height="14"/>
						</g>
						<line class="st6" x1="406.2" y1="771.1" x2="411.8" y2="771.1"/>
						<line class="st6" x1="409" y1="777.9" x2="409" y2="764.1"/>
					</g>
				</g>
				<g>
					<g>
						<g>
							<rect x="381.9" y="782.1" class="st6" width="5.7" height="14"/>
						</g>
						<line class="st6" x1="382.1" y1="789.1" x2="387.6" y2="789.1"/>
						<line class="st6" x1="384.9" y1="796" x2="384.9" y2="782.1"/>
					</g>
					<g>
						<g>
							<g>
								<rect x="392.5" y="782.1" class="st6" width="5.7" height="14"/>
							</g>
							<line class="st6" x1="392.7" y1="789.1" x2="398.2" y2="789.1"/>
							<line class="st6" x1="395.4" y1="796" x2="395.4" y2="782.1"/>
						</g>
						<g>
							<g>
								<rect x="398.2" y="782.1" class="st6" width="3" height="14"/>
							</g>
							<line class="st6" x1="398.3" y1="789.1" x2="401.2" y2="789.1"/>
						</g>
					</g>
					<g>
						<g>
							<rect x="406" y="782.1" class="st6" width="5.7" height="14"/>
						</g>
						<line class="st6" x1="406.2" y1="789.1" x2="411.8" y2="789.1"/>
						<line class="st6" x1="409" y1="796" x2="409" y2="782.1"/>
					</g>
				</g>
				<g>
					<g>
						<g>
							<rect x="381.9" y="800.2" class="st6" width="5.7" height="14"/>
						</g>
						<line class="st6" x1="382.1" y1="807.2" x2="387.6" y2="807.2"/>
						<line class="st6" x1="384.9" y1="814" x2="384.9" y2="800.2"/>
					</g>
					<g>
						<g>
							<g>
								<rect x="392.5" y="800.2" class="st6" width="5.7" height="14"/>
							</g>
							<line class="st6" x1="392.7" y1="807.2" x2="398.2" y2="807.2"/>
							<line class="st6" x1="395.4" y1="814" x2="395.4" y2="800.2"/>
						</g>
						<g>
							<g>
								<rect x="398.2" y="800.2" class="st6" width="3" height="14"/>
							</g>
							<line class="st6" x1="398.3" y1="807.2" x2="401.2" y2="807.2"/>
						</g>
					</g>
					<g>
						<g>
							<rect x="406" y="800.2" class="st6" width="5.7" height="14"/>
						</g>
						<line class="st6" x1="406.2" y1="807.2" x2="411.8" y2="807.2"/>
						<line class="st6" x1="409" y1="814" x2="409" y2="800.2"/>
					</g>
				</g>
				<g>
					<g>
						<g>
							<rect x="381.9" y="818.2" class="st6" width="5.7" height="14"/>
						</g>
						<line class="st6" x1="382.1" y1="825.2" x2="387.6" y2="825.2"/>
						<line class="st6" x1="384.9" y1="832.1" x2="384.9" y2="818.2"/>
					</g>
					<g>
						<g>
							<g>
								<rect x="392.5" y="818.2" class="st6" width="5.7" height="14"/>
							</g>
							<line class="st6" x1="392.7" y1="825.2" x2="398.2" y2="825.2"/>
							<line class="st6" x1="395.4" y1="832.1" x2="395.4" y2="818.2"/>
						</g>
						<g>
							<g>
								<rect x="398.2" y="818.2" class="st6" width="3" height="14"/>
							</g>
							<line class="st6" x1="398.3" y1="825.2" x2="401.2" y2="825.2"/>
						</g>
					</g>
					<g>
						<g>
							<rect x="406" y="818.2" class="st6" width="5.7" height="14"/>
						</g>
						<line class="st6" x1="406.2" y1="825.2" x2="411.8" y2="825.2"/>
						<line class="st6" x1="409" y1="832.1" x2="409" y2="818.2"/>
					</g>
				</g>
				<rect x="392.9" y="748" class="st6" width="7.9" height="10"/>
			</g>
			<path d="M393.3,839.4"/>
		</g>
	</g>
	<g>
		<g>
			<g>
				<polygon class="st2" points="118.2,838.9 118.2,791.1 129.5,761.1 140.8,791.1 140.8,838.9 				"/>
				<path class="st3" d="M129.5,762.5l10.8,28.7v47.2h-21.6v-47.2L129.5,762.5 M129.5,759.7L117.7,791v48.4h23.6V791L129.5,759.7
					L129.5,759.7z"/>
			</g>
			<polygon class="st1" points="129.5,759.7 117.7,791 100.9,791 112.7,759.7 			"/>
			<rect x="100.9" y="791" class="st1" width="16.8" height="48.4"/>
			<g id="XMLID_00000100369871656266312630000012890910107100603055_">
				<g>
					<path class="st6" d="M123.1,794.9v16h7.1v-16c-0.1-3.2-1.4-6.1-3.5-8.2C124.5,788.9,123.2,791.7,123.1,794.9z"/>
					<path class="st7" d="M126.6,786.8c2.1,2.1,3.4,5,3.5,8.2c0.1-3.2,1.4-6.1,3.5-8.2c-1-1-2.2-1.9-3.5-2.5
						C128.8,784.9,127.6,785.8,126.6,786.8z"/>
					<path class="st6" d="M130.2,794.9v16h7.1v-16c-0.1-3.2-1.4-6.1-3.5-8.2C131.6,788.9,130.3,791.7,130.2,794.9z"/>
				</g>
			</g>
			
				<rect x="133" y="826.7" transform="matrix(-1 -4.480162e-11 4.480162e-11 -1 270.1997 1665.7423)" class="st8" width="4.3" height="12.3"/>
		</g>
		<g>
			<path class="st1" d="M1.1,763.1c3.4-5.1,9.2-8.1,15.3-8.1h16.3v84.4h0H0l0-74.7L1.1,763.1z"/>
			<g>
				<path class="st2" d="M16.8,838.9v-74.1l1-1.4c3.4-4.9,8.9-7.9,14.9-7.9c6,0,11.5,2.9,14.9,7.9l1,1.4v74.1H16.8z"/>
				<g>
					<path class="st3" d="M32.7,756c5.8,0,11.2,2.9,14.5,7.6L48,765v73.4H17.3V765l0.9-1.3C21.5,758.9,26.9,756,32.7,756 M32.7,755
						c-6.1,0-11.8,3-15.3,8.1l-1.1,1.6v74.7H49v-74.7l-1.1-1.6C44.5,758.1,38.8,755,32.7,755L32.7,755z"/>
				</g>
			</g>
			<g>
				<g>
					<g>
						
							<rect x="39" y="769.4" transform="matrix(-1 -4.484381e-11 4.484381e-11 -1 83.8556 1552.9824)" class="st6" width="5.8" height="14.2"/>
					</g>
					<line class="st6" x1="44.6" y1="776.5" x2="39" y2="776.5"/>
					<line class="st6" x1="41.8" y1="783.5" x2="41.8" y2="769.4"/>
				</g>
				<g>
					<g>
						
							<rect x="29.9" y="769.4" transform="matrix(-1 -4.484381e-11 4.484381e-11 -1 65.5611 1552.9824)" class="st6" width="5.8" height="14.2"/>
					</g>
					<line class="st6" x1="35.5" y1="776.5" x2="29.9" y2="776.5"/>
					<line class="st6" x1="32.7" y1="783.5" x2="32.7" y2="769.4"/>
				</g>
				<g>
					<g>
						
							<rect x="20" y="769.4" transform="matrix(-1 -4.484381e-11 4.484381e-11 -1 45.8338 1552.9824)" class="st6" width="5.8" height="14.2"/>
					</g>
					<line class="st6" x1="25.6" y1="776.5" x2="20" y2="776.5"/>
					<line class="st6" x1="22.8" y1="783.5" x2="22.8" y2="769.4"/>
				</g>
			</g>
			<g>
				<g>
					<g>
						
							<rect x="39" y="788.7" transform="matrix(-1 -4.484381e-11 4.484381e-11 -1 83.8556 1591.5553)" class="st6" width="5.8" height="14.2"/>
					</g>
					<line class="st6" x1="44.6" y1="795.8" x2="39" y2="795.8"/>
					<line class="st6" x1="41.8" y1="802.8" x2="41.8" y2="788.7"/>
				</g>
				<g>
					<g>
						
							<rect x="29.9" y="788.7" transform="matrix(-1 -4.468837e-11 4.468837e-11 -1 65.5611 1591.5553)" class="st6" width="5.8" height="14.2"/>
					</g>
					<line class="st6" x1="35.5" y1="795.8" x2="29.9" y2="795.8"/>
					<line class="st6" x1="32.7" y1="802.8" x2="32.7" y2="788.7"/>
				</g>
				<g>
					<g>
						
							<rect x="20" y="788.7" transform="matrix(-1 -4.515556e-11 4.515556e-11 -1 45.8338 1591.5553)" class="st6" width="5.8" height="14.2"/>
					</g>
					<line class="st6" x1="25.6" y1="795.8" x2="20" y2="795.8"/>
					<line class="st6" x1="22.8" y1="802.8" x2="22.8" y2="788.7"/>
				</g>
			</g>
			<g>
				<g>
					<g>
						
							<rect x="39" y="807.3" transform="matrix(-1 -4.499968e-11 4.499968e-11 -1 83.8556 1628.8057)" class="st6" width="5.8" height="14.2"/>
					</g>
					<line class="st6" x1="44.6" y1="814.4" x2="39" y2="814.4"/>
					<line class="st6" x1="41.8" y1="821.4" x2="41.8" y2="807.3"/>
				</g>
				<g>
					<g>
						
							<rect x="29.9" y="807.3" transform="matrix(-1 -4.499968e-11 4.499968e-11 -1 65.5611 1628.8057)" class="st6" width="5.8" height="14.2"/>
					</g>
					<line class="st6" x1="35.5" y1="814.4" x2="29.9" y2="814.4"/>
					<line class="st6" x1="32.7" y1="821.4" x2="32.7" y2="807.3"/>
				</g>
				<g>
					<g>
						
							<rect x="20" y="807.3" transform="matrix(-1 -4.468837e-11 4.468837e-11 -1 45.8338 1628.8057)" class="st6" width="5.8" height="14.2"/>
					</g>
					<line class="st6" x1="25.6" y1="814.4" x2="20" y2="814.4"/>
					<line class="st6" x1="22.8" y1="821.4" x2="22.8" y2="807.3"/>
				</g>
			</g>
		</g>
		<g>
			<path class="st1" d="M63.3,738.4v-6.1v-1.4c1.1-1.1,2.6-1.7,4.3-1.7h16v26.6l0.9,1.3h2.4v1.6H86v80.6h-2.4h-16h-9.7H49v-80
				L63.3,738.4z"/>
			<g>
				<path class="st2" d="M64.5,838.9v-79c0-0.3-0.2-0.5-0.5-0.5h-0.4v-1.8h1.9c0.2,0,0.3-0.1,0.4-0.2l12.7-18.8
					c0.1-0.1,0.1-0.2,0.1-0.3v-7.3c1-0.9,2.4-1.5,3.8-1.5c1.4,0,2.7,0.5,3.8,1.5v7.3c0,0.1,0,0.2,0.1,0.3L99,757.4
					c0.1,0.1,0.2,0.2,0.4,0.2h1.9v1.5h-0.4c-0.3,0-0.5,0.2-0.5,0.5v79.2H64.5z"/>
				<path class="st3" d="M82.5,730.2c1.2,0,2.3,0.4,3.3,1.2v0.9v6.1c0,0.2,0.1,0.4,0.2,0.6l12.7,18.8c0.2,0.3,0.5,0.4,0.8,0.4h1.4
					v0.5c-0.5,0-0.9,0.5-0.9,1v78.7H82.5H65v-78.5c0-0.5-0.4-0.9-0.9-1v-0.8h1.4c0.3,0,0.6-0.2,0.8-0.4L79,738.9
					c0.1-0.2,0.2-0.4,0.2-0.6v-6.1v-0.9C80.1,730.6,81.3,730.2,82.5,730.2 M82.5,729.2c-1.7,0-3.2,0.7-4.3,1.7v1.4v6.1l-12.7,18.8
					h-2.4v2.8H64v79.5h18.5h18.5v-79.7h0.9v-2.5h-2.4l-12.7-18.8v-6.1v-1.4C85.6,729.8,84.1,729.2,82.5,729.2L82.5,729.2z"/>
			</g>
			<g>
				<g>
					<g>
						<g>
							
								<rect x="91.7" y="764.1" transform="matrix(-1 -4.494106e-11 4.494106e-11 -1 189.0535 1542.1532)" class="st6" width="5.7" height="14"/>
						</g>
						<line class="st6" x1="97.2" y1="771.1" x2="91.7" y2="771.1"/>
						<line class="st6" x1="94.4" y1="777.9" x2="94.4" y2="764.1"/>
					</g>
					<g>
						<g>
							<g>
								
									<rect x="81.1" y="764.1" transform="matrix(-1 -4.494106e-11 4.494106e-11 -1 167.9078 1542.1532)" class="st6" width="5.7" height="14"/>
							</g>
							<line class="st6" x1="86.6" y1="771.1" x2="81.1" y2="771.1"/>
							<line class="st6" x1="83.8" y1="777.9" x2="83.8" y2="764.1"/>
						</g>
						<g>
							<g>
								
									<rect x="78.1" y="764.1" transform="matrix(-1 -4.543311e-11 4.543311e-11 -1 159.1776 1542.1532)" class="st6" width="3" height="14"/>
							</g>
							<line class="st6" x1="81" y1="771.1" x2="78.1" y2="771.1"/>
						</g>
					</g>
					<g>
						<g>
							
								<rect x="67.5" y="764.1" transform="matrix(-1 -4.478297e-11 4.478297e-11 -1 140.7966 1542.1532)" class="st6" width="5.7" height="14"/>
						</g>
						<line class="st6" x1="73.1" y1="771.1" x2="67.5" y2="771.1"/>
						<line class="st6" x1="70.3" y1="777.9" x2="70.3" y2="764.1"/>
					</g>
				</g>
				<g>
					<g>
						<g>
							
								<rect x="91.7" y="782.1" transform="matrix(-1 -4.494106e-11 4.494106e-11 -1 189.0535 1578.2366)" class="st6" width="5.7" height="14"/>
						</g>
						<line class="st6" x1="97.2" y1="789.1" x2="91.7" y2="789.1"/>
						<line class="st6" x1="94.4" y1="796" x2="94.4" y2="782.1"/>
					</g>
					<g>
						<g>
							<g>
								
									<rect x="81.1" y="782.1" transform="matrix(-1 -4.478297e-11 4.478297e-11 -1 167.9078 1578.2366)" class="st6" width="5.7" height="14"/>
							</g>
							<line class="st6" x1="86.6" y1="789.1" x2="81.1" y2="789.1"/>
							<line class="st6" x1="83.8" y1="796" x2="83.8" y2="782.1"/>
						</g>
						<g>
							<g>
								
									<rect x="78.1" y="782.1" transform="matrix(-1 -4.512802e-11 4.512802e-11 -1 159.1776 1578.2366)" class="st6" width="3" height="14"/>
							</g>
							<line class="st6" x1="81" y1="789.1" x2="78.1" y2="789.1"/>
						</g>
					</g>
					<g>
						<g>
							
								<rect x="67.5" y="782.1" transform="matrix(-1 -4.494106e-11 4.494106e-11 -1 140.7966 1578.2366)" class="st6" width="5.7" height="14"/>
						</g>
						<line class="st6" x1="73.1" y1="789.1" x2="67.5" y2="789.1"/>
						<line class="st6" x1="70.3" y1="796" x2="70.3" y2="782.1"/>
					</g>
				</g>
				<g>
					<g>
						<g>
							
								<rect x="91.7" y="800.2" transform="matrix(-1 -4.494106e-11 4.494106e-11 -1 189.0535 1614.3199)" class="st6" width="5.7" height="14"/>
						</g>
						<line class="st6" x1="97.2" y1="807.2" x2="91.7" y2="807.2"/>
						<line class="st6" x1="94.4" y1="814" x2="94.4" y2="800.2"/>
					</g>
					<g>
						<g>
							<g>
								
									<rect x="81.1" y="800.2" transform="matrix(-1 -4.509960e-11 4.509960e-11 -1 167.9078 1614.3199)" class="st6" width="5.7" height="14"/>
							</g>
							<line class="st6" x1="86.6" y1="807.2" x2="81.1" y2="807.2"/>
							<line class="st6" x1="83.8" y1="814" x2="83.8" y2="800.2"/>
						</g>
						<g>
							<g>
								
									<rect x="78.1" y="800.2" transform="matrix(-1 -4.512802e-11 4.512802e-11 -1 159.1776 1614.3199)" class="st6" width="3" height="14"/>
							</g>
							<line class="st6" x1="81" y1="807.2" x2="78.1" y2="807.2"/>
						</g>
					</g>
					<g>
						<g>
							
								<rect x="67.5" y="800.2" transform="matrix(-1 -4.478297e-11 4.478297e-11 -1 140.7966 1614.3199)" class="st6" width="5.7" height="14"/>
						</g>
						<line class="st6" x1="73.1" y1="807.2" x2="67.5" y2="807.2"/>
						<line class="st6" x1="70.3" y1="814" x2="70.3" y2="800.2"/>
					</g>
				</g>
				<g>
					<g>
						<g>
							
								<rect x="91.7" y="818.2" transform="matrix(-1 -4.509960e-11 4.509960e-11 -1 189.0535 1650.4033)" class="st6" width="5.7" height="14"/>
						</g>
						<line class="st6" x1="97.2" y1="825.2" x2="91.7" y2="825.2"/>
						<line class="st6" x1="94.4" y1="832.1" x2="94.4" y2="818.2"/>
					</g>
					<g>
						<g>
							<g>
								
									<rect x="81.1" y="818.2" transform="matrix(-1 -4.462487e-11 4.462487e-11 -1 167.9078 1650.4033)" class="st6" width="5.7" height="14"/>
							</g>
							<line class="st6" x1="86.6" y1="825.2" x2="81.1" y2="825.2"/>
							<line class="st6" x1="83.8" y1="832.1" x2="83.8" y2="818.2"/>
						</g>
						<g>
							<g>
								
									<rect x="78.1" y="818.2" transform="matrix(-1 -4.482338e-11 4.482338e-11 -1 159.1776 1650.4033)" class="st6" width="3" height="14"/>
							</g>
							<line class="st6" x1="81" y1="825.2" x2="78.1" y2="825.2"/>
						</g>
					</g>
					<g>
						<g>
							
								<rect x="67.5" y="818.2" transform="matrix(-1 -4.478297e-11 4.478297e-11 -1 140.7966 1650.4033)" class="st6" width="5.7" height="14"/>
						</g>
						<line class="st6" x1="73.1" y1="825.2" x2="67.5" y2="825.2"/>
						<line class="st6" x1="70.3" y1="832.1" x2="70.3" y2="818.2"/>
					</g>
				</g>
				
					<rect x="78.5" y="748" transform="matrix(-1 -4.489088e-11 4.489088e-11 -1 164.9251 1506.0698)" class="st6" width="7.9" height="10"/>
			</g>
			<path d="M86,839.4"/>
		</g>
	</g>
	<path class="st2" d="M247,802c-4.9-0.2-9.8-0.2-14.7,0l-90.9,3.9v33.5h27.8l0,0c0-9.1,6.8-16.6,15.6-17.6h0c0,0,0,0,0,0
		c0.7-0.1,1.4-0.1,2.1-0.1c0,0,0,0,0,0c0,0,0,0,0,0l0,0c6,0,11.3,3,14.5,7.6c0.1,0.1,0.1,0.2,0.2,0.3c0,0,0,0,0,0
		c0.4,0.6,0.8,1.3,1.1,2c0.1,0.2,0.2,0.3,0.2,0.5c0.6,1.4,1.1,2.9,1.4,4.4c0,0.2,0.1,0.4,0.1,0.6c0.1,0.8,0.2,1.6,0.2,2.4h7.2
		c0-14.2,10.7-25.9,24.4-27.6v0c0,0,0,0,0,0c0.4,0,0.8-0.1,1.1-0.1c0.7-0.1,1.5-0.1,2.2-0.1c0,0,0,0,0,0l0,0
		c7.6,0,14.5,3.1,19.6,8.1c0,0,0.1,0.1,0.1,0.1v0c1.2,1.2,2.2,2.4,3.1,3.8c0.1,0.1,0.2,0.2,0.2,0.3c0.4,0.7,0.9,1.4,1.3,2.1
		c0.1,0.2,0.2,0.4,0.3,0.6c0.3,0.5,0.5,1.1,0.8,1.6c0.1,0.2,0.2,0.4,0.3,0.7c0.3,0.7,0.6,1.5,0.8,2.3c0,0,0,0,0,0.1
		c0.2,0.8,0.4,1.6,0.6,2.4c0.1,0.2,0.1,0.5,0.1,0.8c0.1,0.6,0.2,1.2,0.3,1.8c0,0.3,0.1,0.5,0.1,0.8c0.1,0.8,0.1,1.7,0.1,2.5
		c0,0,0,0,0,0.1h7.2c0-9.1,6.8-16.6,15.6-17.6l0,0l0,0c0.7-0.1,1.4-0.1,2.1-0.1c0,0,0,0,0,0l0,0l0,0c6,0,11.3,3,14.5,7.6
		c0.1,0.1,0.1,0.2,0.2,0.3c0,0,0,0,0,0c0.4,0.6,0.8,1.3,1.1,2c0.1,0.2,0.2,0.3,0.2,0.5c0.6,1.4,1.1,2.9,1.4,4.4
		c0,0.2,0.1,0.4,0.1,0.6c0.1,0.8,0.2,1.6,0.2,2.4l0,0H338v-33.5L247,802z"/>
</g>
<g>
	<rect x="0" y="838.7" class="st2" width="479.3" height="198.6"/>
	<g>
		<g>
			<g>
				<path class="st0" d="M518,997.5c22,0,39.8-17.8,39.8-39.8l-79.5,0C478.2,979.7,496,997.5,518,997.5z"/>
				<path class="st0" d="M438.5,997.5c22,0,39.8-17.8,39.8-39.8l-79.5,0C398.7,979.7,416.5,997.5,438.5,997.5z"/>
				<path class="st0" d="M358.9,997.5c22,0,39.8-17.8,39.8-39.8l-79.5,0C319.2,979.7,337,997.5,358.9,997.5z"/>
				<path class="st0" d="M279.4,997.5c22,0,39.8-17.8,39.8-39.8l-79.5,0C239.6,979.7,257.4,997.5,279.4,997.5z"/>
				<path class="st0" d="M597.5,997.5c22,0,39.8-17.8,39.8-39.8l-79.5,0C557.8,979.7,575.6,997.5,597.5,997.5z"/>
			</g>
			<g>
				<path class="st0" d="M518,1037.2c22,0,39.8-17.8,39.8-39.8l-79.5,0C478.2,1019.4,496,1037.2,518,1037.2z"/>
				<path class="st0" d="M438.5,1037.2c22,0,39.8-17.8,39.8-39.8l-79.5,0C398.7,1019.4,416.5,1037.2,438.5,1037.2z"/>
				<path class="st0" d="M358.9,1037.2c22,0,39.8-17.8,39.8-39.8l-79.5,0C319.2,1019.4,337,1037.2,358.9,1037.2z"/>
				<path class="st0" d="M279.4,1037.2c22,0,39.8-17.8,39.8-39.8l-79.5,0C239.6,1019.4,257.4,1037.2,279.4,1037.2z"/>
				<path class="st0" d="M597.5,1037.2c22,0,39.8-17.8,39.8-39.8l-79.5,0C557.8,1019.4,575.6,1037.2,597.5,1037.2z"/>
			</g>
			<g>
				<path class="st0" d="M518,878.2c22,0,39.8-17.8,39.8-39.8l-79.5,0C478.2,860.4,496,878.2,518,878.2z"/>
				<path class="st0" d="M438.5,878.2c22,0,39.8-17.8,39.8-39.8l-79.5,0C398.7,860.4,416.5,878.2,438.5,878.2z"/>
				<path class="st0" d="M358.9,878.2c22,0,39.8-17.8,39.8-39.8l-79.5,0C319.2,860.4,337,878.2,358.9,878.2z"/>
				<path class="st0" d="M279.4,878.2c22,0,39.8-17.8,39.8-39.8l-79.5,0C239.6,860.4,257.4,878.2,279.4,878.2z"/>
				<path class="st0" d="M597.5,878.2c22,0,39.8-17.8,39.8-39.8l-79.5,0C557.8,860.4,575.6,878.2,597.5,878.2z"/>
			</g>
			<g>
				<path class="st0" d="M518,917.9c22,0,39.8-17.8,39.8-39.8l-79.5,0C478.2,900.1,496,917.9,518,917.9z"/>
				<path class="st0" d="M438.5,917.9c22,0,39.8-17.8,39.8-39.8l-79.5,0C398.7,900.1,416.5,917.9,438.5,917.9z"/>
				<path class="st0" d="M358.9,917.9c22,0,39.8-17.8,39.8-39.8l-79.5,0C319.2,900.1,337,917.9,358.9,917.9z"/>
				<path class="st0" d="M279.4,917.9c22,0,39.8-17.8,39.8-39.8l-79.5,0C239.6,900.1,257.4,917.9,279.4,917.9z"/>
				<path class="st0" d="M597.5,917.9c22,0,39.8-17.8,39.8-39.8l-79.5,0C557.8,900.1,575.6,917.9,597.5,917.9z"/>
			</g>
			<g>
				<path class="st0" d="M518,957.7c22,0,39.8-17.8,39.8-39.8l-79.5,0C478.2,939.9,496,957.7,518,957.7z"/>
				<path class="st0" d="M438.5,957.7c22,0,39.8-17.8,39.8-39.8l-79.5,0C398.7,939.9,416.5,957.7,438.5,957.7z"/>
				<path class="st0" d="M358.9,957.7c22,0,39.8-17.8,39.8-39.8l-79.5,0C319.2,939.9,337,957.7,358.9,957.7z"/>
				<path class="st0" d="M279.4,957.7c22,0,39.8-17.8,39.8-39.8l-79.5,0C239.6,939.9,257.4,957.7,279.4,957.7z"/>
				<path class="st0" d="M597.5,957.7c22,0,39.8-17.8,39.8-39.8l-79.5,0C557.8,939.9,575.6,957.7,597.5,957.7z"/>
			</g>
		</g>
		<g>
			<g>
				<path class="st0" d="M120.3,997.5c22,0,39.8-17.8,39.8-39.8l-79.5,0C80.6,979.7,98.4,997.5,120.3,997.5z"/>
				<path class="st0" d="M40.8,997.5c22,0,39.8-17.8,39.8-39.8l-79.5,0C1,979.7,18.8,997.5,40.8,997.5z"/>
				<path class="st0" d="M-38.7,997.5c22,0,39.8-17.8,39.8-39.8l-79.5,0C-78.5,979.7-60.7,997.5-38.7,997.5z"/>
				<path class="st0" d="M-118.3,997.5c22,0,39.8-17.8,39.8-39.8l-79.5,0C-158,979.7-140.2,997.5-118.3,997.5z"/>
				<path class="st0" d="M199.9,997.5c22,0,39.8-17.8,39.8-39.8l-79.5,0C160.1,979.7,177.9,997.5,199.9,997.5z"/>
			</g>
			<g>
				<path class="st0" d="M120.3,1037.2c22,0,39.8-17.8,39.8-39.8l-79.5,0C80.6,1019.4,98.4,1037.2,120.3,1037.2z"/>
				<path class="st0" d="M40.8,1037.2c22,0,39.8-17.8,39.8-39.8l-79.5,0C1,1019.4,18.8,1037.2,40.8,1037.2z"/>
				<path class="st0" d="M-38.7,1037.2c22,0,39.8-17.8,39.8-39.8l-79.5,0C-78.5,1019.4-60.7,1037.2-38.7,1037.2z"/>
				<path class="st0" d="M-118.3,1037.2c22,0,39.8-17.8,39.8-39.8l-79.5,0C-158,1019.4-140.2,1037.2-118.3,1037.2z"/>
				<path class="st0" d="M199.9,1037.2c22,0,39.8-17.8,39.8-39.8l-79.5,0C160.1,1019.4,177.9,1037.2,199.9,1037.2z"/>
			</g>
			<g>
				<path class="st0" d="M120.3,878.2c22,0,39.8-17.8,39.8-39.8l-79.5,0C80.6,860.4,98.4,878.2,120.3,878.2z"/>
				<path class="st0" d="M40.8,878.2c22,0,39.8-17.8,39.8-39.8l-79.5,0C1,860.4,18.8,878.2,40.8,878.2z"/>
				<path class="st0" d="M-38.7,878.2c22,0,39.8-17.8,39.8-39.8l-79.5,0C-78.5,860.4-60.7,878.2-38.7,878.2z"/>
				<path class="st0" d="M-118.3,878.2c22,0,39.8-17.8,39.8-39.8l-79.5,0C-158,860.4-140.2,878.2-118.3,878.2z"/>
				<path class="st0" d="M199.9,878.2c22,0,39.8-17.8,39.8-39.8l-79.5,0C160.1,860.4,177.9,878.2,199.9,878.2z"/>
			</g>
			<g>
				<path class="st0" d="M120.3,917.9c22,0,39.8-17.8,39.8-39.8l-79.5,0C80.6,900.1,98.4,917.9,120.3,917.9z"/>
				<path class="st0" d="M40.8,917.9c22,0,39.8-17.8,39.8-39.8l-79.5,0C1,900.1,18.8,917.9,40.8,917.9z"/>
				<path class="st0" d="M-38.7,917.9c22,0,39.8-17.8,39.8-39.8l-79.5,0C-78.5,900.1-60.7,917.9-38.7,917.9z"/>
				<path class="st0" d="M-118.3,917.9c22,0,39.8-17.8,39.8-39.8l-79.5,0C-158,900.1-140.2,917.9-118.3,917.9z"/>
				<path class="st0" d="M199.9,917.9c22,0,39.8-17.8,39.8-39.8l-79.5,0C160.1,900.1,177.9,917.9,199.9,917.9z"/>
			</g>
			<g>
				<path class="st0" d="M120.3,957.7c22,0,39.8-17.8,39.8-39.8l-79.5,0C80.6,939.9,98.4,957.7,120.3,957.7z"/>
				<path class="st0" d="M40.8,957.7c22,0,39.8-17.8,39.8-39.8l-79.5,0C1,939.9,18.8,957.7,40.8,957.7z"/>
				<path class="st0" d="M-38.7,957.7c22,0,39.8-17.8,39.8-39.8l-79.5,0C-78.5,939.9-60.7,957.7-38.7,957.7z"/>
				<path class="st0" d="M-118.3,957.7c22,0,39.8-17.8,39.8-39.8l-79.5,0C-158,939.9-140.2,957.7-118.3,957.7z"/>
				<path class="st0" d="M199.9,957.7c22,0,39.8-17.8,39.8-39.8l-79.5,0C160.1,939.9,177.9,957.7,199.9,957.7z"/>
			</g>
		</g>
	</g>
</g>
<g>
</g>
<g>
</g>
<g>
</g>
<g>
</g>
<g>
</g>
<g>
</g>
<g>
</g>
<g>
</g>
<g>
</g>
<g>
</g>
<g>
</g>
<g>
</g>
<g>
</g>
<g>
</g>
<g>
</g>
</svg>
