<?xml version="1.0" encoding="utf-8"?>
<!-- Generator: Adobe Illustrator 26.0.0, SVG Export Plug-In . SVG Version: 6.00 Build 0)  -->
<svg version="1.1" id="Layer_1" xmlns="http://www.w3.org/2000/svg" xmlns:xlink="http://www.w3.org/1999/xlink" x="0px" y="0px"
	 viewBox="0 0 479.3 1037.2" style="enable-background:new 0 0 479.3 1037.2;" xml:space="preserve">
<style type="text/css">
	.st0{fill:#A6C7FF;}
	.st1{fill:#1B006B;}
	.st2{fill:#FFFFFF;}
	.st3{fill:#0049EC;}
	.st4{fill:none;stroke:#FFFFFF;stroke-width:2;stroke-linecap:round;stroke-linejoin:round;stroke-miterlimit:10;}
	.st5{fill:#100077;stroke:#0049EC;stroke-width:2;stroke-linecap:round;stroke-linejoin:round;stroke-miterlimit:10;}
	.st6{fill:#100077;stroke:#0049EC;stroke-linecap:round;stroke-linejoin:round;stroke-miterlimit:10;}
	.st7{fill:#FFFFFF;stroke:#0049EC;stroke-linecap:round;stroke-linejoin:round;stroke-miterlimit:10;}
	.st8{fill:#130061;stroke:#0049EC;stroke-linecap:round;stroke-linejoin:round;stroke-miterlimit:10;}
	.st9{fill:#DFEBFF;}
	.st10{fill:#000FB9;}
	.st11{fill:#22006E;}
	.st12{fill:#FFFFFF;stroke:#0049EC;stroke-width:3;stroke-linejoin:round;stroke-miterlimit:10;}
	.st13{fill:none;stroke:#0049EC;stroke-width:2;stroke-linejoin:round;stroke-miterlimit:10;}
</style>
<rect class="st0" width="479.3" height="1037.2"/>
<rect x="135.9" y="386.4" class="st0" width="213.5" height="135.9"/>
<path class="st1" d="M172.6,386.4c-20.3,0-36.7,16.4-36.7,36.7v53.1h103.7v41.3h34.5c43.6-13.5,75.3-54.2,75.3-102.3v0
	c0-15.9-12.9-28.9-28.9-28.9H172.6z"/>
<path class="st2" d="M340,452.1c0-0.1,0-0.3-0.1-0.4c-0.2-1.1-0.5-2.2-1-3.2c-0.1-0.1-0.1-0.2-0.2-0.4c-0.2-0.5-0.5-1-0.8-1.4
	c0,0,0,0,0,0c0-0.1-0.1-0.1-0.1-0.2c-2.3-3.3-6.1-5.4-10.4-5.4c0,0,0,0,0,0c-0.5,0-1,0-1.5,0.1c-2.2,0.3-4.2,1.1-5.8,2.3
	c-0.2-0.3-0.3-0.5-0.5-0.8c-0.1-0.1-0.1-0.2-0.2-0.2c-0.7-1-1.4-1.9-2.2-2.7c0,0,0,0-0.1-0.1c-3.6-3.5-8.5-5.7-13.9-5.7c0,0,0,0,0,0
	c-0.5,0-1.1,0-1.6,0.1c-0.3,0-0.5,0-0.8,0.1c0,0,0,0,0,0v0c-5.8,0.7-10.8,3.9-13.9,8.5c-1.8-0.9-3.8-1.5-5.9-1.5c0,0,0,0,0,0
	c0,0,0,0,0,0c-0.5,0-1,0-1.5,0.1c0,0,0,0,0,0c-6.3,0.8-11.1,6.1-11.1,12.6h15.1h10.2h21.2h8.2h17.2
	C340.1,453.2,340.1,452.6,340,452.1z"/>
<path class="st2" d="M226.7,430.3c0-0.1,0-0.2-0.1-0.4c-0.2-1-0.5-2-0.9-2.9c-0.1-0.1-0.1-0.2-0.2-0.3c-0.2-0.4-0.5-0.9-0.7-1.3
	c0,0,0,0,0,0c0-0.1-0.1-0.1-0.1-0.2c-2.1-2.9-5.5-4.9-9.4-4.9c0,0,0,0,0,0c-0.5,0-0.9,0-1.4,0.1c-2,0.2-3.8,1-5.3,2.1
	c-0.1-0.2-0.3-0.5-0.4-0.7c0-0.1-0.1-0.1-0.2-0.2c-0.6-0.9-1.3-1.7-2-2.4c0,0,0,0-0.1-0.1c-3.2-3.2-7.7-5.2-12.6-5.2c0,0,0,0,0,0
	c-0.5,0-1,0-1.4,0.1c-0.2,0-0.5,0-0.7,0.1c0,0,0,0,0,0v0c-5.2,0.6-9.8,3.5-12.6,7.7c-1.6-0.9-3.4-1.3-5.4-1.3c0,0,0,0,0,0
	c0,0,0,0,0,0c-0.5,0-0.9,0-1.4,0.1c0,0,0,0,0,0c-5.7,0.7-10.1,5.5-10.1,11.4h13.7h9.2h19.2h7.4h15.5
	C226.8,431.4,226.8,430.8,226.7,430.3z"/>
<polygon class="st3" points="269.9,510.5 269.9,499.2 258.6,499.2 258.6,487.9 247.3,487.9 247.3,476.2 179.4,476.2 179.4,487.9 
	190.7,487.9 190.7,499.2 202,499.2 202,510.5 213.5,510.5 213.5,658.1 281.2,658.1 281.2,510.5 "/>
<rect x="0" y="-1137.2" class="st0" width="479.3" height="1037.2"/>
<g>
	<rect x="-716.2" y="-581.4" class="st2" width="479.3" height="255.5"/>
	<g>
		<g>
			<path class="st0" d="M-381.1-391c26.4,0,47.9-21.4,47.9-47.9h-95.8C-428.9-412.4-407.5-391-381.1-391z"/>
			<path class="st0" d="M-476.8-391c26.4,0,47.9-21.4,47.9-47.9h-95.8C-524.7-412.4-503.3-391-476.8-391z"/>
			<path class="st0" d="M-572.6-391c26.4,0,47.9-21.4,47.9-47.9h-95.8C-620.4-412.4-599-391-572.6-391z"/>
			<path class="st0" d="M-668.3-391c26.4,0,47.9-21.4,47.9-47.9h-95.8C-716.2-412.4-694.8-391-668.3-391z"/>
			<path class="st0" d="M-285.3-391c26.4,0,47.9-21.4,47.9-47.9h-95.8C-333.2-412.4-311.7-391-285.3-391z"/>
		</g>
		<g>
			<path class="st0" d="M-381.1-343.1c26.4,0,47.9-21.4,47.9-47.9h-95.8C-428.9-364.5-407.5-343.1-381.1-343.1z"/>
			<path class="st0" d="M-476.8-343.1c26.4,0,47.9-21.4,47.9-47.9h-95.8C-524.7-364.5-503.3-343.1-476.8-343.1z"/>
			<path class="st0" d="M-572.6-343.1c26.4,0,47.9-21.4,47.9-47.9h-95.8C-620.4-364.5-599-343.1-572.6-343.1z"/>
			<path class="st0" d="M-668.3-343.1c26.4,0,47.9-21.4,47.9-47.9h-95.8C-716.2-364.5-694.8-343.1-668.3-343.1z"/>
			<path class="st0" d="M-285.3-343.1c26.4,0,47.9-21.4,47.9-47.9h-95.8C-333.2-364.5-311.7-343.1-285.3-343.1z"/>
		</g>
		<g>
			<path class="st0" d="M-381.1-534.6c26.4,0,47.9-21.4,47.9-47.9h-95.8C-428.9-556-407.5-534.6-381.1-534.6z"/>
			<path class="st0" d="M-476.8-534.6c26.4,0,47.9-21.4,47.9-47.9h-95.8C-524.7-556-503.3-534.6-476.8-534.6z"/>
			<path class="st0" d="M-572.6-534.6c26.4,0,47.9-21.4,47.9-47.9h-95.8C-620.4-556-599-534.6-572.6-534.6z"/>
			<path class="st0" d="M-668.3-534.6c26.4,0,47.9-21.4,47.9-47.9h-95.8C-716.2-556-694.8-534.6-668.3-534.6z"/>
			<path class="st0" d="M-285.3-534.6c26.4,0,47.9-21.4,47.9-47.9h-95.8C-333.2-556-311.7-534.6-285.3-534.6z"/>
		</g>
		<g>
			<path class="st0" d="M-381.1-486.7c26.4,0,47.9-21.4,47.9-47.9h-95.8C-428.9-508.2-407.5-486.7-381.1-486.7z"/>
			<path class="st0" d="M-476.8-486.7c26.4,0,47.9-21.4,47.9-47.9h-95.8C-524.7-508.2-503.3-486.7-476.8-486.7z"/>
			<path class="st0" d="M-572.6-486.7c26.4,0,47.9-21.4,47.9-47.9h-95.8C-620.4-508.2-599-486.7-572.6-486.7z"/>
			<path class="st0" d="M-668.3-486.7c26.4,0,47.9-21.4,47.9-47.9h-95.8C-716.2-508.2-694.8-486.7-668.3-486.7z"/>
			<path class="st0" d="M-285.3-486.7c26.4,0,47.9-21.4,47.9-47.9h-95.8C-333.2-508.2-311.7-486.7-285.3-486.7z"/>
		</g>
		<g>
			<path class="st0" d="M-381.1-438.8c26.4,0,47.9-21.4,47.9-47.9h-95.8C-428.9-460.3-407.5-438.8-381.1-438.8z"/>
			<path class="st0" d="M-476.8-438.8c26.4,0,47.9-21.4,47.9-47.9h-95.8C-524.7-460.3-503.3-438.8-476.8-438.8z"/>
			<path class="st0" d="M-572.6-438.8c26.4,0,47.9-21.4,47.9-47.9h-95.8C-620.4-460.3-599-438.8-572.6-438.8z"/>
			<path class="st0" d="M-668.3-438.8c26.4,0,47.9-21.4,47.9-47.9h-95.8C-716.2-460.3-694.8-438.8-668.3-438.8z"/>
			<path class="st0" d="M-285.3-438.8c26.4,0,47.9-21.4,47.9-47.9h-95.8C-333.2-460.3-311.7-438.8-285.3-438.8z"/>
		</g>
	</g>
</g>
<g>
	
		<rect x="0" y="-1137.2" transform="matrix(-1 -5.469093e-07 5.469093e-07 -1 479.2876 -2075.9165)" class="st2" width="479.3" height="198.5"/>
	<g>
		<g>
			<g>
				<path class="st0" d="M-38.7-1097.5c-22,0-39.8,17.8-39.8,39.8H1C1-1079.7-16.8-1097.5-38.7-1097.5z"/>
				<path class="st0" d="M40.8-1097.5c-22,0-39.8,17.8-39.8,39.8h79.5C80.6-1079.7,62.8-1097.5,40.8-1097.5z"/>
				<path class="st0" d="M120.3-1097.5c-22,0-39.8,17.8-39.8,39.8h79.5C160.1-1079.7,142.3-1097.5,120.3-1097.5z"/>
				<path class="st0" d="M199.9-1097.5c-22,0-39.8,17.8-39.8,39.8l79.5,0C239.6-1079.7,221.8-1097.5,199.9-1097.5z"/>
				<path class="st0" d="M-118.3-1097.5c-22,0-39.8,17.8-39.8,39.8l79.5,0C-78.5-1079.7-96.3-1097.5-118.3-1097.5z"/>
			</g>
			<g>
				<path class="st0" d="M-38.7-1137.2c-22,0-39.8,17.8-39.8,39.8H1C1-1119.4-16.8-1137.2-38.7-1137.2z"/>
				<path class="st0" d="M40.8-1137.2c-22,0-39.8,17.8-39.8,39.8h79.5C80.6-1119.4,62.8-1137.2,40.8-1137.2z"/>
				<path class="st0" d="M120.3-1137.2c-22,0-39.8,17.8-39.8,39.8h79.5C160.1-1119.4,142.3-1137.2,120.3-1137.2z"/>
				<path class="st0" d="M199.9-1137.2c-22,0-39.8,17.8-39.8,39.8l79.5,0C239.6-1119.4,221.8-1137.2,199.9-1137.2z"/>
				<path class="st0" d="M-118.3-1137.2c-22,0-39.8,17.8-39.8,39.8l79.5,0C-78.5-1119.4-96.3-1137.2-118.3-1137.2z"/>
			</g>
			<g>
				<path class="st0" d="M-38.7-978.2c-22,0-39.8,17.8-39.8,39.8H1C1-960.4-16.8-978.2-38.7-978.2z"/>
				<path class="st0" d="M40.8-978.2c-22,0-39.8,17.8-39.8,39.8l79.5,0C80.6-960.4,62.8-978.2,40.8-978.2z"/>
				<path class="st0" d="M120.3-978.2c-22,0-39.8,17.8-39.8,39.8h79.5C160.1-960.4,142.3-978.2,120.3-978.2z"/>
				<path class="st0" d="M199.9-978.2c-22,0-39.8,17.8-39.8,39.8l79.5,0C239.6-960.4,221.8-978.2,199.9-978.2z"/>
				<path class="st0" d="M-118.3-978.2c-22,0-39.8,17.8-39.8,39.8l79.5,0C-78.5-960.4-96.3-978.2-118.3-978.2z"/>
			</g>
			<g>
				<path class="st0" d="M-38.7-1017.9c-22,0-39.8,17.8-39.8,39.8H1C1-1000.1-16.8-1017.9-38.7-1017.9z"/>
				<path class="st0" d="M40.8-1017.9c-22,0-39.8,17.8-39.8,39.8l79.5,0C80.6-1000.1,62.8-1017.9,40.8-1017.9z"/>
				<path class="st0" d="M120.3-1017.9c-22,0-39.8,17.8-39.8,39.8h79.5C160.1-1000.1,142.3-1017.9,120.3-1017.9z"/>
				<path class="st0" d="M199.9-1017.9c-22,0-39.8,17.8-39.8,39.8l79.5,0C239.6-1000.1,221.8-1017.9,199.9-1017.9z"/>
				<path class="st0" d="M-118.3-1017.9c-22,0-39.8,17.8-39.8,39.8l79.5,0C-78.5-1000.1-96.3-1017.9-118.3-1017.9z"/>
			</g>
			<g>
				<path class="st0" d="M-38.7-1057.7c-22,0-39.8,17.8-39.8,39.8l79.5,0C1-1039.9-16.8-1057.7-38.7-1057.7z"/>
				<path class="st0" d="M40.8-1057.7c-22,0-39.8,17.8-39.8,39.8h79.5C80.6-1039.9,62.8-1057.7,40.8-1057.7z"/>
				<path class="st0" d="M120.3-1057.7c-22,0-39.8,17.8-39.8,39.8l79.5,0C160.1-1039.9,142.3-1057.7,120.3-1057.7z"/>
				<path class="st0" d="M199.9-1057.7c-22,0-39.8,17.8-39.8,39.8l79.5,0C239.6-1039.9,221.8-1057.7,199.9-1057.7z"/>
				<path class="st0" d="M-118.3-1057.7c-22,0-39.8,17.8-39.8,39.8h79.5C-78.5-1039.9-96.3-1057.7-118.3-1057.7z"/>
			</g>
		</g>
		<g>
			<g>
				<path class="st0" d="M358.9-1097.5c-22,0-39.8,17.8-39.8,39.8h79.5C398.7-1079.7,380.9-1097.5,358.9-1097.5z"/>
				<path class="st0" d="M438.5-1097.5c-22,0-39.8,17.8-39.8,39.8h79.5C478.2-1079.7,460.4-1097.5,438.5-1097.5z"/>
				<path class="st0" d="M518-1097.5c-22,0-39.8,17.8-39.8,39.8h79.5C557.8-1079.7,540-1097.5,518-1097.5z"/>
				<path class="st0" d="M597.5-1097.5c-22,0-39.8,17.8-39.8,39.8l79.5,0C637.3-1079.7,619.5-1097.5,597.5-1097.5z"/>
				<path class="st0" d="M279.4-1097.5c-22,0-39.8,17.8-39.8,39.8l79.5,0C319.2-1079.7,301.4-1097.5,279.4-1097.5z"/>
			</g>
			<g>
				<path class="st0" d="M358.9-1137.2c-22,0-39.8,17.8-39.8,39.8h79.5C398.7-1119.4,380.9-1137.2,358.9-1137.2z"/>
				<path class="st0" d="M438.5-1137.2c-22,0-39.8,17.8-39.8,39.8h79.5C478.2-1119.4,460.4-1137.2,438.5-1137.2z"/>
				<path class="st0" d="M518-1137.2c-22,0-39.8,17.8-39.8,39.8h79.5C557.8-1119.4,540-1137.2,518-1137.2z"/>
				<path class="st0" d="M597.5-1137.2c-22,0-39.8,17.8-39.8,39.8l79.5,0C637.3-1119.4,619.5-1137.2,597.5-1137.2z"/>
				<path class="st0" d="M279.4-1137.2c-22,0-39.8,17.8-39.8,39.8l79.5,0C319.2-1119.4,301.4-1137.2,279.4-1137.2z"/>
			</g>
			<g>
				<path class="st0" d="M358.9-978.2c-22,0-39.8,17.8-39.8,39.8h79.5C398.7-960.4,380.9-978.2,358.9-978.2z"/>
				<path class="st0" d="M438.5-978.2c-22,0-39.8,17.8-39.8,39.8l79.5,0C478.2-960.4,460.4-978.2,438.5-978.2z"/>
				<path class="st0" d="M518-978.2c-22,0-39.8,17.8-39.8,39.8h79.5C557.8-960.4,540-978.2,518-978.2z"/>
				<path class="st0" d="M597.5-978.2c-22,0-39.8,17.8-39.8,39.8l79.5,0C637.3-960.4,619.5-978.2,597.5-978.2z"/>
				<path class="st0" d="M279.4-978.2c-22,0-39.8,17.8-39.8,39.8l79.5,0C319.2-960.4,301.4-978.2,279.4-978.2z"/>
			</g>
			<g>
				<path class="st0" d="M358.9-1017.9c-22,0-39.8,17.8-39.8,39.8h79.5C398.7-1000.1,380.9-1017.9,358.9-1017.9z"/>
				<path class="st0" d="M438.5-1017.9c-22,0-39.8,17.8-39.8,39.8l79.5,0C478.2-1000.1,460.4-1017.9,438.5-1017.9z"/>
				<path class="st0" d="M518-1017.9c-22,0-39.8,17.8-39.8,39.8h79.5C557.8-1000.1,540-1017.9,518-1017.9z"/>
				<path class="st0" d="M597.5-1017.9c-22,0-39.8,17.8-39.8,39.8l79.5,0C637.3-1000.1,619.5-1017.9,597.5-1017.9z"/>
				<path class="st0" d="M279.4-1017.9c-22,0-39.8,17.8-39.8,39.8l79.5,0C319.2-1000.1,301.4-1017.9,279.4-1017.9z"/>
			</g>
			<g>
				<path class="st0" d="M358.9-1057.7c-22,0-39.8,17.8-39.8,39.8l79.5,0C398.7-1039.9,380.9-1057.7,358.9-1057.7z"/>
				<path class="st0" d="M438.5-1057.7c-22,0-39.8,17.8-39.8,39.8h79.5C478.2-1039.9,460.4-1057.7,438.5-1057.7z"/>
				<path class="st0" d="M518-1057.7c-22,0-39.8,17.8-39.8,39.8l79.5,0C557.8-1039.9,540-1057.7,518-1057.7z"/>
				<path class="st0" d="M597.5-1057.7c-22,0-39.8,17.8-39.8,39.8l79.5,0C637.3-1039.9,619.5-1057.7,597.5-1057.7z"/>
				<path class="st0" d="M279.4-1057.7c-22,0-39.8,17.8-39.8,39.8h79.5C319.2-1039.9,301.4-1057.7,279.4-1057.7z"/>
			</g>
		</g>
	</g>
</g>
<g>
	<rect x="0" y="-298.6" class="st2" width="479.3" height="198.6"/>
	<g>
		<g>
			<g>
				<path class="st0" d="M518-139.8c22,0,39.8-17.8,39.8-39.8l-79.5,0C478.2-157.6,496-139.8,518-139.8z"/>
				<path class="st0" d="M438.5-139.8c22,0,39.8-17.8,39.8-39.8l-79.5,0C398.7-157.6,416.5-139.8,438.5-139.8z"/>
				<path class="st0" d="M358.9-139.8c22,0,39.8-17.8,39.8-39.8l-79.5,0C319.2-157.6,337-139.8,358.9-139.8z"/>
				<path class="st0" d="M279.4-139.8c22,0,39.8-17.8,39.8-39.8l-79.5,0C239.6-157.6,257.4-139.8,279.4-139.8z"/>
				<path class="st0" d="M597.5-139.8c22,0,39.8-17.8,39.8-39.8l-79.5,0C557.8-157.6,575.6-139.8,597.5-139.8z"/>
			</g>
			<g>
				<path class="st0" d="M518-100c22,0,39.8-17.8,39.8-39.8l-79.5,0C478.2-117.8,496-100,518-100z"/>
				<path class="st0" d="M438.5-100c22,0,39.8-17.8,39.8-39.8l-79.5,0C398.7-117.8,416.5-100,438.5-100z"/>
				<path class="st0" d="M358.9-100c22,0,39.8-17.8,39.8-39.8l-79.5,0C319.2-117.8,337-100,358.9-100z"/>
				<path class="st0" d="M279.4-100c22,0,39.8-17.8,39.8-39.8l-79.5,0C239.6-117.8,257.4-100,279.4-100z"/>
				<path class="st0" d="M597.5-100c22,0,39.8-17.8,39.8-39.8l-79.5,0C557.8-117.8,575.6-100,597.5-100z"/>
			</g>
			<g>
				<path class="st0" d="M518-259.1c22,0,39.8-17.8,39.8-39.8l-79.5,0C478.2-276.9,496-259.1,518-259.1z"/>
				<path class="st0" d="M438.5-259.1c22,0,39.8-17.8,39.8-39.8l-79.5,0C398.7-276.9,416.5-259.1,438.5-259.1z"/>
				<path class="st0" d="M358.9-259.1c22,0,39.8-17.8,39.8-39.8l-79.5,0C319.2-276.9,337-259.1,358.9-259.1z"/>
				<path class="st0" d="M279.4-259.1c22,0,39.8-17.8,39.8-39.8l-79.5,0C239.6-276.9,257.4-259.1,279.4-259.1z"/>
				<path class="st0" d="M597.5-259.1c22,0,39.8-17.8,39.8-39.8l-79.5,0C557.8-276.9,575.6-259.1,597.5-259.1z"/>
			</g>
			<g>
				<path class="st0" d="M518-219.3c22,0,39.8-17.8,39.8-39.8l-79.5,0C478.2-237.1,496-219.3,518-219.3z"/>
				<path class="st0" d="M438.5-219.3c22,0,39.8-17.8,39.8-39.8l-79.5,0C398.7-237.1,416.5-219.3,438.5-219.3z"/>
				<path class="st0" d="M358.9-219.3c22,0,39.8-17.8,39.8-39.8l-79.5,0C319.2-237.1,337-219.3,358.9-219.3z"/>
				<path class="st0" d="M279.4-219.3c22,0,39.8-17.8,39.8-39.8l-79.5,0C239.6-237.1,257.4-219.3,279.4-219.3z"/>
				<path class="st0" d="M597.5-219.3c22,0,39.8-17.8,39.8-39.8l-79.5,0C557.8-237.1,575.6-219.3,597.5-219.3z"/>
			</g>
			<g>
				<path class="st0" d="M518-179.5c22,0,39.8-17.8,39.8-39.8l-79.5,0C478.2-197.3,496-179.5,518-179.5z"/>
				<path class="st0" d="M438.5-179.5c22,0,39.8-17.8,39.8-39.8l-79.5,0C398.7-197.3,416.5-179.5,438.5-179.5z"/>
				<path class="st0" d="M358.9-179.5c22,0,39.8-17.8,39.8-39.8l-79.5,0C319.2-197.3,337-179.5,358.9-179.5z"/>
				<path class="st0" d="M279.4-179.5c22,0,39.8-17.8,39.8-39.8l-79.5,0C239.6-197.3,257.4-179.5,279.4-179.5z"/>
				<path class="st0" d="M597.5-179.5c22,0,39.8-17.8,39.8-39.8l-79.5,0C557.8-197.3,575.6-179.5,597.5-179.5z"/>
			</g>
		</g>
		<g>
			<g>
				<path class="st0" d="M120.3-139.8c22,0,39.8-17.8,39.8-39.8l-79.5,0C80.6-157.6,98.4-139.8,120.3-139.8z"/>
				<path class="st0" d="M40.8-139.8c22,0,39.8-17.8,39.8-39.8l-79.5,0C1-157.6,18.8-139.8,40.8-139.8z"/>
				<path class="st0" d="M-38.7-139.8c22,0,39.8-17.8,39.8-39.8l-79.5,0C-78.5-157.6-60.7-139.8-38.7-139.8z"/>
				<path class="st0" d="M-118.3-139.8c22,0,39.8-17.8,39.8-39.8l-79.5,0C-158-157.6-140.2-139.8-118.3-139.8z"/>
				<path class="st0" d="M199.9-139.8c22,0,39.8-17.8,39.8-39.8l-79.5,0C160.1-157.6,177.9-139.8,199.9-139.8z"/>
			</g>
			<g>
				<path class="st0" d="M120.3-100c22,0,39.8-17.8,39.8-39.8l-79.5,0C80.6-117.8,98.4-100,120.3-100z"/>
				<path class="st0" d="M40.8-100c22,0,39.8-17.8,39.8-39.8l-79.5,0C1-117.8,18.8-100,40.8-100z"/>
				<path class="st0" d="M-38.7-100c22,0,39.8-17.8,39.8-39.8l-79.5,0C-78.5-117.8-60.7-100-38.7-100z"/>
				<path class="st0" d="M-118.3-100c22,0,39.8-17.8,39.8-39.8l-79.5,0C-158-117.8-140.2-100-118.3-100z"/>
				<path class="st0" d="M199.9-100c22,0,39.8-17.8,39.8-39.8l-79.5,0C160.1-117.8,177.9-100,199.9-100z"/>
			</g>
			<g>
				<path class="st0" d="M120.3-259.1c22,0,39.8-17.8,39.8-39.8l-79.5,0C80.6-276.9,98.4-259.1,120.3-259.1z"/>
				<path class="st0" d="M40.8-259.1c22,0,39.8-17.8,39.8-39.8l-79.5,0C1-276.9,18.8-259.1,40.8-259.1z"/>
				<path class="st0" d="M-38.7-259.1c22,0,39.8-17.8,39.8-39.8l-79.5,0C-78.5-276.9-60.7-259.1-38.7-259.1z"/>
				<path class="st0" d="M-118.3-259.1c22,0,39.8-17.8,39.8-39.8l-79.5,0C-158-276.9-140.2-259.1-118.3-259.1z"/>
				<path class="st0" d="M199.9-259.1c22,0,39.8-17.8,39.8-39.8l-79.5,0C160.1-276.9,177.9-259.1,199.9-259.1z"/>
			</g>
			<g>
				<path class="st0" d="M120.3-219.3c22,0,39.8-17.8,39.8-39.8l-79.5,0C80.6-237.1,98.4-219.3,120.3-219.3z"/>
				<path class="st0" d="M40.8-219.3c22,0,39.8-17.8,39.8-39.8l-79.5,0C1-237.1,18.8-219.3,40.8-219.3z"/>
				<path class="st0" d="M-38.7-219.3c22,0,39.8-17.8,39.8-39.8l-79.5,0C-78.5-237.1-60.7-219.3-38.7-219.3z"/>
				<path class="st0" d="M-118.3-219.3c22,0,39.8-17.8,39.8-39.8l-79.5,0C-158-237.1-140.2-219.3-118.3-219.3z"/>
				<path class="st0" d="M199.9-219.3c22,0,39.8-17.8,39.8-39.8l-79.5,0C160.1-237.1,177.9-219.3,199.9-219.3z"/>
			</g>
			<g>
				<path class="st0" d="M120.3-179.5c22,0,39.8-17.8,39.8-39.8l-79.5,0C80.6-197.3,98.4-179.5,120.3-179.5z"/>
				<path class="st0" d="M40.8-179.5c22,0,39.8-17.8,39.8-39.8l-79.5,0C1-197.3,18.8-179.5,40.8-179.5z"/>
				<path class="st0" d="M-38.7-179.5c22,0,39.8-17.8,39.8-39.8l-79.5,0C-78.5-197.3-60.7-179.5-38.7-179.5z"/>
				<path class="st0" d="M-118.3-179.5c22,0,39.8-17.8,39.8-39.8l-79.5,0C-158-197.3-140.2-179.5-118.3-179.5z"/>
				<path class="st0" d="M199.9-179.5c22,0,39.8-17.8,39.8-39.8l-79.5,0C160.1-197.3,177.9-179.5,199.9-179.5z"/>
			</g>
		</g>
	</g>
</g>
<rect x="106.9" y="658.1" class="st2" width="472.2" height="135.9"/>
<path class="st0" d="M213.7,793.5l0-135.4c-37.4,0-67.7,30.3-67.7,67.7C146,763.2,176.3,793.5,213.7,793.5z"/>
<path class="st3" d="M213.5,658.1v135.4c37.4,0,67.7-30.3,67.7-67.7S250.9,658.1,213.5,658.1z"/>
<path class="st0" d="M78.1,658.1v135.4c37.4,0,67.7-30.3,67.7-67.7S115.5,658.1,78.1,658.1z"/>
<rect x="0" y="522.2" transform="matrix(-1 -1.224647e-16 1.224647e-16 -1 213.5011 1180.3441)" class="st0" width="213.5" height="135.9"/>
<g>
	<path class="st4" d="M197.9,578.5v56.1h-24.8v-56.1c0.4-11.2,5-21.3,12.4-28.6C192.9,557.2,197.6,567.3,197.9,578.5z"/>
	<path class="st4" d="M185.5,549.8c-7.4,7.4-12,17.5-12.4,28.6c-0.4-11.2-5-21.3-12.4-28.6c3.6-3.6,7.8-6.5,12.4-8.7
		C177.8,543.3,181.9,546.2,185.5,549.8z"/>
	<path class="st4" d="M173.1,578.5v56.1h-24.8v-56.1c0.4-11.2,5-21.3,12.4-28.6C168.1,557.2,172.7,567.3,173.1,578.5z"/>
</g>
<g>
	<path class="st4" d="M132.3,578.5v56.1h-24.8v-56.1c0.4-11.2,5-21.3,12.4-28.6C127.3,557.2,132,567.3,132.3,578.5z"/>
	<path class="st4" d="M119.9,549.8c-7.4,7.4-12,17.5-12.4,28.6c-0.4-11.2-5-21.3-12.4-28.6c3.6-3.6,7.8-6.5,12.4-8.7
		C112.2,543.3,116.4,546.2,119.9,549.8z"/>
	<path class="st4" d="M107.5,578.5v56.1H82.7v-56.1c0.4-11.2,5-21.3,12.4-28.6C102.5,557.2,107.1,567.3,107.5,578.5z"/>
</g>
<g>
	<path class="st4" d="M66.7,578.5v56.1H41.9v-56.1c0.4-11.2,5-21.3,12.4-28.6C61.7,557.2,66.4,567.3,66.7,578.5z"/>
	<path class="st4" d="M54.3,549.8c-7.4,7.4-12,17.5-12.4,28.6c-0.4-11.2-5-21.3-12.4-28.6c3.6-3.6,7.8-6.5,12.4-8.7
		C46.6,543.3,50.8,546.2,54.3,549.8z"/>
	<path class="st4" d="M41.9,578.5v56.1H17.1v-56.1c0.4-11.2,5-21.3,12.4-28.6C36.9,557.2,41.5,567.3,41.9,578.5z"/>
</g>
<rect x="0" y="794" class="st2" width="213.5" height="135.9"/>
<rect x="0" y="386.4" class="st0" width="135.9" height="135.9"/>
<rect x="349.4" y="386.4" class="st0" width="213.5" height="135.9"/>
<g>
	<g>
		<g>
			<path class="st2" d="M38.6,416.9c-1.5-1.5-3.9-1.5-5.4,0c-1.5,1.5-1.5,3.9,0,5.4c1.5,1.5,3.9,1.5,5.4,0
				C40.1,420.8,40.1,418.4,38.6,416.9z"/>
			<path class="st2" d="M38.6,434.3c-1.5-1.5-3.9-1.5-5.4,0c-1.5,1.5-1.5,3.9,0,5.4s3.9,1.5,5.4,0C40.1,438.2,40.1,435.8,38.6,434.3
				z"/>
			<path class="st2" d="M38.6,451.6c-1.5-1.5-3.9-1.5-5.4,0c-1.5,1.5-1.5,3.9,0,5.4c1.5,1.5,3.9,1.5,5.4,0
				C40.1,455.5,40.1,453.1,38.6,451.6z"/>
			<path class="st2" d="M38.6,469c-1.5-1.5-3.9-1.5-5.4,0c-1.5,1.5-1.5,3.9,0,5.4s3.9,1.5,5.4,0C40.1,472.9,40.1,470.5,38.6,469z"/>
			<path class="st2" d="M38.6,486.4c-1.5-1.5-3.9-1.5-5.4,0c-1.5,1.5-1.5,3.9,0,5.4c1.5,1.5,3.9,1.5,5.4,0
				C40.1,490.3,40.1,487.9,38.6,486.4z"/>
		</g>
	</g>
	<g>
		<g>
			<path class="st2" d="M60,416.9c-1.5-1.5-3.9-1.5-5.4,0c-1.5,1.5-1.5,3.9,0,5.4c1.5,1.5,3.9,1.5,5.4,0
				C61.5,420.8,61.5,418.4,60,416.9z"/>
			<path class="st2" d="M60,434.3c-1.5-1.5-3.9-1.5-5.4,0c-1.5,1.5-1.5,3.9,0,5.4s3.9,1.5,5.4,0S61.5,435.8,60,434.3z"/>
			<path class="st2" d="M60,451.6c-1.5-1.5-3.9-1.5-5.4,0c-1.5,1.5-1.5,3.9,0,5.4c1.5,1.5,3.9,1.5,5.4,0
				C61.5,455.5,61.5,453.1,60,451.6z"/>
			<path class="st2" d="M60,469c-1.5-1.5-3.9-1.5-5.4,0c-1.5,1.5-1.5,3.9,0,5.4s3.9,1.5,5.4,0S61.5,470.5,60,469z"/>
			<path class="st2" d="M60,486.4c-1.5-1.5-3.9-1.5-5.4,0c-1.5,1.5-1.5,3.9,0,5.4c1.5,1.5,3.9,1.5,5.4,0
				C61.5,490.3,61.5,487.9,60,486.4z"/>
		</g>
	</g>
	<g>
		<g>
			<path class="st2" d="M81.3,416.9c-1.5-1.5-3.9-1.5-5.4,0c-1.5,1.5-1.5,3.9,0,5.4c1.5,1.5,3.9,1.5,5.4,0
				C82.8,420.8,82.8,418.4,81.3,416.9z"/>
			<path class="st2" d="M81.3,434.3c-1.5-1.5-3.9-1.5-5.4,0c-1.5,1.5-1.5,3.9,0,5.4c1.5,1.5,3.9,1.5,5.4,0
				C82.8,438.2,82.8,435.8,81.3,434.3z"/>
			<path class="st2" d="M81.3,451.6c-1.5-1.5-3.9-1.5-5.4,0c-1.5,1.5-1.5,3.9,0,5.4c1.5,1.5,3.9,1.5,5.4,0
				C82.8,455.5,82.8,453.1,81.3,451.6z"/>
			<path class="st2" d="M81.3,469c-1.5-1.5-3.9-1.5-5.4,0c-1.5,1.5-1.5,3.9,0,5.4c1.5,1.5,3.9,1.5,5.4,0
				C82.8,472.9,82.8,470.5,81.3,469z"/>
			<path class="st2" d="M81.3,486.4c-1.5-1.5-3.9-1.5-5.4,0c-1.5,1.5-1.5,3.9,0,5.4c1.5,1.5,3.9,1.5,5.4,0
				C82.8,490.3,82.8,487.9,81.3,486.4z"/>
		</g>
	</g>
	<g>
		<g>
			<path class="st2" d="M102.7,416.9c-1.5-1.5-3.9-1.5-5.4,0c-1.5,1.5-1.5,3.9,0,5.4c1.5,1.5,3.9,1.5,5.4,0
				C104.2,420.8,104.2,418.4,102.7,416.9z"/>
			<path class="st2" d="M102.7,434.3c-1.5-1.5-3.9-1.5-5.4,0c-1.5,1.5-1.5,3.9,0,5.4c1.5,1.5,3.9,1.5,5.4,0S104.2,435.8,102.7,434.3
				z"/>
			<path class="st2" d="M102.7,451.6c-1.5-1.5-3.9-1.5-5.4,0c-1.5,1.5-1.5,3.9,0,5.4c1.5,1.5,3.9,1.5,5.4,0
				C104.2,455.5,104.2,453.1,102.7,451.6z"/>
			<path class="st2" d="M102.7,469c-1.5-1.5-3.9-1.5-5.4,0c-1.5,1.5-1.5,3.9,0,5.4c1.5,1.5,3.9,1.5,5.4,0S104.2,470.5,102.7,469z"/>
			<path class="st2" d="M102.7,486.4c-1.5-1.5-3.9-1.5-5.4,0c-1.5,1.5-1.5,3.9,0,5.4c1.5,1.5,3.9,1.5,5.4,0
				C104.2,490.3,104.2,487.9,102.7,486.4z"/>
		</g>
	</g>
</g>
<rect x="281.5" y="522.2" transform="matrix(-1 -1.224647e-16 1.224647e-16 -1 708.4554 1180.3441)" class="st2" width="145.5" height="135.9"/>
<rect x="0" y="658.1" class="st3" width="135.9" height="135.9"/>
<rect x="427" y="794" transform="matrix(-1 -3.464102e-07 3.464102e-07 -1 989.9085 1723.8818)" class="st0" width="135.9" height="135.9"/>
<rect x="213.5" y="816.3" transform="matrix(-1 -2.896248e-07 2.896248e-07 -1 640.5028 1746.1598)" class="st3" width="213.5" height="113.6"/>
<rect x="0" y="794" transform="matrix(-1 -3.464102e-07 3.464102e-07 -1 213.5008 1723.8816)" class="st2" width="213.5" height="135.9"/>
<path class="st0" d="M281.5,521.9v136.6c37.7,0,68.3-30.6,68.3-68.3S319.2,521.9,281.5,521.9z"/>
<path class="st3" d="M281.2,658.1l0,135.4c37.4,0,67.7-30.3,67.7-67.7C348.9,688.4,318.6,658.1,281.2,658.1z"/>
<path class="st0" d="M427,522.2L427,522.2c-37.5,0.1-67.9,30.5-67.9,68c0,37.5,30.4,67.9,67.9,67.9v0.1h135.9V522.2H427z"/>
<path class="st3" d="M0,658.3l135.9,0c0-37.5-30.4-68-68-68S0,620.8,0,658.3z"/>
<g>
	<g>
		<rect x="222.6" y="536.2" class="st5" width="49.8" height="107.6"/>
	</g>
	<line class="st5" x1="222.6" y1="590.1" x2="272.4" y2="590.1"/>
	<line class="st5" x1="248.4" y1="642.9" x2="248.4" y2="536.3"/>
</g>
<circle class="st2" cx="32.6" cy="738.2" r="18.6"/>
<g>
	<path class="st4" d="M111.9,682.3v99.3h-44v-99.3c0.6-19.8,8.9-37.7,22-50.8C103,644.6,111.3,662.4,111.9,682.3z"/>
	<path class="st4" d="M89.9,631.5c-13.1,13.1-21.3,31-22,50.8c-0.6-19.8-8.9-37.7-22-50.8c6.3-6.4,13.8-11.6,22-15.4
		C76.2,619.9,83.6,625.1,89.9,631.5z"/>
	<path class="st4" d="M67.9,682.3v99.3H24v-99.3c0.6-19.8,8.9-37.7,22-50.8C59,644.6,67.3,662.4,67.9,682.3z"/>
</g>
<g>
	<g>
		<polygon class="st2" points="364.3,521.7 364.3,469.8 376.7,437.1 389,469.8 389,521.7 		"/>
		<path class="st3" d="M376.7,438.5l11.8,31.4v51.3h-23.7v-51.3L376.7,438.5 M376.7,435.7l-12.8,34.1v52.5h25.7v-52.5L376.7,435.7
			L376.7,435.7z"/>
	</g>
	<polygon class="st1" points="376.7,435.7 389.5,469.7 407.7,469.7 394.8,435.7 	"/>
	<rect x="389.5" y="469.7" class="st1" width="18.2" height="52.5"/>
	<g id="XMLID_00000119106983747177355520000001516032790447963282_">
		<g>
			<path class="st6" d="M383.6,473.9v17.3h-7.7v-17.3c0.1-3.5,1.6-6.6,3.8-8.9C382,467.4,383.5,470.5,383.6,473.9z"/>
			<path class="st7" d="M379.8,465.1c-2.3,2.3-3.7,5.4-3.8,8.9c-0.1-3.5-1.6-6.6-3.8-8.9c1.1-1.1,2.4-2,3.8-2.7
				C377.4,463.1,378.7,464,379.8,465.1z"/>
			<path class="st6" d="M375.9,473.9v17.3h-7.7v-17.3c0.1-3.5,1.6-6.6,3.8-8.9C374.4,467.4,375.8,470.5,375.9,473.9z"/>
		</g>
	</g>
	<rect x="368.3" y="508.5" class="st8" width="4.6" height="13.3"/>
</g>
<g>
	<path class="st1" d="M750.7,667.6c-3.7-5.5-9.9-8.8-16.6-8.8h-17.7v91.6h0h35.5v-81.1L750.7,667.6z"/>
	<g>
		<path class="st2" d="M699.1,749.9v-80.5l1.1-1.6c3.6-5.4,9.7-8.5,16.2-8.5c6.5,0,12.5,3.2,16.2,8.5l1.1,1.6v80.5H699.1z"/>
		<g>
			<path class="st3" d="M716.3,659.8c6.3,0,12.2,3.1,15.8,8.3l1,1.4v79.8h-33.5v-79.8l1-1.4C704.1,663,710,659.8,716.3,659.8
				 M716.3,658.8c-6.6,0-12.8,3.3-16.6,8.8l-1.2,1.7v81.1h35.5v-81.1l-1.2-1.7C729.2,662.1,723,658.8,716.3,658.8L716.3,658.8z"/>
		</g>
	</g>
	<g>
		<g>
			<g>
				<rect x="703.1" y="674.4" class="st6" width="6.3" height="15.4"/>
			</g>
			<line class="st6" x1="703.4" y1="682.1" x2="709.5" y2="682.1"/>
			<line class="st6" x1="706.4" y1="689.7" x2="706.4" y2="674.4"/>
		</g>
		<g>
			<g>
				<rect x="713.1" y="674.4" class="st6" width="6.3" height="15.4"/>
			</g>
			<line class="st6" x1="713.3" y1="682.1" x2="719.4" y2="682.1"/>
			<line class="st6" x1="716.4" y1="689.7" x2="716.4" y2="674.4"/>
		</g>
		<g>
			<g>
				<rect x="723.8" y="674.4" class="st6" width="6.3" height="15.4"/>
			</g>
			<line class="st6" x1="724" y1="682.1" x2="730.1" y2="682.1"/>
			<line class="st6" x1="727.1" y1="689.7" x2="727.1" y2="674.4"/>
		</g>
	</g>
	<g>
		<g>
			<g>
				<rect x="703.1" y="695.4" class="st6" width="6.3" height="15.4"/>
			</g>
			<line class="st6" x1="703.4" y1="703.1" x2="709.5" y2="703.1"/>
			<line class="st6" x1="706.4" y1="710.6" x2="706.4" y2="695.4"/>
		</g>
		<g>
			<g>
				<rect x="713.1" y="695.4" class="st6" width="6.3" height="15.4"/>
			</g>
			<line class="st6" x1="713.3" y1="703.1" x2="719.4" y2="703.1"/>
			<line class="st6" x1="716.4" y1="710.6" x2="716.4" y2="695.4"/>
		</g>
		<g>
			<g>
				<rect x="723.8" y="695.4" class="st6" width="6.3" height="15.4"/>
			</g>
			<line class="st6" x1="724" y1="703.1" x2="730.1" y2="703.1"/>
			<line class="st6" x1="727.1" y1="710.6" x2="727.1" y2="695.4"/>
		</g>
	</g>
	<g>
		<g>
			<g>
				<rect x="703.1" y="715.6" class="st6" width="6.3" height="15.4"/>
			</g>
			<line class="st6" x1="703.4" y1="723.3" x2="709.5" y2="723.3"/>
			<line class="st6" x1="706.4" y1="730.9" x2="706.4" y2="715.6"/>
		</g>
		<g>
			<g>
				<rect x="713.1" y="715.6" class="st6" width="6.3" height="15.4"/>
			</g>
			<line class="st6" x1="713.3" y1="723.3" x2="719.4" y2="723.3"/>
			<line class="st6" x1="716.4" y1="730.9" x2="716.4" y2="715.6"/>
		</g>
		<g>
			<g>
				<rect x="723.8" y="715.6" class="st6" width="6.3" height="15.4"/>
			</g>
			<line class="st6" x1="724" y1="723.3" x2="730.1" y2="723.3"/>
			<line class="st6" x1="727.1" y1="730.9" x2="727.1" y2="715.6"/>
		</g>
	</g>
</g>
<g>
	<path class="st1" d="M448.6,412.5v-6.6v-1.5c-1.2-1.2-2.8-1.9-4.6-1.9h-17.4v28.9l-1,1.5h-2.6v1.8h1v87.5h2.6h17.4h10.5h9.6v-86.9
		L448.6,412.5z"/>
	<g>
		<path class="st2" d="M408.2,521.7v-86.1c0-0.3-0.2-0.5-0.5-0.5h-0.5v-1.8h2.1c0.2,0,0.3-0.1,0.4-0.2l13.8-20.4
			c0.1-0.1,0.1-0.2,0.1-0.3v-7.9c1.1-1,2.6-1.6,4.1-1.6s3,0.6,4.1,1.6v7.9c0,0.1,0,0.2,0.1,0.3l13.8,20.4c0.1,0.1,0.2,0.2,0.4,0.2
			h2.1v2h-0.5c-0.3,0-0.5,0.2-0.5,0.5v85.8H408.2z"/>
		<path class="st3" d="M427.7,403.5c1.3,0,2.6,0.5,3.6,1.3v1v6.6c0,0.2,0.1,0.4,0.2,0.6l13.8,20.4c0.2,0.3,0.5,0.4,0.8,0.4h1.6v1
			c-0.5,0-1,0.5-1,1v85.3h-19.1h-19.1v-85.6c0-0.5-0.4-1-1-1v-0.8h1.6c0.3,0,0.6-0.2,0.8-0.4l13.8-20.4c0.1-0.2,0.2-0.4,0.2-0.6
			v-6.6v-1C425.1,404,426.4,403.5,427.7,403.5 M427.7,402.5c-1.8,0-3.4,0.7-4.6,1.9v1.5v6.6l-13.8,20.4h-2.6v2.8h1v86.6h20.1h20.1
			v-86.3h1v-3h-2.6l-13.8-20.4v-6.6v-1.5C431.2,403.3,429.5,402.5,427.7,402.5L427.7,402.5z"/>
	</g>
	<g>
		<g>
			<g>
				<g>
					<rect x="411.5" y="440.4" class="st6" width="6.2" height="15.2"/>
				</g>
				<line class="st6" x1="411.7" y1="448" x2="417.7" y2="448"/>
				<line class="st6" x1="414.7" y1="455.5" x2="414.7" y2="440.4"/>
			</g>
			<g>
				<g>
					<g>
						<rect x="423" y="440.4" class="st6" width="6.2" height="15.2"/>
					</g>
					<line class="st6" x1="423.2" y1="448" x2="429.2" y2="448"/>
					<line class="st6" x1="426.2" y1="455.5" x2="426.2" y2="440.4"/>
				</g>
				<g>
					<g>
						<rect x="429.2" y="440.4" class="st6" width="3.2" height="15.2"/>
					</g>
					<line class="st6" x1="429.3" y1="448" x2="432.5" y2="448"/>
				</g>
			</g>
			<g>
				<g>
					<rect x="437.7" y="440.4" class="st6" width="6.2" height="15.2"/>
				</g>
				<line class="st6" x1="437.9" y1="448" x2="443.9" y2="448"/>
				<line class="st6" x1="440.9" y1="455.5" x2="440.9" y2="440.4"/>
			</g>
		</g>
		<g>
			<g>
				<g>
					<rect x="411.5" y="460" class="st6" width="6.2" height="15.2"/>
				</g>
				<line class="st6" x1="411.7" y1="467.6" x2="417.7" y2="467.6"/>
				<line class="st6" x1="414.7" y1="475.1" x2="414.7" y2="460"/>
			</g>
			<g>
				<g>
					<g>
						<rect x="423" y="460" class="st6" width="6.2" height="15.2"/>
					</g>
					<line class="st6" x1="423.2" y1="467.6" x2="429.2" y2="467.6"/>
					<line class="st6" x1="426.2" y1="475.1" x2="426.2" y2="460"/>
				</g>
				<g>
					<g>
						<rect x="429.2" y="460" class="st6" width="3.2" height="15.2"/>
					</g>
					<line class="st6" x1="429.3" y1="467.6" x2="432.5" y2="467.6"/>
				</g>
			</g>
			<g>
				<g>
					<rect x="437.7" y="460" class="st6" width="6.2" height="15.2"/>
				</g>
				<line class="st6" x1="437.9" y1="467.6" x2="443.9" y2="467.6"/>
				<line class="st6" x1="440.9" y1="475.1" x2="440.9" y2="460"/>
			</g>
		</g>
		<g>
			<g>
				<g>
					<rect x="411.5" y="479.6" class="st6" width="6.2" height="15.2"/>
				</g>
				<line class="st6" x1="411.7" y1="487.2" x2="417.7" y2="487.2"/>
				<line class="st6" x1="414.7" y1="494.7" x2="414.7" y2="479.6"/>
			</g>
			<g>
				<g>
					<g>
						<rect x="423" y="479.6" class="st6" width="6.2" height="15.2"/>
					</g>
					<line class="st6" x1="423.2" y1="487.2" x2="429.2" y2="487.2"/>
					<line class="st6" x1="426.2" y1="494.7" x2="426.2" y2="479.6"/>
				</g>
				<g>
					<g>
						<rect x="429.2" y="479.6" class="st6" width="3.2" height="15.2"/>
					</g>
					<line class="st6" x1="429.3" y1="487.2" x2="432.5" y2="487.2"/>
				</g>
			</g>
			<g>
				<g>
					<rect x="437.7" y="479.6" class="st6" width="6.2" height="15.2"/>
				</g>
				<line class="st6" x1="437.9" y1="487.2" x2="443.9" y2="487.2"/>
				<line class="st6" x1="440.9" y1="494.7" x2="440.9" y2="479.6"/>
			</g>
		</g>
		<g>
			<g>
				<g>
					<rect x="411.5" y="499.2" class="st6" width="6.2" height="15.2"/>
				</g>
				<line class="st6" x1="411.7" y1="506.8" x2="417.7" y2="506.8"/>
				<line class="st6" x1="414.7" y1="514.3" x2="414.7" y2="499.2"/>
			</g>
			<g>
				<g>
					<g>
						<rect x="423" y="499.2" class="st6" width="6.2" height="15.2"/>
					</g>
					<line class="st6" x1="423.2" y1="506.8" x2="429.2" y2="506.8"/>
					<line class="st6" x1="426.2" y1="514.3" x2="426.2" y2="499.2"/>
				</g>
				<g>
					<g>
						<rect x="429.2" y="499.2" class="st6" width="3.2" height="15.2"/>
					</g>
					<line class="st6" x1="429.3" y1="506.8" x2="432.5" y2="506.8"/>
				</g>
			</g>
			<g>
				<g>
					<rect x="437.7" y="499.2" class="st6" width="6.2" height="15.2"/>
				</g>
				<line class="st6" x1="437.9" y1="506.8" x2="443.9" y2="506.8"/>
				<line class="st6" x1="440.9" y1="514.3" x2="440.9" y2="499.2"/>
			</g>
		</g>
		<rect x="423.4" y="423" class="st6" width="8.6" height="10.9"/>
	</g>
	<path d="M423.9,522.2"/>
</g>
<g>
	<rect x="-160.7" y="464.3" class="st3" width="69.7" height="9.9"/>
	<rect x="-169.2" y="454.3" class="st3" width="69.7" height="9.9"/>
	<rect x="-176.3" y="444.4" class="st3" width="69.7" height="9.9"/>
	<rect x="-184.1" y="434.4" class="st3" width="69.7" height="9.9"/>
</g>
<g>
	<g>
		<path class="st1" d="M429,597.7c-4.2,0-7.6-3.4-7.6-7.6s3.4-7.6,7.6-7.6c4.2,0,7.6,3.4,7.6,7.6S433.2,597.7,429,597.7z M429,584.1
			c-3.3,0-6,2.7-6,6s2.7,6,6,6s6-2.7,6-6S432.3,584.1,429,584.1z"/>
	</g>
	<g>
		<rect x="429" y="528.3" class="st1" width="133.9" height="1.5"/>
	</g>
	<g>
		<rect x="429" y="535.1" class="st1" width="133.9" height="1.5"/>
	</g>
	<g>
		<g>
			<path class="st1" d="M429,652.1c-34.1,0-61.9-27.8-61.9-61.9c0-34.1,27.8-61.9,61.9-61.9v1.5c-33.3,0-60.4,27.1-60.4,60.4
				c0,33.3,27.1,60.4,60.4,60.4V652.1z"/>
		</g>
		<g>
			<path class="st1" d="M429,645.3c-30.4,0-55.1-24.7-55.1-55.1s24.7-55.1,55.1-55.1v1.5c-29.6,0-53.6,24-53.6,53.6
				s24,53.6,53.6,53.6V645.3z"/>
		</g>
		<g>
			<path class="st1" d="M429,638.5c-26.6,0-48.3-21.7-48.3-48.3s21.7-48.3,48.3-48.3v1.5c-25.8,0-46.8,21-46.8,46.8
				s21,46.8,46.8,46.8V638.5z"/>
		</g>
		<g>
			<path class="st1" d="M429,631.7c-22.9,0-41.5-18.6-41.5-41.5c0-22.9,18.6-41.5,41.5-41.5v1.5c-22.1,0-40,18-40,40s17.9,40,40,40
				V631.7z"/>
		</g>
		<g>
			<path class="st1" d="M429,624.9c-19.2,0-34.7-15.6-34.7-34.7c0-19.2,15.6-34.7,34.7-34.7v1.5c-18.3,0-33.2,14.9-33.2,33.2
				s14.9,33.2,33.2,33.2V624.9z"/>
		</g>
		<g>
			<path class="st1" d="M429,618.1c-15.4,0-27.9-12.5-27.9-27.9c0-15.4,12.5-27.9,27.9-27.9v1.5c-14.6,0-26.4,11.9-26.4,26.4
				s11.9,26.4,26.4,26.4V618.1z"/>
		</g>
		<g>
			<path class="st1" d="M429,611.3c-11.7,0-21.1-9.5-21.1-21.1c0-11.7,9.5-21.1,21.1-21.1v1.5c-10.8,0-19.6,8.8-19.6,19.6
				c0,10.8,8.8,19.6,19.6,19.6V611.3z"/>
		</g>
		<g>
			<path class="st1" d="M429,604.5c-7.9,0-14.3-6.4-14.3-14.3s6.4-14.3,14.3-14.3v1.5c-7.1,0-12.8,5.8-12.8,12.8S421.9,603,429,603
				V604.5z"/>
		</g>
		<g>
			<rect x="429" y="541.8" class="st1" width="133.9" height="1.5"/>
		</g>
		<g>
			<rect x="429" y="548.6" class="st1" width="133.9" height="1.5"/>
		</g>
		<g>
			<rect x="429" y="555.4" class="st1" width="133.9" height="1.5"/>
		</g>
		<g>
			<rect x="429" y="562.2" class="st1" width="133.9" height="1.5"/>
		</g>
		<g>
			<rect x="429" y="569" class="st1" width="133.9" height="1.5"/>
		</g>
		<g>
			<rect x="429" y="575.8" class="st1" width="133.9" height="1.5"/>
		</g>
		<g>
			<rect x="429" y="603" class="st1" width="133.9" height="1.5"/>
		</g>
		<g>
			<rect x="429" y="609.8" class="st1" width="133.9" height="1.5"/>
		</g>
		<g>
			<rect x="429" y="616.6" class="st1" width="133.9" height="1.5"/>
		</g>
		<g>
			<rect x="429" y="623.4" class="st1" width="133.9" height="1.5"/>
		</g>
		<g>
			<rect x="429" y="630.2" class="st1" width="133.9" height="1.5"/>
		</g>
		<g>
			<rect x="429" y="637" class="st1" width="133.9" height="1.5"/>
		</g>
		<g>
			<rect x="429" y="643.8" class="st1" width="133.9" height="1.5"/>
		</g>
	</g>
	<g>
		<rect x="429" y="650.6" class="st1" width="133.9" height="1.5"/>
	</g>
</g>
<path class="st2" d="M328.3,849c-5.3-0.2-10.7-0.2-16,0l-98.7,4.3v36.3h30.2l0,0c0-9.9,7.4-18,17-19.1h0c0,0,0,0,0,0
	c0.8-0.1,1.5-0.2,2.3-0.2c0,0,0,0,0,0c0,0,0,0,0,0l0,0c6.5,0,12.3,3.2,15.8,8.2c0.1,0.1,0.2,0.2,0.2,0.3c0,0,0,0,0,0
	c0.5,0.7,0.9,1.4,1.2,2.1c0.1,0.2,0.2,0.4,0.3,0.6c0.7,1.5,1.2,3.1,1.5,4.8c0,0.2,0.1,0.4,0.1,0.6c0.1,0.9,0.2,1.7,0.2,2.6h7.8
	c0-15.4,11.6-28.1,26.5-29.9v0c0,0,0,0,0,0c0.4,0,0.8-0.1,1.2-0.1c0.8-0.1,1.6-0.1,2.4-0.1c0,0,0,0,0,0l0,0c8.3,0,15.8,3.3,21.2,8.7
	c0,0,0.1,0.1,0.1,0.1v0c1.3,1.3,2.4,2.6,3.4,4.1c0.1,0.1,0.2,0.2,0.3,0.4c0.5,0.7,0.9,1.5,1.4,2.2c0.1,0.2,0.2,0.5,0.4,0.7
	c0.3,0.6,0.6,1.2,0.8,1.7c0.1,0.2,0.2,0.5,0.3,0.7c0.3,0.8,0.6,1.6,0.9,2.5c0,0,0,0,0,0.1c0.3,0.8,0.5,1.7,0.7,2.6
	c0.1,0.3,0.1,0.5,0.2,0.8c0.1,0.6,0.2,1.3,0.3,2c0,0.3,0.1,0.6,0.1,0.8c0.1,0.9,0.1,1.8,0.1,2.7c0,0,0,0,0,0.1h7.8
	c0-9.9,7.4-18,17-19.1l0,0l0,0c0.8-0.1,1.5-0.2,2.3-0.2c0,0,0,0,0,0l0,0l0,0c6.5,0,12.3,3.2,15.8,8.2c0.1,0.1,0.2,0.2,0.2,0.3
	c0,0,0,0,0,0c0.5,0.7,0.9,1.4,1.2,2.1c0.1,0.2,0.2,0.4,0.3,0.6c0.7,1.5,1.2,3.1,1.5,4.8c0,0.2,0.1,0.4,0.1,0.6
	c0.1,0.9,0.2,1.7,0.2,2.6l0,0H427v-36.3L328.3,849z"/>
<path class="st2" d="M328.3,889.3c-5.3-0.2-10.7-0.2-16,0l-98.7,4.3v36.3h30.2l0,0c0-9.9,7.4-18,17-19.1h0c0,0,0,0,0,0
	c0.8-0.1,1.5-0.2,2.3-0.2c0,0,0,0,0,0c0,0,0,0,0,0l0,0c6.5,0,12.3,3.2,15.8,8.2c0.1,0.1,0.2,0.2,0.2,0.3c0,0,0,0,0,0
	c0.5,0.7,0.9,1.4,1.2,2.1c0.1,0.2,0.2,0.4,0.3,0.6c0.7,1.5,1.2,3.1,1.5,4.8c0,0.2,0.1,0.4,0.1,0.6c0.1,0.9,0.2,1.7,0.2,2.6h7.8
	c0-15.4,11.6-28.1,26.5-29.9v0c0,0,0,0,0,0c0.4,0,0.8-0.1,1.2-0.1c0.8-0.1,1.6-0.1,2.4-0.1c0,0,0,0,0,0l0,0c8.3,0,15.8,3.3,21.2,8.7
	c0,0,0.1,0.1,0.1,0.1v0c1.3,1.3,2.4,2.6,3.4,4.1c0.1,0.1,0.2,0.2,0.3,0.4c0.5,0.7,0.9,1.5,1.4,2.2c0.1,0.2,0.2,0.5,0.4,0.7
	c0.3,0.6,0.6,1.2,0.8,1.7c0.1,0.2,0.2,0.5,0.3,0.7c0.3,0.8,0.6,1.6,0.9,2.5c0,0,0,0,0,0.1c0.3,0.8,0.5,1.7,0.7,2.6
	c0.1,0.3,0.1,0.5,0.2,0.8c0.1,0.6,0.2,1.3,0.3,2c0,0.3,0.1,0.6,0.1,0.8c0.1,0.9,0.1,1.8,0.1,2.7c0,0,0,0,0,0.1h7.8
	c0-9.9,7.4-18,17-19.1l0,0l0,0c0.8-0.1,1.5-0.2,2.3-0.2c0,0,0,0,0,0l0,0l0,0c6.5,0,12.3,3.2,15.8,8.2c0.1,0.1,0.2,0.2,0.2,0.3
	c0,0,0,0,0,0c0.5,0.7,0.9,1.4,1.2,2.1c0.1,0.2,0.2,0.4,0.3,0.6c0.7,1.5,1.2,3.1,1.5,4.8c0,0.2,0.1,0.4,0.1,0.6
	c0.1,0.9,0.2,1.7,0.2,2.6l0,0H427v-36.3L328.3,889.3z"/>
<path class="st2" d="M328.3,807.4c-5.3-0.2-10.7-0.2-16,0l-98.7,4.3V848h30.2l0,0c0-9.9,7.4-18,17-19.1h0c0,0,0,0,0,0
	c0.8-0.1,1.5-0.2,2.3-0.2c0,0,0,0,0,0c0,0,0,0,0,0l0,0c6.5,0,12.3,3.2,15.8,8.2c0.1,0.1,0.2,0.2,0.2,0.3c0,0,0,0,0,0
	c0.5,0.7,0.9,1.4,1.2,2.1c0.1,0.2,0.2,0.4,0.3,0.6c0.7,1.5,1.2,3.1,1.5,4.8c0,0.2,0.1,0.4,0.1,0.6c0.1,0.9,0.2,1.7,0.2,2.6h7.8
	c0-15.4,11.6-28.1,26.5-29.9v0c0,0,0,0,0,0c0.4,0,0.8-0.1,1.2-0.1c0.8-0.1,1.6-0.1,2.4-0.1c0,0,0,0,0,0l0,0c8.3,0,15.8,3.3,21.2,8.7
	c0,0,0.1,0.1,0.1,0.1v0c1.3,1.3,2.4,2.6,3.4,4.1c0.1,0.1,0.2,0.2,0.3,0.4c0.5,0.7,0.9,1.5,1.4,2.2c0.1,0.2,0.2,0.5,0.4,0.7
	c0.3,0.6,0.6,1.2,0.8,1.7c0.1,0.2,0.2,0.5,0.3,0.7c0.3,0.8,0.6,1.6,0.9,2.5c0,0,0,0,0,0.1c0.3,0.8,0.5,1.7,0.7,2.6
	c0.1,0.3,0.1,0.5,0.2,0.8c0.1,0.6,0.2,1.3,0.3,2c0,0.3,0.1,0.6,0.1,0.8c0.1,0.9,0.1,1.8,0.1,2.7c0,0,0,0,0,0.1h7.8
	c0-9.9,7.4-18,17-19.1l0,0l0,0c0.8-0.1,1.5-0.2,2.3-0.2c0,0,0,0,0,0l0,0l0,0c6.5,0,12.3,3.2,15.8,8.2c0.1,0.1,0.2,0.2,0.2,0.3
	c0,0,0,0,0,0c0.5,0.7,0.9,1.4,1.2,2.1c0.1,0.2,0.2,0.4,0.3,0.6c0.7,1.5,1.2,3.1,1.5,4.8c0,0.2,0.1,0.4,0.1,0.6
	c0.1,0.9,0.2,1.7,0.2,2.6l0,0H427v-36.3L328.3,807.4z"/>
<g>
	<g>
		<rect x="44.7" y="910.7" class="st3" width="125.6" height="19.4"/>
		<polygon class="st3" points="127,790.5 142.3,911.8 81,911.8 91.8,790.5 		"/>
		<g>
			<path class="st2" d="M42,910.3c18.2-30,28-106.8,29.4-118.3h21.6l-9.8,118.3H42z"/>
			<path class="st3" d="M91.4,793.5l-9.6,115.3H44.6c17-30.6,26.3-100.5,28.1-115.3H91.4 M94.7,790.5L94.7,790.5L94.7,790.5z
				 M94.7,790.5H70.1c0,0-10.5,91.6-30.8,121.3h45.4L94.7,790.5L94.7,790.5z"/>
		</g>
		<g>
			<polygon class="st9" points="76.5,896 70.8,896 73.7,880.7 79.4,880.7 			"/>
			<polygon class="st10" points="73.7,880.7 78.6,884.9 79.4,880.7 			"/>
		</g>
		<g>
			<polygon class="st9" points="85.2,821.5 80.2,821.5 82.8,807.7 87.9,807.7 			"/>
			<polygon class="st10" points="82.8,807.7 87.2,811.5 87.9,807.7 			"/>
		</g>
		<path class="st11" d="M149,790.5c0,0,10.5,91.6,30.8,121.3h-45.4l-10.1-121.3H149z"/>
		<g>
			<path class="st2" d="M109.8,781.8c-0.1,0-0.2,0-0.3,0L72,781.1l1.6-16.6l12.8-19.5h49l12.8,19.5l1.6,16.6l-37.5,0.7
				c-0.1,0-0.2,0-0.3,0l-1,0L109.8,781.8z"/>
			<path class="st3" d="M134.5,746.6l12.1,18.5l1.4,14.6l-35.9,0.6c-0.1,0-0.3,0-0.4,0l-0.8,0c0,0,0,0-0.1,0s0,0-0.1,0l-0.8,0
				c-0.1,0-0.3,0-0.4,0l-35.9-0.6L75,765l12.1-18.5h22.3h2.7H134.5 M136.1,743.6h-24h-2.7h-24L72.1,764l-1.8,18.6l39.1,0.7v0l1.3,0
				l1.3,0v0l39.1-0.7l-1.8-18.6L136.1,743.6L136.1,743.6z"/>
		</g>
		<g>
			<polygon class="st9" points="144.4,894 150,894 147.1,878.7 141.4,878.7 			"/>
			<polygon class="st3" points="147.1,878.7 142.2,882.9 141.4,878.7 			"/>
		</g>
		<g>
			<rect x="142.7" y="804.1" class="st2" width="5.4" height="5.4"/>
			<path class="st3" d="M146.6,805.6v2.4h-2.4v-2.4H146.6 M149.6,802.6h-8.4v8.4h8.4V802.6L149.6,802.6z"/>
		</g>
		<g>
			<path class="st2" d="M71.5,791.1c-1.8,0-3.3-1.5-3.3-3.3v-2.6c0-1.8,1.5-3.3,3.3-3.3h78.6c1.8,0,3.3,1.5,3.3,3.3v2.6
				c0,1.8-1.5,3.3-3.3,3.3H71.5z"/>
			<path class="st3" d="M150.1,783.5c1,0,1.8,0.8,1.8,1.8v2.6c0,1-0.8,1.8-1.8,1.8H71.5c-1,0-1.8-0.8-1.8-1.8v-2.6
				c0-1,0.8-1.8,1.8-1.8H150.1 M150.1,780.5H71.5c-2.6,0-4.8,2.1-4.8,4.8v2.6c0,2.6,2.1,4.8,4.8,4.8h78.6c2.6,0,4.8-2.1,4.8-4.8
				v-2.6C154.8,782.7,152.7,780.5,150.1,780.5L150.1,780.5z"/>
		</g>
	</g>
	<g>
		<g>
			<g>
				
					<rect x="130.9" y="709" transform="matrix(0.7071 -0.7071 0.7071 0.7071 -458.1538 333.1783)" class="st12" width="84.5" height="21.2"/>
				
					<rect x="126.1" y="711.4" transform="matrix(0.7071 -0.7071 0.7071 0.7071 -456.1233 328.3813)" class="st3" width="84.4" height="6.8"/>
				<line class="st13" x1="109.6" y1="768.2" x2="194.3" y2="683.5"/>
			</g>
			<g>
				
					<rect x="18.8" y="694" transform="matrix(-0.7071 -0.7071 0.7071 -0.7071 -394.12 1246.0195)" class="st12" width="84.5" height="21.2"/>
				
					<rect x="14" y="706" transform="matrix(-0.7071 -0.7071 0.7071 -0.7071 -405.7754 1250.7421)" class="st3" width="84.4" height="6.8"/>
				<line class="st13" x1="109.6" y1="768.2" x2="24.8" y2="683.5"/>
			</g>
			<g>
				
					<rect x="3.8" y="806.1" transform="matrix(-0.7071 0.7071 -0.7071 -0.7071 656.0565 1361.7334)" class="st12" width="84.5" height="21.2"/>
				
					<rect x="8.6" y="818.2" transform="matrix(-0.7071 0.7071 -0.7071 -0.7071 667.6375 1366.6355)" class="st3" width="84.4" height="6.8"/>
				<line class="st13" x1="109.6" y1="768.2" x2="24.8" y2="852.9"/>
			</g>
			<g>
				
					<rect x="115.9" y="821.1" transform="matrix(0.7071 0.7071 -0.7071 0.7071 634.4351 131.8092)" class="st12" width="84.5" height="21.2"/>
				
					<rect x="120.8" y="823.6" transform="matrix(0.7071 0.7071 -0.7071 0.7071 632.4789 126.9814)" class="st3" width="84.4" height="6.8"/>
				<line class="st13" x1="109.6" y1="768.2" x2="194.3" y2="852.9"/>
			</g>
		</g>
		<rect x="103.8" y="762.4" class="st12" width="11.5" height="11.5"/>
	</g>
</g>
<g>
	<g>
		<path class="st0" d="M498.6,679.5c11.8,0,21.4-9.6,21.4-21.4h-42.7C477.3,669.9,486.8,679.5,498.6,679.5z"/>
		<path class="st0" d="M455.9,679.5c11.8,0,21.4-9.6,21.4-21.4h-42.7C434.6,669.9,444.1,679.5,455.9,679.5z"/>
		<path class="st0" d="M413.2,679.5c11.8,0,21.4-9.6,21.4-21.4h-42.7C391.9,669.9,401.4,679.5,413.2,679.5z"/>
		<path class="st0" d="M370.5,679.5c11.8,0,21.4-9.6,21.4-21.4h-42.7C349.2,669.9,358.7,679.5,370.5,679.5z"/>
		<path class="st0" d="M541.3,679.5c11.8,0,21.4-9.6,21.4-21.4H520C520,669.9,529.5,679.5,541.3,679.5z"/>
	</g>
	<g>
		<path class="st0" d="M498.6,764.9c11.8,0,21.4-9.6,21.4-21.4h-42.7C477.3,755.3,486.8,764.9,498.6,764.9z"/>
		<path class="st0" d="M455.9,764.9c11.8,0,21.4-9.6,21.4-21.4h-42.7C434.6,755.3,444.1,764.9,455.9,764.9z"/>
		<path class="st0" d="M413.2,764.9c11.8,0,21.4-9.6,21.4-21.4h-42.7C391.9,755.3,401.4,764.9,413.2,764.9z"/>
		<path class="st0" d="M370.5,764.9c11.8,0,21.4-9.6,21.4-21.4h-42.7C349.2,755.3,358.7,764.9,370.5,764.9z"/>
		<path class="st0" d="M541.3,764.9c11.8,0,21.4-9.6,21.4-21.4H520C520,755.3,529.5,764.9,541.3,764.9z"/>
	</g>
	<g>
		<path class="st0" d="M498.6,786.2c11.8,0,21.4-9.6,21.4-21.4h-42.7C477.3,776.7,486.8,786.2,498.6,786.2z"/>
		<path class="st0" d="M455.9,786.2c11.8,0,21.4-9.6,21.4-21.4h-42.7C434.6,776.7,444.1,786.2,455.9,786.2z"/>
		<path class="st0" d="M413.2,786.2c11.8,0,21.4-9.6,21.4-21.4h-42.7C391.9,776.7,401.4,786.2,413.2,786.2z"/>
		<path class="st0" d="M370.5,786.2c11.8,0,21.4-9.6,21.4-21.4h-42.7C349.2,776.7,358.7,786.2,370.5,786.2z"/>
		<path class="st0" d="M541.3,786.2c11.8,0,21.4-9.6,21.4-21.4H520C520,776.7,529.5,786.2,541.3,786.2z"/>
	</g>
	<g>
		<path class="st0" d="M498.6,700.8c11.8,0,21.4-9.6,21.4-21.4h-42.7C477.3,691.3,486.8,700.8,498.6,700.8z"/>
		<path class="st0" d="M455.9,700.8c11.8,0,21.4-9.6,21.4-21.4h-42.7C434.6,691.3,444.1,700.8,455.9,700.8z"/>
		<path class="st0" d="M413.2,700.8c11.8,0,21.4-9.6,21.4-21.4h-42.7C391.9,691.3,401.4,700.8,413.2,700.8z"/>
		<path class="st0" d="M370.5,700.8c11.8,0,21.4-9.6,21.4-21.4h-42.7C349.2,691.3,358.7,700.8,370.5,700.8z"/>
		<path class="st0" d="M541.3,700.8c11.8,0,21.4-9.6,21.4-21.4H520C520,691.3,529.5,700.8,541.3,700.8z"/>
	</g>
	<g>
		<path class="st0" d="M498.6,722.2c11.8,0,21.4-9.6,21.4-21.4h-42.7C477.3,712.6,486.8,722.2,498.6,722.2z"/>
		<path class="st0" d="M455.9,722.2c11.8,0,21.4-9.6,21.4-21.4h-42.7C434.6,712.6,444.1,722.2,455.9,722.2z"/>
		<path class="st0" d="M413.2,722.2c11.8,0,21.4-9.6,21.4-21.4h-42.7C391.9,712.6,401.4,722.2,413.2,722.2z"/>
		<path class="st0" d="M370.5,722.2c11.8,0,21.4-9.6,21.4-21.4h-42.7C349.2,712.6,358.7,722.2,370.5,722.2z"/>
		<path class="st0" d="M541.3,722.2c11.8,0,21.4-9.6,21.4-21.4H520C520,712.6,529.5,722.2,541.3,722.2z"/>
	</g>
	<g>
		<path class="st0" d="M498.6,743.5c11.8,0,21.4-9.6,21.4-21.4h-42.7C477.3,734,486.8,743.5,498.6,743.5z"/>
		<path class="st0" d="M455.9,743.5c11.8,0,21.4-9.6,21.4-21.4h-42.7C434.6,734,444.1,743.5,455.9,743.5z"/>
		<path class="st0" d="M413.2,743.5c11.8,0,21.4-9.6,21.4-21.4h-42.7C391.9,734,401.4,743.5,413.2,743.5z"/>
		<path class="st0" d="M370.5,743.5c11.8,0,21.4-9.6,21.4-21.4h-42.7C349.2,734,358.7,743.5,370.5,743.5z"/>
		<path class="st0" d="M541.3,743.5c11.8,0,21.4-9.6,21.4-21.4H520C520,734,529.5,743.5,541.3,743.5z"/>
	</g>
</g>
<rect x="427" y="794" transform="matrix(-1 -1.224647e-16 1.224647e-16 -1 1067.5061 1723.8816)" class="st0" width="213.5" height="135.9"/>
<rect x="793.8" y="946.9" transform="matrix(-1 -1.224647e-16 1.224647e-16 -1 1801.0709 2029.8044)" class="st3" width="213.5" height="135.9"/>
<rect x="861.7" y="946.9" transform="matrix(-1 -1.224647e-16 1.224647e-16 -1 1869.0232 2029.8044)" class="st2" width="145.5" height="135.9"/>
<path class="st0" d="M861.7,946.9v135.9c37.5,0,68-30.4,68-68C929.7,977.4,899.3,946.9,861.7,946.9z"/>
<path class="st0" d="M1007.3,947L1007.3,947c-37.5,0.1-67.9,30.5-67.9,68c0,37.5,30.4,67.9,67.9,67.9v0.1h135.9V947H1007.3z"/>
<g>
	<g>
		
			<rect x="802.9" y="961" transform="matrix(-1 -1.224647e-16 1.224647e-16 -1 1655.5222 2029.6091)" class="st5" width="49.8" height="107.6"/>
	</g>
	<line class="st5" x1="852.7" y1="1014.8" x2="802.9" y2="1014.8"/>
	<line class="st5" x1="826.8" y1="962" x2="826.8" y2="1068.6"/>
</g>
<g>
	<g>
		<path class="st1" d="M1009.3,1022.5c-4.2,0-7.6-3.4-7.6-7.6s3.4-7.6,7.6-7.6c4.2,0,7.6,3.4,7.6,7.6S1013.5,1022.5,1009.3,1022.5z
			 M1009.3,1008.9c-3.3,0-6,2.7-6,6s2.7,6,6,6c3.3,0,6-2.7,6-6S1012.6,1008.9,1009.3,1008.9z"/>
	</g>
	<g>
		<rect x="1009.3" y="953" class="st1" width="133.9" height="1.5"/>
	</g>
	<g>
		<rect x="1009.3" y="959.8" class="st1" width="133.9" height="1.5"/>
	</g>
	<g>
		<g>
			<path class="st1" d="M1009.3,1076.8c-34.1,0-61.9-27.8-61.9-61.9c0-34.1,27.8-61.9,61.9-61.9v1.5c-33.3,0-60.4,27.1-60.4,60.4
				c0,33.3,27.1,60.4,60.4,60.4V1076.8z"/>
		</g>
		<g>
			<path class="st1" d="M1009.3,1070c-30.4,0-55.1-24.7-55.1-55.1s24.7-55.1,55.1-55.1v1.5c-29.6,0-53.6,24-53.6,53.6
				s24,53.6,53.6,53.6V1070z"/>
		</g>
		<g>
			<path class="st1" d="M1009.3,1063.2c-26.6,0-48.3-21.7-48.3-48.3c0-26.6,21.7-48.3,48.3-48.3v1.5c-25.8,0-46.8,21-46.8,46.8
				s21,46.8,46.8,46.8V1063.2z"/>
		</g>
		<g>
			<path class="st1" d="M1009.3,1056.4c-22.9,0-41.5-18.6-41.5-41.5c0-22.9,18.6-41.5,41.5-41.5v1.5c-22.1,0-40,18-40,40
				c0,22.1,17.9,40,40,40V1056.4z"/>
		</g>
		<g>
			<path class="st1" d="M1009.3,1049.6c-19.2,0-34.7-15.6-34.7-34.7s15.6-34.7,34.7-34.7v1.5c-18.3,0-33.2,14.9-33.2,33.2
				s14.9,33.2,33.2,33.2V1049.6z"/>
		</g>
		<g>
			<path class="st1" d="M1009.3,1042.8c-15.4,0-27.9-12.5-27.9-27.9c0-15.4,12.5-27.9,27.9-27.9v1.5c-14.6,0-26.4,11.9-26.4,26.4
				s11.9,26.4,26.4,26.4V1042.8z"/>
		</g>
		<g>
			<path class="st1" d="M1009.3,1036c-11.7,0-21.1-9.5-21.1-21.1c0-11.7,9.5-21.1,21.1-21.1v1.5c-10.8,0-19.6,8.8-19.6,19.6
				c0,10.8,8.8,19.6,19.6,19.6V1036z"/>
		</g>
		<g>
			<path class="st1" d="M1009.3,1029.3c-7.9,0-14.3-6.4-14.3-14.3s6.4-14.3,14.3-14.3v1.5c-7.1,0-12.8,5.8-12.8,12.8
				s5.8,12.8,12.8,12.8V1029.3z"/>
		</g>
		<g>
			<rect x="1009.3" y="966.6" class="st1" width="133.9" height="1.5"/>
		</g>
		<g>
			<rect x="1009.3" y="973.4" class="st1" width="133.9" height="1.5"/>
		</g>
		<g>
			<rect x="1009.3" y="980.2" class="st1" width="133.9" height="1.5"/>
		</g>
		<g>
			<rect x="1009.3" y="987" class="st1" width="133.9" height="1.5"/>
		</g>
		<g>
			<rect x="1009.3" y="993.8" class="st1" width="133.9" height="1.5"/>
		</g>
		<g>
			<rect x="1009.3" y="1000.6" class="st1" width="133.9" height="1.5"/>
		</g>
		<g>
			<rect x="1009.3" y="1027.7" class="st1" width="133.9" height="1.5"/>
		</g>
		<g>
			<rect x="1009.3" y="1034.5" class="st1" width="133.9" height="1.5"/>
		</g>
		<g>
			<rect x="1009.3" y="1041.3" class="st1" width="133.9" height="1.5"/>
		</g>
		<g>
			<rect x="1009.3" y="1048.1" class="st1" width="133.9" height="1.5"/>
		</g>
		<g>
			<rect x="1009.3" y="1054.9" class="st1" width="133.9" height="1.5"/>
		</g>
		<g>
			<rect x="1009.3" y="1061.7" class="st1" width="133.9" height="1.5"/>
		</g>
		<g>
			<rect x="1009.3" y="1068.5" class="st1" width="133.9" height="1.5"/>
		</g>
	</g>
	<g>
		<rect x="1009.3" y="1075.3" class="st1" width="133.9" height="1.5"/>
	</g>
</g>
<g>
	<g>
		<path class="st3" d="M576.5,815.3c11.8,0,21.4-9.6,21.4-21.4h-42.7C555.1,805.8,564.7,815.3,576.5,815.3z"/>
		<path class="st3" d="M533.8,815.3c11.8,0,21.4-9.6,21.4-21.4h-42.7C512.4,805.8,522,815.3,533.8,815.3z"/>
		<path class="st3" d="M491.1,815.3c11.8,0,21.4-9.6,21.4-21.4h-42.7C469.7,805.8,479.3,815.3,491.1,815.3z"/>
		<path class="st3" d="M448.4,815.3c11.8,0,21.4-9.6,21.4-21.4H427C427,805.8,436.6,815.3,448.4,815.3z"/>
		<path class="st3" d="M619.2,815.3c11.8,0,21.4-9.6,21.4-21.4h-42.7C597.8,805.8,607.4,815.3,619.2,815.3z"/>
	</g>
	<g>
		<path class="st3" d="M576.5,900.7c11.8,0,21.4-9.6,21.4-21.4h-42.7C555.1,891.2,564.7,900.7,576.5,900.7z"/>
		<path class="st3" d="M533.8,900.7c11.8,0,21.4-9.6,21.4-21.4h-42.7C512.4,891.2,522,900.7,533.8,900.7z"/>
		<path class="st3" d="M491.1,900.7c11.8,0,21.4-9.6,21.4-21.4h-42.7C469.7,891.2,479.3,900.7,491.1,900.7z"/>
		<path class="st3" d="M448.4,900.7c11.8,0,21.4-9.6,21.4-21.4H427C427,891.2,436.6,900.7,448.4,900.7z"/>
		<path class="st3" d="M619.2,900.7c11.8,0,21.4-9.6,21.4-21.4h-42.7C597.8,891.2,607.4,900.7,619.2,900.7z"/>
	</g>
	<g>
		<path class="st3" d="M576.5,922.1c11.8,0,21.4-9.6,21.4-21.4h-42.7C555.1,912.5,564.7,922.1,576.5,922.1z"/>
		<path class="st3" d="M533.8,922.1c11.8,0,21.4-9.6,21.4-21.4h-42.7C512.4,912.5,522,922.1,533.8,922.1z"/>
		<path class="st3" d="M491.1,922.1c11.8,0,21.4-9.6,21.4-21.4h-42.7C469.7,912.5,479.3,922.1,491.1,922.1z"/>
		<path class="st3" d="M448.4,922.1c11.8,0,21.4-9.6,21.4-21.4H427C427,912.5,436.6,922.1,448.4,922.1z"/>
		<path class="st3" d="M619.2,922.1c11.8,0,21.4-9.6,21.4-21.4h-42.7C597.8,912.5,607.4,922.1,619.2,922.1z"/>
	</g>
	<g>
		<path class="st3" d="M576.5,836.7c11.8,0,21.4-9.6,21.4-21.4h-42.7C555.1,827.1,564.7,836.7,576.5,836.7z"/>
		<path class="st3" d="M533.8,836.7c11.8,0,21.4-9.6,21.4-21.4h-42.7C512.4,827.1,522,836.7,533.8,836.7z"/>
		<path class="st3" d="M491.1,836.7c11.8,0,21.4-9.6,21.4-21.4h-42.7C469.7,827.1,479.3,836.7,491.1,836.7z"/>
		<path class="st3" d="M448.4,836.7c11.8,0,21.4-9.6,21.4-21.4H427C427,827.1,436.6,836.7,448.4,836.7z"/>
		<path class="st3" d="M619.2,836.7c11.8,0,21.4-9.6,21.4-21.4h-42.7C597.8,827.1,607.4,836.7,619.2,836.7z"/>
	</g>
	<g>
		<path class="st3" d="M576.5,858c11.8,0,21.4-9.6,21.4-21.4h-42.7C555.1,848.5,564.7,858,576.5,858z"/>
		<path class="st3" d="M533.8,858c11.8,0,21.4-9.6,21.4-21.4h-42.7C512.4,848.5,522,858,533.8,858z"/>
		<path class="st3" d="M491.1,858c11.8,0,21.4-9.6,21.4-21.4h-42.7C469.7,848.5,479.3,858,491.1,858z"/>
		<path class="st3" d="M448.4,858c11.8,0,21.4-9.6,21.4-21.4H427C427,848.5,436.6,858,448.4,858z"/>
		<path class="st3" d="M619.2,858c11.8,0,21.4-9.6,21.4-21.4h-42.7C597.8,848.5,607.4,858,619.2,858z"/>
	</g>
	<g>
		<path class="st3" d="M576.5,879.4c11.8,0,21.4-9.6,21.4-21.4h-42.7C555.1,869.8,564.7,879.4,576.5,879.4z"/>
		<path class="st3" d="M533.8,879.4c11.8,0,21.4-9.6,21.4-21.4h-42.7C512.4,869.8,522,879.4,533.8,879.4z"/>
		<path class="st3" d="M491.1,879.4c11.8,0,21.4-9.6,21.4-21.4h-42.7C469.7,869.8,479.3,879.4,491.1,879.4z"/>
		<path class="st3" d="M448.4,879.4c11.8,0,21.4-9.6,21.4-21.4H427C427,869.8,436.6,879.4,448.4,879.4z"/>
		<path class="st3" d="M619.2,879.4c11.8,0,21.4-9.6,21.4-21.4h-42.7C597.8,869.8,607.4,879.4,619.2,879.4z"/>
	</g>
</g>
<g>
</g>
<g>
</g>
<g>
</g>
<g>
</g>
<g>
</g>
<g>
</g>
<g>
</g>
<g>
</g>
<g>
</g>
<g>
</g>
<g>
</g>
<g>
</g>
<g>
</g>
<g>
</g>
<g>
</g>
</svg>
