<?xml version="1.0" encoding="utf-8"?>
<!-- Generator: Adobe Illustrator 26.0.0, SVG Export Plug-In . SVG Version: 6.00 Build 0)  -->
<svg version="1.1" id="Layer_1" xmlns="http://www.w3.org/2000/svg" xmlns:xlink="http://www.w3.org/1999/xlink" x="0px" y="0px"
	 viewBox="0 0 1920 1080" style="enable-background:new 0 0 1920 1080;" xml:space="preserve">
<style type="text/css">
	.st0{fill:#A6C7FF;}
	.st1{fill:#FFFFFF;}
	.st2{fill:#0049EC;}
	.st3{fill:#1B006B;}
	.st4{fill:#100077;stroke:#0049EC;stroke-linecap:round;stroke-linejoin:round;stroke-miterlimit:10;}
	.st5{fill:#FFFFFF;stroke:#0049EC;stroke-linecap:round;stroke-linejoin:round;stroke-miterlimit:10;}
	.st6{fill:#130061;stroke:#0049EC;stroke-linecap:round;stroke-linejoin:round;stroke-miterlimit:10;}
	.st7{fill:#290091;}
	.st8{fill:none;stroke:#FFFFFF;stroke-width:2;stroke-linecap:round;stroke-linejoin:round;stroke-miterlimit:10;}
	.st9{fill:#100077;stroke:#0049EC;stroke-width:2;stroke-linecap:round;stroke-linejoin:round;stroke-miterlimit:10;}
	.st10{fill:#DFEBFF;}
	.st11{fill:#000FB9;}
	.st12{fill:#22006E;}
	.st13{fill:#FFFFFF;stroke:#0049EC;stroke-width:3;stroke-linejoin:round;stroke-miterlimit:10;}
	.st14{fill:none;stroke:#0049EC;stroke-width:2;stroke-linejoin:round;stroke-miterlimit:10;}
</style>
<rect x="0" y="-77.1" class="st0" width="1927" height="1157.1"/>
<g>
	<path class="st0" d="M480,384.2v233c64.3,0,116.5-52.1,116.5-116.5S544.3,384.2,480,384.2z"/>
	<g>
		<g>
			<g>
				<polygon class="st1" points="1163.8,617.2 1163.8,528.2 1185.2,471.5 1206.5,528.2 1206.5,617.2 				"/>
				<path class="st2" d="M1185.2,472.9l20.9,55.4v88.3h-41.8v-88.3L1185.2,472.9 M1185.2,470l-21.9,58.1v89.5h43.8v-89.5L1185.2,470
					L1185.2,470z"/>
			</g>
			<polygon class="st3" points="1185.2,470 1207,528.1 1238.1,528.1 1216.2,470 			"/>
			<rect x="1207" y="528.1" class="st3" width="31" height="89.5"/>
			<g id="XMLID_00000054252650308650555740000009929449664014952381_">
				<g>
					<path class="st4" d="M1197,535.3v29.6h-13.1v-29.6c0.2-5.9,2.7-11.2,6.5-15.1C1194.4,524.1,1196.8,529.4,1197,535.3z"/>
					<path class="st5" d="M1190.5,520.2c-3.9,3.9-6.4,9.2-6.5,15.1c-0.2-5.9-2.7-11.2-6.5-15.1c1.9-1.9,4.1-3.4,6.5-4.6
						C1186.4,516.8,1188.6,518.3,1190.5,520.2z"/>
					<path class="st4" d="M1183.9,535.3v29.6h-13.1v-29.6c0.2-5.9,2.7-11.2,6.5-15.1C1181.3,524.1,1183.7,529.4,1183.9,535.3z"/>
				</g>
			</g>
			<rect x="1170.8" y="594.2" class="st6" width="7.9" height="22.7"/>
		</g>
		<g>
			<path class="st3" d="M1423,476.4c-6.4-9.4-17-14.9-28.3-14.9h-30.3v156.2h0h60.5V479.3L1423,476.4z"/>
			<g>
				<path class="st1" d="M1334.6,617.2V479.5l1.9-2.8c6.3-9.2,16.7-14.7,27.9-14.7s21.6,5.5,27.9,14.7l1.9,2.8v137.7H1334.6z"/>
				<g>
					<path class="st2" d="M1364.4,462.5c11,0,21.3,5.4,27.5,14.5l1.8,2.7v137h-58.5v-137l1.8-2.7
						C1343.1,467.9,1353.4,462.5,1364.4,462.5 M1364.4,461.5c-11.3,0-21.9,5.6-28.3,14.9l-2,2.9v138.3h60.5V479.3l-2-2.9
						C1386.3,467.1,1375.7,461.5,1364.4,461.5L1364.4,461.5z"/>
				</g>
			</g>
			<g>
				<g>
					<g>
						<rect x="1341.9" y="488" class="st4" width="10.8" height="26.3"/>
					</g>
					<line class="st4" x1="1342.3" y1="501.2" x2="1352.7" y2="501.2"/>
					<line class="st4" x1="1347.5" y1="514.1" x2="1347.5" y2="488"/>
				</g>
				<g>
					<g>
						<rect x="1358.8" y="488" class="st4" width="10.8" height="26.3"/>
					</g>
					<line class="st4" x1="1359.3" y1="501.2" x2="1369.7" y2="501.2"/>
					<line class="st4" x1="1364.5" y1="514.1" x2="1364.5" y2="488"/>
				</g>
				<g>
					<g>
						<rect x="1377.1" y="488" class="st4" width="10.8" height="26.3"/>
					</g>
					<line class="st4" x1="1377.5" y1="501.2" x2="1387.9" y2="501.2"/>
					<line class="st4" x1="1382.7" y1="514.1" x2="1382.7" y2="488"/>
				</g>
			</g>
			<g>
				<g>
					<g>
						<rect x="1341.9" y="523.7" class="st4" width="10.8" height="26.3"/>
					</g>
					<line class="st4" x1="1342.3" y1="536.9" x2="1352.7" y2="536.9"/>
					<line class="st4" x1="1347.5" y1="549.8" x2="1347.5" y2="523.7"/>
				</g>
				<g>
					<g>
						<rect x="1358.8" y="523.7" class="st4" width="10.8" height="26.3"/>
					</g>
					<line class="st4" x1="1359.3" y1="536.9" x2="1369.7" y2="536.9"/>
					<line class="st4" x1="1364.5" y1="549.8" x2="1364.5" y2="523.7"/>
				</g>
				<g>
					<g>
						<rect x="1377.1" y="523.7" class="st4" width="10.8" height="26.3"/>
					</g>
					<line class="st4" x1="1377.5" y1="536.9" x2="1387.9" y2="536.9"/>
					<line class="st4" x1="1382.7" y1="549.8" x2="1382.7" y2="523.7"/>
				</g>
			</g>
			<g>
				<g>
					<g>
						<rect x="1341.9" y="558.2" class="st4" width="10.8" height="26.3"/>
					</g>
					<line class="st4" x1="1342.3" y1="571.4" x2="1352.7" y2="571.4"/>
					<line class="st4" x1="1347.5" y1="584.3" x2="1347.5" y2="558.2"/>
				</g>
				<g>
					<g>
						<rect x="1358.8" y="558.2" class="st4" width="10.8" height="26.3"/>
					</g>
					<line class="st4" x1="1359.3" y1="571.4" x2="1369.7" y2="571.4"/>
					<line class="st4" x1="1364.5" y1="584.3" x2="1364.5" y2="558.2"/>
				</g>
				<g>
					<g>
						<rect x="1377.1" y="558.2" class="st4" width="10.8" height="26.3"/>
					</g>
					<line class="st4" x1="1377.5" y1="571.4" x2="1387.9" y2="571.4"/>
					<line class="st4" x1="1382.7" y1="584.3" x2="1382.7" y2="558.2"/>
				</g>
			</g>
		</g>
		<g>
			<path class="st3" d="M1307.8,430.6v-11.3v-2.5c-2-2-4.8-3.2-7.9-3.2h-29.7v49.3l-1.7,2.5h-4.5v3h1.7v149.3h4.5h29.7h17.9h16.3
				V469.5L1307.8,430.6z"/>
			<g>
				<path class="st1" d="M1238.5,617.2V470c0-0.3-0.2-0.5-0.5-0.5h-1.2v-3.7h4c0.2,0,0.3-0.1,0.4-0.2l23.5-34.7
					c0.1-0.1,0.1-0.2,0.1-0.3V417c2-1.9,4.6-2.9,7.4-2.9s5.4,1,7.4,2.9v13.6c0,0.1,0,0.2,0.1,0.3l23.5,34.7c0.1,0.1,0.2,0.2,0.4,0.2
					h4v4.2h-1.2c-0.3,0-0.5,0.2-0.5,0.5v146.7H1238.5z"/>
				<path class="st2" d="M1272.3,414.5c2.6,0,5,0.9,6.9,2.7v2.1v11.3c0,0.2,0.1,0.4,0.2,0.6l23.5,34.7c0.2,0.3,0.5,0.4,0.8,0.4h3.5
					v3.2h-0.7c-0.6,0-1,0.4-1,1v146.2h-33.2H1239V470c0-0.6-0.4-1-1-1h-0.7v-2.7h3.5c0.3,0,0.6-0.2,0.8-0.4l23.5-34.7
					c0.1-0.2,0.2-0.4,0.2-0.6v-11.3v-2.1C1267.3,415.5,1269.7,414.5,1272.3,414.5 M1272.3,413.5c-3.1,0-5.9,1.2-7.9,3.2v2.5v11.3
					l-23.5,34.7h-4.5v4.7h1.7v147.6h34.2h34.2V470.5h1.7v-5.2h-4.5l-23.5-34.7v-11.3v-2.5C1278.1,414.8,1275.3,413.5,1272.3,413.5
					L1272.3,413.5z"/>
			</g>
			<g>
				<g>
					<g>
						<g>
							<rect x="1244.6" y="478.2" class="st4" width="10.6" height="25.9"/>
						</g>
						<line class="st4" x1="1245" y1="491.2" x2="1255.2" y2="491.2"/>
						<line class="st4" x1="1250.1" y1="503.9" x2="1250.1" y2="478.2"/>
					</g>
					<g>
						<g>
							<g>
								<rect x="1264.2" y="478.2" class="st4" width="10.6" height="25.9"/>
							</g>
							<line class="st4" x1="1264.6" y1="491.2" x2="1274.8" y2="491.2"/>
							<line class="st4" x1="1269.7" y1="503.9" x2="1269.7" y2="478.2"/>
						</g>
						<g>
							<g>
								<rect x="1274.8" y="478.2" class="st4" width="5.5" height="25.9"/>
							</g>
							<line class="st4" x1="1275" y1="491.2" x2="1280.3" y2="491.2"/>
						</g>
					</g>
					<g>
						<g>
							<rect x="1289.3" y="478.2" class="st4" width="10.6" height="25.9"/>
						</g>
						<line class="st4" x1="1289.7" y1="491.2" x2="1299.9" y2="491.2"/>
						<line class="st4" x1="1294.8" y1="503.9" x2="1294.8" y2="478.2"/>
					</g>
				</g>
				<g>
					<g>
						<g>
							<rect x="1244.6" y="511.6" class="st4" width="10.6" height="25.9"/>
						</g>
						<line class="st4" x1="1245" y1="524.6" x2="1255.2" y2="524.6"/>
						<line class="st4" x1="1250.1" y1="537.3" x2="1250.1" y2="511.6"/>
					</g>
					<g>
						<g>
							<g>
								<rect x="1264.2" y="511.6" class="st4" width="10.6" height="25.9"/>
							</g>
							<line class="st4" x1="1264.6" y1="524.6" x2="1274.8" y2="524.6"/>
							<line class="st4" x1="1269.7" y1="537.3" x2="1269.7" y2="511.6"/>
						</g>
						<g>
							<g>
								<rect x="1274.8" y="511.6" class="st4" width="5.5" height="25.9"/>
							</g>
							<line class="st4" x1="1275" y1="524.6" x2="1280.3" y2="524.6"/>
						</g>
					</g>
					<g>
						<g>
							<rect x="1289.3" y="511.6" class="st4" width="10.6" height="25.9"/>
						</g>
						<line class="st4" x1="1289.7" y1="524.6" x2="1299.9" y2="524.6"/>
						<line class="st4" x1="1294.8" y1="537.3" x2="1294.8" y2="511.6"/>
					</g>
				</g>
				<g>
					<g>
						<g>
							<rect x="1244.6" y="545" class="st4" width="10.6" height="25.9"/>
						</g>
						<line class="st4" x1="1245" y1="558" x2="1255.2" y2="558"/>
						<line class="st4" x1="1250.1" y1="570.7" x2="1250.1" y2="545"/>
					</g>
					<g>
						<g>
							<g>
								<rect x="1264.2" y="545" class="st4" width="10.6" height="25.9"/>
							</g>
							<line class="st4" x1="1264.6" y1="558" x2="1274.8" y2="558"/>
							<line class="st4" x1="1269.7" y1="570.7" x2="1269.7" y2="545"/>
						</g>
						<g>
							<g>
								<rect x="1274.8" y="545" class="st4" width="5.5" height="25.9"/>
							</g>
							<line class="st4" x1="1275" y1="558" x2="1280.3" y2="558"/>
						</g>
					</g>
					<g>
						<g>
							<rect x="1289.3" y="545" class="st4" width="10.6" height="25.9"/>
						</g>
						<line class="st4" x1="1289.7" y1="558" x2="1299.9" y2="558"/>
						<line class="st4" x1="1294.8" y1="570.7" x2="1294.8" y2="545"/>
					</g>
				</g>
				<g>
					<g>
						<g>
							<rect x="1244.6" y="578.4" class="st4" width="10.6" height="25.9"/>
						</g>
						<line class="st4" x1="1245" y1="591.4" x2="1255.2" y2="591.4"/>
						<line class="st4" x1="1250.1" y1="604.1" x2="1250.1" y2="578.4"/>
					</g>
					<g>
						<g>
							<g>
								<rect x="1264.2" y="578.4" class="st4" width="10.6" height="25.9"/>
							</g>
							<line class="st4" x1="1264.6" y1="591.4" x2="1274.8" y2="591.4"/>
							<line class="st4" x1="1269.7" y1="604.1" x2="1269.7" y2="578.4"/>
						</g>
						<g>
							<g>
								<rect x="1274.8" y="578.4" class="st4" width="5.5" height="25.9"/>
							</g>
							<line class="st4" x1="1275" y1="591.4" x2="1280.3" y2="591.4"/>
						</g>
					</g>
					<g>
						<g>
							<rect x="1289.3" y="578.4" class="st4" width="10.6" height="25.9"/>
						</g>
						<line class="st4" x1="1289.7" y1="591.4" x2="1299.9" y2="591.4"/>
						<line class="st4" x1="1294.8" y1="604.1" x2="1294.8" y2="578.4"/>
					</g>
				</g>
				<rect x="1265" y="448.5" class="st4" width="14.6" height="18.5"/>
			</g>
			<path d="M1265.7,617.7"/>
		</g>
	</g>
	<g>
		<g>
			<g>
				<polygon class="st1" points="755.9,617.2 755.9,528.2 777.3,471.5 798.7,528.2 798.7,617.2 				"/>
				<path class="st2" d="M777.3,472.9l20.9,55.4v88.3h-41.8v-88.3L777.3,472.9 M777.3,470l-21.9,58.1v89.5h43.8v-89.5L777.3,470
					L777.3,470z"/>
			</g>
			<polygon class="st3" points="777.3,470 755.4,528.1 724.4,528.1 746.2,470 			"/>
			<rect x="724.4" y="528.1" class="st3" width="31" height="89.5"/>
			<g id="XMLID_00000100369871656266312630000012890910107100603055_">
				<g>
					<path class="st4" d="M765.4,535.3v29.6h13.1v-29.6c-0.2-5.9-2.7-11.2-6.5-15.1C768.1,524.1,765.6,529.4,765.4,535.3z"/>
					<path class="st5" d="M772,520.2c3.9,3.9,6.4,9.2,6.5,15.1c0.2-5.9,2.7-11.2,6.5-15.1c-1.9-1.9-4.1-3.4-6.5-4.6
						C776.1,516.8,773.8,518.3,772,520.2z"/>
					<path class="st4" d="M778.5,535.3v29.6h13.1v-29.6c-0.2-5.9-2.7-11.2-6.5-15.1C781.2,524.1,778.7,529.4,778.5,535.3z"/>
				</g>
			</g>
			
				<rect x="783.7" y="594.2" transform="matrix(-1 -4.470436e-11 4.470436e-11 -1 1575.2737 1211.162)" class="st6" width="7.9" height="22.7"/>
		</g>
		<g>
			<path class="st3" d="M539.5,476.4c6.4-9.4,17-14.9,28.3-14.9H598v156.2h0h-60.5V479.3L539.5,476.4z"/>
			<g>
				<path class="st1" d="M568.2,617.2V479.5l1.9-2.8c6.3-9.2,16.7-14.7,27.9-14.7c11.2,0,21.6,5.5,27.9,14.7l1.9,2.8v137.7H568.2z"
					/>
				<g>
					<path class="st2" d="M598,462.5c11,0,21.3,5.4,27.5,14.5l1.8,2.7v137h-58.5v-137l1.8-2.7C576.8,467.9,587,462.5,598,462.5
						 M598,461.5c-11.3,0-21.9,5.6-28.3,14.9l-2,2.9v138.3h60.5V479.3l-2-2.9C619.9,467.1,609.3,461.5,598,461.5L598,461.5z"/>
				</g>
			</g>
			<g>
				<g>
					<g>
						
							<rect x="609.7" y="488" transform="matrix(-1 -4.490465e-11 4.490465e-11 -1 1230.229 1002.3698)" class="st4" width="10.8" height="26.3"/>
					</g>
					<line class="st4" x1="620.1" y1="501.2" x2="609.7" y2="501.2"/>
					<line class="st4" x1="614.9" y1="514.1" x2="614.9" y2="488"/>
				</g>
				<g>
					<g>
						
							<rect x="592.8" y="488" transform="matrix(-1 -4.490465e-11 4.490465e-11 -1 1196.3538 1002.3698)" class="st4" width="10.8" height="26.3"/>
					</g>
					<line class="st4" x1="603.2" y1="501.2" x2="592.8" y2="501.2"/>
					<line class="st4" x1="598" y1="514.1" x2="598" y2="488"/>
				</g>
				<g>
					<g>
						
							<rect x="574.5" y="488" transform="matrix(-1 -4.490465e-11 4.490465e-11 -1 1159.8257 1002.3698)" class="st4" width="10.8" height="26.3"/>
					</g>
					<line class="st4" x1="584.9" y1="501.2" x2="574.5" y2="501.2"/>
					<line class="st4" x1="579.7" y1="514.1" x2="579.7" y2="488"/>
				</g>
			</g>
			<g>
				<g>
					<g>
						
							<rect x="609.7" y="523.7" transform="matrix(-1 -4.473678e-11 4.473678e-11 -1 1230.229 1073.7935)" class="st4" width="10.8" height="26.3"/>
					</g>
					<line class="st4" x1="620.1" y1="536.9" x2="609.7" y2="536.9"/>
					<line class="st4" x1="614.9" y1="549.8" x2="614.9" y2="523.7"/>
				</g>
				<g>
					<g>
						
							<rect x="592.8" y="523.7" transform="matrix(-1 -4.473678e-11 4.473678e-11 -1 1196.3538 1073.7935)" class="st4" width="10.8" height="26.3"/>
					</g>
					<line class="st4" x1="603.2" y1="536.9" x2="592.8" y2="536.9"/>
					<line class="st4" x1="598" y1="549.8" x2="598" y2="523.7"/>
				</g>
				<g>
					<g>
						
							<rect x="574.5" y="523.7" transform="matrix(-1 -4.507296e-11 4.507296e-11 -1 1159.8257 1073.7935)" class="st4" width="10.8" height="26.3"/>
					</g>
					<line class="st4" x1="584.9" y1="536.9" x2="574.5" y2="536.9"/>
					<line class="st4" x1="579.7" y1="549.8" x2="579.7" y2="523.7"/>
				</g>
			</g>
			<g>
				<g>
					<g>
						
							<rect x="609.7" y="558.2" transform="matrix(-1 -4.507296e-11 4.507296e-11 -1 1230.229 1142.7683)" class="st4" width="10.8" height="26.3"/>
					</g>
					<line class="st4" x1="620.1" y1="571.4" x2="609.7" y2="571.4"/>
					<line class="st4" x1="614.9" y1="584.3" x2="614.9" y2="558.2"/>
				</g>
				<g>
					<g>
						
							<rect x="592.8" y="558.2" transform="matrix(-1 -4.507296e-11 4.507296e-11 -1 1196.3538 1142.7683)" class="st4" width="10.8" height="26.3"/>
					</g>
					<line class="st4" x1="603.2" y1="571.4" x2="592.8" y2="571.4"/>
					<line class="st4" x1="598" y1="584.3" x2="598" y2="558.2"/>
				</g>
				<g>
					<g>
						
							<rect x="574.5" y="558.2" transform="matrix(-1 -4.473678e-11 4.473678e-11 -1 1159.8257 1142.7683)" class="st4" width="10.8" height="26.3"/>
					</g>
					<line class="st4" x1="584.9" y1="571.4" x2="574.5" y2="571.4"/>
					<line class="st4" x1="579.7" y1="584.3" x2="579.7" y2="558.2"/>
				</g>
			</g>
		</g>
		<g>
			<path class="st3" d="M654.6,430.6v-11.3v-2.5c2-2,4.8-3.2,7.9-3.2h29.7v49.3l1.7,2.5h4.5v3h-1.7v149.3h-4.5h-29.7h-17.9h-16.3
				V469.5L654.6,430.6z"/>
			<g>
				<path class="st1" d="M656.4,617.2V470.5c0-0.3-0.2-0.5-0.5-0.5h-1.2v-4.2h4c0.2,0,0.3-0.1,0.4-0.2l23.5-34.7
					c0.1-0.1,0.1-0.2,0.1-0.3V417c2-1.9,4.6-2.9,7.4-2.9s5.4,1,7.4,2.9v13.6c0,0.1,0,0.2,0.1,0.3l23.5,34.7c0.1,0.1,0.2,0.2,0.4,0.2
					h4v3.7h-1.2c-0.3,0-0.5,0.2-0.5,0.5v147.1H656.4z"/>
				<path class="st2" d="M690.2,414.5c2.6,0,5,0.9,6.9,2.7v2.1v11.3c0,0.2,0.1,0.4,0.2,0.6l23.5,34.7c0.2,0.3,0.5,0.4,0.8,0.4h3.5
					v2.7h-0.7c-0.6,0-1,0.4-1,1v146.6h-33.2h-33.2V470.5c0-0.6-0.4-1-1-1h-0.7v-3.2h3.5c0.3,0,0.6-0.2,0.8-0.4l23.5-34.7
					c0.1-0.2,0.2-0.4,0.2-0.6v-11.3v-2.1C685.2,415.5,687.6,414.5,690.2,414.5 M690.2,413.5c-3.1,0-5.9,1.2-7.9,3.2v2.5v11.3
					l-23.5,34.7h-4.5v5.2h1.7v147.2h34.2h34.2V470h1.7v-4.7h-4.5l-23.5-34.7v-11.3v-2.5C696,414.8,693.2,413.5,690.2,413.5
					L690.2,413.5z"/>
			</g>
			<g>
				<g>
					<g>
						<g>
							
								<rect x="707.2" y="478.2" transform="matrix(-1 -4.495216e-11 4.495216e-11 -1 1425.0189 982.3178)" class="st4" width="10.6" height="25.9"/>
						</g>
						<line class="st4" x1="717.4" y1="491.2" x2="707.2" y2="491.2"/>
						<line class="st4" x1="712.3" y1="503.9" x2="712.3" y2="478.2"/>
					</g>
					<g>
						<g>
							<g>
								
									<rect x="687.6" y="478.2" transform="matrix(-1 -4.486690e-11 4.486690e-11 -1 1385.8645 982.3178)" class="st4" width="10.6" height="25.9"/>
							</g>
							<line class="st4" x1="697.9" y1="491.2" x2="687.6" y2="491.2"/>
							<line class="st4" x1="692.7" y1="503.9" x2="692.7" y2="478.2"/>
						</g>
						<g>
							<g>
								
									<rect x="682.1" y="478.2" transform="matrix(-1 -4.495616e-11 4.495616e-11 -1 1369.6992 982.3178)" class="st4" width="5.5" height="25.9"/>
							</g>
							<line class="st4" x1="687.4" y1="491.2" x2="682.1" y2="491.2"/>
						</g>
					</g>
					<g>
						<g>
							
								<rect x="662.5" y="478.2" transform="matrix(-1 -4.486690e-11 4.486690e-11 -1 1335.6641 982.3178)" class="st4" width="10.6" height="25.9"/>
						</g>
						<line class="st4" x1="672.8" y1="491.2" x2="662.5" y2="491.2"/>
						<line class="st4" x1="667.6" y1="503.9" x2="667.6" y2="478.2"/>
					</g>
				</g>
				<g>
					<g>
						<g>
							
								<rect x="707.2" y="511.6" transform="matrix(-1 -4.495216e-11 4.495216e-11 -1 1425.0189 1049.1317)" class="st4" width="10.6" height="25.9"/>
						</g>
						<line class="st4" x1="717.4" y1="524.6" x2="707.2" y2="524.6"/>
						<line class="st4" x1="712.3" y1="537.3" x2="712.3" y2="511.6"/>
					</g>
					<g>
						<g>
							<g>
								
									<rect x="687.6" y="511.6" transform="matrix(-1 -4.486690e-11 4.486690e-11 -1 1385.8645 1049.1317)" class="st4" width="10.6" height="25.9"/>
							</g>
							<line class="st4" x1="697.9" y1="524.6" x2="687.6" y2="524.6"/>
							<line class="st4" x1="692.7" y1="537.3" x2="692.7" y2="511.6"/>
						</g>
						<g>
							<g>
								
									<rect x="682.1" y="511.6" transform="matrix(-1 -4.495616e-11 4.495616e-11 -1 1369.6992 1049.1317)" class="st4" width="5.5" height="25.9"/>
							</g>
							<line class="st4" x1="687.4" y1="524.6" x2="682.1" y2="524.6"/>
						</g>
					</g>
					<g>
						<g>
							
								<rect x="662.5" y="511.6" transform="matrix(-1 -4.486690e-11 4.486690e-11 -1 1335.6641 1049.1317)" class="st4" width="10.6" height="25.9"/>
						</g>
						<line class="st4" x1="672.8" y1="524.6" x2="662.5" y2="524.6"/>
						<line class="st4" x1="667.6" y1="537.3" x2="667.6" y2="511.6"/>
					</g>
				</g>
				<g>
					<g>
						<g>
							
								<rect x="707.2" y="545" transform="matrix(-1 -4.478163e-11 4.478163e-11 -1 1425.0189 1115.9457)" class="st4" width="10.6" height="25.9"/>
						</g>
						<line class="st4" x1="717.4" y1="558" x2="707.2" y2="558"/>
						<line class="st4" x1="712.3" y1="570.7" x2="712.3" y2="545"/>
					</g>
					<g>
						<g>
							<g>
								
									<rect x="687.6" y="545" transform="matrix(-1 -4.512314e-11 4.512314e-11 -1 1385.8645 1115.9457)" class="st4" width="10.6" height="25.9"/>
							</g>
							<line class="st4" x1="697.9" y1="558" x2="687.6" y2="558"/>
							<line class="st4" x1="692.7" y1="570.7" x2="692.7" y2="545"/>
						</g>
						<g>
							<g>
								
									<rect x="682.1" y="545" transform="matrix(-1 -4.479140e-11 4.479140e-11 -1 1369.6992 1115.9457)" class="st4" width="5.5" height="25.9"/>
							</g>
							<line class="st4" x1="687.4" y1="558" x2="682.1" y2="558"/>
						</g>
					</g>
					<g>
						<g>
							
								<rect x="662.5" y="545" transform="matrix(-1 -4.478163e-11 4.478163e-11 -1 1335.6641 1115.9457)" class="st4" width="10.6" height="25.9"/>
						</g>
						<line class="st4" x1="672.8" y1="558" x2="662.5" y2="558"/>
						<line class="st4" x1="667.6" y1="570.7" x2="667.6" y2="545"/>
					</g>
				</g>
				<g>
					<g>
						<g>
							
								<rect x="707.2" y="578.4" transform="matrix(-1 -4.512314e-11 4.512314e-11 -1 1425.0189 1182.7595)" class="st4" width="10.6" height="25.9"/>
						</g>
						<line class="st4" x1="717.4" y1="591.4" x2="707.2" y2="591.4"/>
						<line class="st4" x1="712.3" y1="604.1" x2="712.3" y2="578.4"/>
					</g>
					<g>
						<g>
							<g>
								
									<rect x="687.6" y="578.4" transform="matrix(-1 -4.478163e-11 4.478163e-11 -1 1385.8645 1182.7595)" class="st4" width="10.6" height="25.9"/>
							</g>
							<line class="st4" x1="697.9" y1="591.4" x2="687.6" y2="591.4"/>
							<line class="st4" x1="692.7" y1="604.1" x2="692.7" y2="578.4"/>
						</g>
						<g>
							<g>
								
									<rect x="682.1" y="578.4" transform="matrix(-1 -4.479140e-11 4.479140e-11 -1 1369.6992 1182.7595)" class="st4" width="5.5" height="25.9"/>
							</g>
							<line class="st4" x1="687.4" y1="591.4" x2="682.1" y2="591.4"/>
						</g>
					</g>
					<g>
						<g>
							
								<rect x="662.5" y="578.4" transform="matrix(-1 -4.478163e-11 4.478163e-11 -1 1335.6641 1182.7595)" class="st4" width="10.6" height="25.9"/>
						</g>
						<line class="st4" x1="672.8" y1="591.4" x2="662.5" y2="591.4"/>
						<line class="st4" x1="667.6" y1="604.1" x2="667.6" y2="578.4"/>
					</g>
				</g>
				
					<rect x="682.9" y="448.5" transform="matrix(-1 -4.487223e-11 4.487223e-11 -1 1380.3414 915.5039)" class="st4" width="14.6" height="18.5"/>
			</g>
			<path d="M696.7,617.7"/>
		</g>
	</g>
	<path class="st1" d="M994.9,548.4c-9.1-0.4-18.2-0.4-27.3,0l-168.4,7.3v62h51.6l0,0c0-16.8,12.6-30.7,28.9-32.6h0c0,0,0,0,0,0
		c1.3-0.2,2.6-0.3,4-0.3c0,0,0,0,0,0c0,0,0,0,0,0l0,0c11.1,0,20.9,5.5,26.9,14c0.1,0.2,0.3,0.3,0.4,0.5c0,0,0,0,0,0
		c0.8,1.2,1.5,2.4,2.1,3.7c0.2,0.3,0.3,0.6,0.5,1c1.2,2.6,2.1,5.3,2.5,8.2c0.1,0.4,0.1,0.7,0.2,1.1c0.2,1.5,0.3,3,0.3,4.5h13.2
		c0-26.3,19.8-48,45.2-51v0c0,0,0,0,0,0c0.7-0.1,1.4-0.1,2.1-0.2c1.4-0.1,2.7-0.2,4.1-0.2c0,0,0,0,0,0l0,0
		c14.1,0,26.9,5.7,36.2,14.9c0.1,0.1,0.1,0.1,0.2,0.2v0c2.2,2.2,4.1,4.5,5.8,7c0.1,0.2,0.3,0.4,0.4,0.6c0.8,1.2,1.6,2.5,2.3,3.8
		c0.2,0.4,0.4,0.8,0.6,1.2c0.5,1,1,2,1.4,3c0.2,0.4,0.4,0.8,0.5,1.2c0.6,1.4,1.1,2.8,1.5,4.2c0,0,0,0.1,0,0.1
		c0.4,1.4,0.8,2.9,1.1,4.4c0.1,0.5,0.2,0.9,0.3,1.4c0.2,1.1,0.4,2.2,0.5,3.3c0.1,0.5,0.1,1,0.2,1.4c0.1,1.5,0.2,3.1,0.2,4.6
		c0,0,0,0.1,0,0.1h13.2c0-16.8,12.6-30.7,28.9-32.6l0,0l0,0c1.3-0.2,2.6-0.3,4-0.3c0,0,0,0,0,0l0,0l0,0c11.1,0,21,5.5,26.9,14
		c0.1,0.2,0.3,0.3,0.4,0.5c0,0,0,0,0,0c0.8,1.2,1.5,2.4,2.1,3.7c0.2,0.3,0.3,0.6,0.5,1c1.2,2.6,2.1,5.3,2.5,8.2
		c0.1,0.4,0.1,0.7,0.2,1.1c0.2,1.5,0.3,3,0.3,4.5l0,0h51.6v-62L994.9,548.4z"/>
	<rect x="182.3" y="616.5" class="st1" width="413.2" height="231.7"/>
	<path class="st0" d="M364.4,847.4l0-230.9c-63.8,0-115.4,51.7-115.4,115.4C248.9,795.7,300.6,847.4,364.4,847.4z"/>
	<path class="st2" d="M364.1,616.5v230.9c63.8,0,115.4-51.7,115.4-115.4S427.9,616.5,364.1,616.5z"/>
	<path class="st0" d="M133.2,616.5v230.9c63.8,0,115.4-51.7,115.4-115.4S196.9,616.5,133.2,616.5z"/>
	<rect x="595.5" y="616.3" class="st1" width="364.5" height="231.8"/>
	
		<rect x="0" y="384.8" transform="matrix(-1 -1.224647e-16 1.224647e-16 -1 364.1119 1001.2952)" class="st0" width="364.1" height="231.8"/>
	<rect x="0" y="848.3" class="st1" width="364.1" height="231.7"/>
	<rect x="960" y="848.2" class="st2" width="231.8" height="231.8"/>
	<rect x="1191.8" y="848.2" class="st0" width="364.1" height="231.8"/>
	<path class="st3" d="M1376.6,1080h-184.9V848.2h364.1v52.5C1555.9,999.8,1475.6,1080,1376.6,1080z"/>
	<rect x="1555.9" y="848.2" class="st0" width="364.1" height="231.8"/>
	<g>
		<g>
			<g>
				<path class="st1" d="M1025.9,900.3c-2.5-2.5-6.7-2.5-9.2,0c-2.5,2.5-2.5,6.7,0,9.2s6.7,2.5,9.2,0
					C1028.4,906.9,1028.4,902.8,1025.9,900.3z"/>
				<path class="st1" d="M1025.9,929.9c-2.5-2.5-6.7-2.5-9.2,0c-2.5,2.5-2.5,6.7,0,9.2s6.7,2.5,9.2,0
					C1028.4,936.6,1028.4,932.4,1025.9,929.9z"/>
				<path class="st1" d="M1025.9,959.5c-2.5-2.5-6.7-2.5-9.2,0c-2.5,2.5-2.5,6.7,0,9.2s6.7,2.5,9.2,0
					C1028.4,966.2,1028.4,962.1,1025.9,959.5z"/>
				<path class="st1" d="M1025.9,989.1c-2.5-2.5-6.7-2.5-9.2,0c-2.5,2.5-2.5,6.7,0,9.2s6.7,2.5,9.2,0
					C1028.4,995.8,1028.4,991.7,1025.9,989.1z"/>
				<path class="st1" d="M1025.9,1018.8c-2.5-2.5-6.7-2.5-9.2,0c-2.5,2.5-2.5,6.7,0,9.2c2.5,2.5,6.7,2.5,9.2,0
					C1028.4,1025.4,1028.4,1021.3,1025.9,1018.8z"/>
			</g>
		</g>
		<g>
			<g>
				<path class="st1" d="M1062.3,900.3c-2.5-2.5-6.7-2.5-9.2,0c-2.5,2.5-2.5,6.7,0,9.2c2.5,2.5,6.7,2.5,9.2,0
					C1064.8,906.9,1064.8,902.8,1062.3,900.3z"/>
				<path class="st1" d="M1062.3,929.9c-2.5-2.5-6.7-2.5-9.2,0c-2.5,2.5-2.5,6.7,0,9.2c2.5,2.5,6.7,2.5,9.2,0
					C1064.8,936.6,1064.8,932.4,1062.3,929.9z"/>
				<path class="st1" d="M1062.3,959.5c-2.5-2.5-6.7-2.5-9.2,0c-2.5,2.5-2.5,6.7,0,9.2c2.5,2.5,6.7,2.5,9.2,0
					C1064.8,966.2,1064.8,962.1,1062.3,959.5z"/>
				<path class="st1" d="M1062.3,989.1c-2.5-2.5-6.7-2.5-9.2,0c-2.5,2.5-2.5,6.7,0,9.2c2.5,2.5,6.7,2.5,9.2,0
					C1064.8,995.8,1064.8,991.7,1062.3,989.1z"/>
				<path class="st1" d="M1062.3,1018.8c-2.5-2.5-6.7-2.5-9.2,0c-2.5,2.5-2.5,6.7,0,9.2c2.5,2.5,6.7,2.5,9.2,0
					C1064.8,1025.4,1064.8,1021.3,1062.3,1018.8z"/>
			</g>
		</g>
		<g>
			<g>
				<path class="st1" d="M1098.7,900.3c-2.5-2.5-6.7-2.5-9.2,0c-2.5,2.5-2.5,6.7,0,9.2c2.5,2.5,6.7,2.5,9.2,0
					C1101.2,906.9,1101.2,902.8,1098.7,900.3z"/>
				<path class="st1" d="M1098.7,929.9c-2.5-2.5-6.7-2.5-9.2,0c-2.5,2.5-2.5,6.7,0,9.2c2.5,2.5,6.7,2.5,9.2,0
					C1101.2,936.6,1101.2,932.4,1098.7,929.9z"/>
				<path class="st1" d="M1098.7,959.5c-2.5-2.5-6.7-2.5-9.2,0c-2.5,2.5-2.5,6.7,0,9.2c2.5,2.5,6.7,2.5,9.2,0
					C1101.2,966.2,1101.2,962.1,1098.7,959.5z"/>
				<path class="st1" d="M1098.7,989.1c-2.5-2.5-6.7-2.5-9.2,0c-2.5,2.5-2.5,6.7,0,9.2c2.5,2.5,6.7,2.5,9.2,0
					C1101.2,995.8,1101.2,991.7,1098.7,989.1z"/>
				<path class="st1" d="M1098.7,1018.8c-2.5-2.5-6.7-2.5-9.2,0c-2.5,2.5-2.5,6.7,0,9.2c2.5,2.5,6.7,2.5,9.2,0
					C1101.2,1025.4,1101.2,1021.3,1098.7,1018.8z"/>
			</g>
		</g>
		<g>
			<g>
				<path class="st1" d="M1135.1,900.3c-2.5-2.5-6.7-2.5-9.2,0c-2.5,2.5-2.5,6.7,0,9.2c2.5,2.5,6.7,2.5,9.2,0
					C1137.6,906.9,1137.6,902.8,1135.1,900.3z"/>
				<path class="st1" d="M1135.1,929.9c-2.5-2.5-6.7-2.5-9.2,0c-2.5,2.5-2.5,6.7,0,9.2c2.5,2.5,6.7,2.5,9.2,0
					C1137.6,936.6,1137.6,932.4,1135.1,929.9z"/>
				<path class="st1" d="M1135.1,959.5c-2.5-2.5-6.7-2.5-9.2,0c-2.5,2.5-2.5,6.7,0,9.2c2.5,2.5,6.7,2.5,9.2,0
					C1137.6,966.2,1137.6,962.1,1135.1,959.5z"/>
				<path class="st1" d="M1135.1,989.1c-2.5-2.5-6.7-2.5-9.2,0c-2.5,2.5-2.5,6.7,0,9.2c2.5,2.5,6.7,2.5,9.2,0
					C1137.6,995.8,1137.6,991.7,1135.1,989.1z"/>
				<path class="st1" d="M1135.1,1018.8c-2.5-2.5-6.7-2.5-9.2,0c-2.5,2.5-2.5,6.7,0,9.2c2.5,2.5,6.7,2.5,9.2,0
					C1137.6,1025.4,1137.6,1021.3,1135.1,1018.8z"/>
			</g>
		</g>
	</g>
	
		<rect x="619.7" y="-361.1" transform="matrix(-1 -1.224647e-16 1.224647e-16 -1 1487.6444 -490.3971)" class="st1" width="248.2" height="231.8"/>
	<rect x="0" y="616.5" class="st2" width="231.8" height="231.8"/>
	
		<rect x="728.2" y="848.2" transform="matrix(-1 -3.464102e-07 3.464102e-07 -1 1688.2235 1928.2627)" class="st0" width="231.8" height="231.8"/>
	
		<rect x="364.1" y="848.2" transform="matrix(-1 -3.464102e-07 3.464102e-07 -1 1092.3353 1928.2626)" class="st2" width="364.1" height="231.8"/>
	
		<rect x="0" y="848.2" transform="matrix(-1 -3.464102e-07 3.464102e-07 -1 364.1116 1928.2622)" class="st0" width="364.1" height="231.8"/>
	<path class="st2" d="M479.6,616.5l0,230.9c63.8,0,115.4-51.7,115.4-115.4S543.3,616.5,479.6,616.5z"/>
	<path class="st2" d="M0,616.8h231.8c0-64-51.9-115.9-115.9-115.9C51.9,500.9,0,552.8,0,616.8z"/>
	<circle class="st1" cx="55.6" cy="753.1" r="31.7"/>
	<g>
		<rect x="840.4" y="880.5" class="st7" width="7.4" height="167.2"/>
		
			<rect x="840.4" y="880.5" transform="matrix(0.7071 -0.7071 0.7071 0.7071 -434.5091 879.2648)" class="st7" width="7.4" height="167.2"/>
		
			<rect x="840.4" y="880.5" transform="matrix(6.123234e-17 -1 1 6.123234e-17 -120.0193 1808.2432)" class="st7" width="7.4" height="167.2"/>
		
			<rect x="840.4" y="880.5" transform="matrix(-0.7071 -0.7071 0.7071 -0.7071 759.2455 2242.7522)" class="st7" width="7.4" height="167.2"/>
	</g>
	<g>
		<path class="st8" d="M190.9,657.7v169.4h-75V657.7c1.1-33.8,15.2-64.2,37.5-86.6C175.7,593.4,189.8,623.9,190.9,657.7z"/>
		<path class="st8" d="M153.4,571.1c-22.3,22.3-36.4,52.8-37.5,86.6c-1.1-33.8-15.2-64.2-37.5-86.6c10.8-10.8,23.5-19.7,37.5-26.2
			C129.9,551.4,142.6,560.3,153.4,571.1z"/>
		<path class="st8" d="M115.9,657.7v169.4h-75V657.7c1.1-33.8,15.2-64.2,37.5-86.6C100.7,593.4,114.8,623.9,115.9,657.7z"/>
	</g>
	<path class="st1" d="M1556.2,964c0-0.3-0.1-0.6-0.1-0.9c-0.4-2.4-1.1-4.7-2.1-6.9c-0.1-0.3-0.3-0.5-0.4-0.8c-0.5-1.1-1.1-2.1-1.8-3
		c0,0,0,0,0,0c-0.1-0.1-0.2-0.3-0.3-0.4c-5-7-13.1-11.7-22.4-11.7c0,0,0,0,0,0c-1.1,0-2.2,0.1-3.3,0.2c-4.7,0.6-9,2.3-12.6,4.9
		c-0.3-0.6-0.7-1.2-1.1-1.7c-0.1-0.2-0.3-0.3-0.4-0.5c-1.5-2.1-3.1-4-4.9-5.8c0,0-0.1-0.1-0.1-0.1c-7.7-7.7-18.4-12.4-30.1-12.4
		c0,0,0,0,0,0c-1.2,0-2.3,0.1-3.4,0.2c-0.6,0-1.2,0.1-1.8,0.2c0,0,0,0,0,0v0c-12.5,1.5-23.4,8.4-30.2,18.3c-3.8-2-8.2-3.2-12.8-3.2
		c0,0,0,0,0,0c0,0,0,0,0,0c-1.1,0-2.2,0.1-3.3,0.2c0,0,0,0,0,0c-13.6,1.6-24.1,13.2-24.1,27.2h32.7h22.1h45.9h17.7h37.1
		C1556.5,966.5,1556.4,965.2,1556.2,964z"/>
	<path class="st1" d="M1346.6,923.2c0-0.2-0.1-0.4-0.1-0.6c-0.3-1.7-0.8-3.4-1.5-4.9c-0.1-0.2-0.2-0.4-0.3-0.6
		c-0.4-0.7-0.8-1.5-1.2-2.2c0,0,0,0,0,0c-0.1-0.1-0.2-0.2-0.2-0.3c-3.5-5-9.4-8.3-16-8.3c0,0,0,0,0,0c-0.8,0-1.6,0.1-2.4,0.2
		c-3.3,0.4-6.4,1.7-9,3.5c-0.2-0.4-0.5-0.8-0.8-1.2c-0.1-0.1-0.2-0.2-0.3-0.4c-1-1.5-2.2-2.9-3.5-4.2c0,0-0.1-0.1-0.1-0.1
		c-5.5-5.5-13.1-8.9-21.5-8.9c0,0,0,0,0,0c-0.8,0-1.6,0.1-2.4,0.1c-0.4,0-0.8,0.1-1.2,0.1c0,0,0,0,0,0v0c-8.9,1.1-16.6,6-21.5,13.1
		c-2.7-1.5-5.8-2.3-9.2-2.3c0,0,0,0,0,0c0,0,0,0,0,0c-0.8,0-1.6,0.1-2.4,0.2c0,0,0,0,0,0c-9.7,1.2-17.2,9.4-17.2,19.4h23.3h15.8
		h32.7h12.6h26.5C1346.8,924.9,1346.7,924.1,1346.6,923.2z"/>
	<g>
		<g>
			<g>
				<polygon class="st1" points="1593.6,1078.9 1593.6,989.9 1614.9,933.2 1636.3,989.9 1636.3,1078.9 				"/>
				<path class="st2" d="M1614.9,934.6l20.9,55.4v88.3h-41.8V990L1614.9,934.6 M1614.9,931.8l-21.9,58.1v89.5h43.8v-89.5
					L1614.9,931.8L1614.9,931.8z"/>
			</g>
			<polygon class="st3" points="1614.9,931.8 1636.8,989.9 1667.9,989.9 1646,931.8 			"/>
			<rect x="1636.8" y="989.9" class="st3" width="31" height="89.5"/>
			<g id="XMLID_00000010297335362449595730000005290916022208400830_">
				<g>
					<path class="st4" d="M1626.8,997v29.6h-13.1V997c0.2-5.9,2.7-11.2,6.5-15.1C1624.1,985.8,1626.6,991.2,1626.8,997z"/>
					<path class="st5" d="M1620.3,981.9c-3.9,3.9-6.4,9.2-6.5,15.1c-0.2-5.9-2.7-11.2-6.5-15.1c1.9-1.9,4.1-3.4,6.5-4.6
						C1616.2,978.5,1618.4,980.1,1620.3,981.9z"/>
					<path class="st4" d="M1613.7,997v29.6h-13.1V997c0.2-5.9,2.7-11.2,6.5-15.1C1611.1,985.8,1613.5,991.2,1613.7,997z"/>
				</g>
			</g>
			<rect x="1600.6" y="1055.9" class="st6" width="7.9" height="22.7"/>
		</g>
		<g>
			<path class="st3" d="M1852.8,938.1c-6.4-9.4-17-14.9-28.3-14.9h-30.3v156.2h0h60.5V941L1852.8,938.1z"/>
			<g>
				<path class="st1" d="M1764.4,1078.9V941.2l1.9-2.8c6.3-9.2,16.7-14.7,27.9-14.7s21.6,5.5,27.9,14.7l1.9,2.8v137.7H1764.4z"/>
				<g>
					<path class="st2" d="M1794.2,924.2c11,0,21.3,5.4,27.5,14.5l1.8,2.7v137h-58.5v-137l1.8-2.7
						C1772.9,929.6,1783.2,924.2,1794.2,924.2 M1794.2,923.2c-11.3,0-21.9,5.6-28.3,14.9l-2,2.9v138.3h60.5V941l-2-2.9
						C1816.1,928.8,1805.5,923.2,1794.2,923.2L1794.2,923.2z"/>
				</g>
			</g>
			<g>
				<g>
					<g>
						<rect x="1771.7" y="949.7" class="st4" width="10.8" height="26.3"/>
					</g>
					<line class="st4" x1="1772.1" y1="962.9" x2="1782.5" y2="962.9"/>
					<line class="st4" x1="1777.3" y1="975.8" x2="1777.3" y2="949.7"/>
				</g>
				<g>
					<g>
						<rect x="1788.6" y="949.7" class="st4" width="10.8" height="26.3"/>
					</g>
					<line class="st4" x1="1789" y1="962.9" x2="1799.4" y2="962.9"/>
					<line class="st4" x1="1794.2" y1="975.8" x2="1794.2" y2="949.7"/>
				</g>
				<g>
					<g>
						<rect x="1806.9" y="949.7" class="st4" width="10.8" height="26.3"/>
					</g>
					<line class="st4" x1="1807.3" y1="962.9" x2="1817.7" y2="962.9"/>
					<line class="st4" x1="1812.5" y1="975.8" x2="1812.5" y2="949.7"/>
				</g>
			</g>
			<g>
				<g>
					<g>
						<rect x="1771.7" y="985.5" class="st4" width="10.8" height="26.3"/>
					</g>
					<line class="st4" x1="1772.1" y1="998.6" x2="1782.5" y2="998.6"/>
					<line class="st4" x1="1777.3" y1="1011.5" x2="1777.3" y2="985.5"/>
				</g>
				<g>
					<g>
						<rect x="1788.6" y="985.5" class="st4" width="10.8" height="26.3"/>
					</g>
					<line class="st4" x1="1789" y1="998.6" x2="1799.4" y2="998.6"/>
					<line class="st4" x1="1794.2" y1="1011.5" x2="1794.2" y2="985.5"/>
				</g>
				<g>
					<g>
						<rect x="1806.9" y="985.5" class="st4" width="10.8" height="26.3"/>
					</g>
					<line class="st4" x1="1807.3" y1="998.6" x2="1817.7" y2="998.6"/>
					<line class="st4" x1="1812.5" y1="1011.5" x2="1812.5" y2="985.5"/>
				</g>
			</g>
			<g>
				<g>
					<g>
						<rect x="1771.7" y="1019.9" class="st4" width="10.8" height="26.3"/>
					</g>
					<line class="st4" x1="1772.1" y1="1033.1" x2="1782.5" y2="1033.1"/>
					<line class="st4" x1="1777.3" y1="1046" x2="1777.3" y2="1019.9"/>
				</g>
				<g>
					<g>
						<rect x="1788.6" y="1019.9" class="st4" width="10.8" height="26.3"/>
					</g>
					<line class="st4" x1="1789" y1="1033.1" x2="1799.4" y2="1033.1"/>
					<line class="st4" x1="1794.2" y1="1046" x2="1794.2" y2="1019.9"/>
				</g>
				<g>
					<g>
						<rect x="1806.9" y="1019.9" class="st4" width="10.8" height="26.3"/>
					</g>
					<line class="st4" x1="1807.3" y1="1033.1" x2="1817.7" y2="1033.1"/>
					<line class="st4" x1="1812.5" y1="1046" x2="1812.5" y2="1019.9"/>
				</g>
			</g>
		</g>
		<g>
			<path class="st3" d="M1737.6,892.3V881v-2.5c-2-2-4.8-3.2-7.9-3.2H1700v49.3l-1.7,2.5h-4.5v3h1.7v149.3h4.5h29.7h17.9h16.3V931.2
				L1737.6,892.3z"/>
			<g>
				<path class="st1" d="M1668.3,1078.9V931.8c0-0.3-0.2-0.5-0.5-0.5h-1.2v-3.7h4c0.2,0,0.3-0.1,0.4-0.2l23.5-34.7
					c0.1-0.1,0.1-0.2,0.1-0.3v-13.6c2-1.9,4.6-2.9,7.4-2.9c2.8,0,5.4,1,7.4,2.9v13.6c0,0.1,0,0.2,0.1,0.3l23.5,34.7
					c0.1,0.1,0.2,0.2,0.4,0.2h4v4.2h-1.2c-0.3,0-0.5,0.2-0.5,0.5v146.7H1668.3z"/>
				<path class="st2" d="M1702,876.3c2.6,0,5,0.9,6.9,2.7v2.1v11.3c0,0.2,0.1,0.4,0.2,0.6l23.5,34.7c0.2,0.3,0.5,0.4,0.8,0.4h3.5
					v3.2h-0.7c-0.6,0-1,0.4-1,1v146.2H1702h-33.2V931.8c0-0.6-0.4-1-1-1h-0.7v-2.7h3.5c0.3,0,0.6-0.2,0.8-0.4l23.5-34.7
					c0.1-0.2,0.2-0.4,0.2-0.6V881v-2.1C1697,877.2,1699.5,876.3,1702,876.3 M1702,875.3c-3.1,0-5.9,1.2-7.9,3.2v2.5v11.3l-23.5,34.7
					h-4.5v4.7h1.7v147.6h34.2h34.2V932.2h1.7v-5.2h-4.5l-23.5-34.7V881v-2.5C1707.9,876.5,1705.1,875.3,1702,875.3L1702,875.3z"/>
			</g>
			<g>
				<g>
					<g>
						<g>
							<rect x="1674.4" y="939.9" class="st4" width="10.6" height="25.9"/>
						</g>
						<line class="st4" x1="1674.8" y1="952.9" x2="1685" y2="952.9"/>
						<line class="st4" x1="1679.9" y1="965.6" x2="1679.9" y2="939.9"/>
					</g>
					<g>
						<g>
							<g>
								<rect x="1694" y="939.9" class="st4" width="10.6" height="25.9"/>
							</g>
							<line class="st4" x1="1694.4" y1="952.9" x2="1704.6" y2="952.9"/>
							<line class="st4" x1="1699.5" y1="965.6" x2="1699.5" y2="939.9"/>
						</g>
						<g>
							<g>
								<rect x="1704.6" y="939.9" class="st4" width="5.5" height="25.9"/>
							</g>
							<line class="st4" x1="1704.8" y1="952.9" x2="1710.1" y2="952.9"/>
						</g>
					</g>
					<g>
						<g>
							<rect x="1719.1" y="939.9" class="st4" width="10.6" height="25.9"/>
						</g>
						<line class="st4" x1="1719.5" y1="952.9" x2="1729.7" y2="952.9"/>
						<line class="st4" x1="1724.6" y1="965.6" x2="1724.6" y2="939.9"/>
					</g>
				</g>
				<g>
					<g>
						<g>
							<rect x="1674.4" y="973.3" class="st4" width="10.6" height="25.9"/>
						</g>
						<line class="st4" x1="1674.8" y1="986.3" x2="1685" y2="986.3"/>
						<line class="st4" x1="1679.9" y1="999" x2="1679.9" y2="973.3"/>
					</g>
					<g>
						<g>
							<g>
								<rect x="1694" y="973.3" class="st4" width="10.6" height="25.9"/>
							</g>
							<line class="st4" x1="1694.4" y1="986.3" x2="1704.6" y2="986.3"/>
							<line class="st4" x1="1699.5" y1="999" x2="1699.5" y2="973.3"/>
						</g>
						<g>
							<g>
								<rect x="1704.6" y="973.3" class="st4" width="5.5" height="25.9"/>
							</g>
							<line class="st4" x1="1704.8" y1="986.3" x2="1710.1" y2="986.3"/>
						</g>
					</g>
					<g>
						<g>
							<rect x="1719.1" y="973.3" class="st4" width="10.6" height="25.9"/>
						</g>
						<line class="st4" x1="1719.5" y1="986.3" x2="1729.7" y2="986.3"/>
						<line class="st4" x1="1724.6" y1="999" x2="1724.6" y2="973.3"/>
					</g>
				</g>
				<g>
					<g>
						<g>
							<rect x="1674.4" y="1006.7" class="st4" width="10.6" height="25.9"/>
						</g>
						<line class="st4" x1="1674.8" y1="1019.7" x2="1685" y2="1019.7"/>
						<line class="st4" x1="1679.9" y1="1032.4" x2="1679.9" y2="1006.7"/>
					</g>
					<g>
						<g>
							<g>
								<rect x="1694" y="1006.7" class="st4" width="10.6" height="25.9"/>
							</g>
							<line class="st4" x1="1694.4" y1="1019.7" x2="1704.6" y2="1019.7"/>
							<line class="st4" x1="1699.5" y1="1032.4" x2="1699.5" y2="1006.7"/>
						</g>
						<g>
							<g>
								<rect x="1704.6" y="1006.7" class="st4" width="5.5" height="25.9"/>
							</g>
							<line class="st4" x1="1704.8" y1="1019.7" x2="1710.1" y2="1019.7"/>
						</g>
					</g>
					<g>
						<g>
							<rect x="1719.1" y="1006.7" class="st4" width="10.6" height="25.9"/>
						</g>
						<line class="st4" x1="1719.5" y1="1019.7" x2="1729.7" y2="1019.7"/>
						<line class="st4" x1="1724.6" y1="1032.4" x2="1724.6" y2="1006.7"/>
					</g>
				</g>
				<g>
					<g>
						<g>
							<rect x="1674.4" y="1040.1" class="st4" width="10.6" height="25.9"/>
						</g>
						<line class="st4" x1="1674.8" y1="1053.1" x2="1685" y2="1053.1"/>
						<line class="st4" x1="1679.9" y1="1065.8" x2="1679.9" y2="1040.1"/>
					</g>
					<g>
						<g>
							<g>
								<rect x="1694" y="1040.1" class="st4" width="10.6" height="25.9"/>
							</g>
							<line class="st4" x1="1694.4" y1="1053.1" x2="1704.6" y2="1053.1"/>
							<line class="st4" x1="1699.5" y1="1065.8" x2="1699.5" y2="1040.1"/>
						</g>
						<g>
							<g>
								<rect x="1704.6" y="1040.1" class="st4" width="5.5" height="25.9"/>
							</g>
							<line class="st4" x1="1704.8" y1="1053.1" x2="1710.1" y2="1053.1"/>
						</g>
					</g>
					<g>
						<g>
							<rect x="1719.1" y="1040.1" class="st4" width="10.6" height="25.9"/>
						</g>
						<line class="st4" x1="1719.5" y1="1053.1" x2="1729.7" y2="1053.1"/>
						<line class="st4" x1="1724.6" y1="1065.8" x2="1724.6" y2="1040.1"/>
					</g>
				</g>
				<rect x="1694.7" y="910.2" class="st4" width="14.6" height="18.5"/>
			</g>
			<path d="M1695.5,1079.4"/>
		</g>
	</g>
	<g>
		<rect x="1321.2" y="1063" class="st2" width="118.8" height="17"/>
		<rect x="1307.9" y="1046.1" class="st2" width="118.8" height="17"/>
		<rect x="1294.5" y="1029.1" class="st2" width="118.8" height="17"/>
		<rect x="1281.2" y="1012.1" class="st2" width="118.8" height="17"/>
	</g>
	<polygon class="st2" points="1313.1,1063 1313.1,1046.1 1299.8,1046.1 1299.8,1029.1 1286.5,1029.1 1286.5,1012.1 1263.5,1012.1 
		1167.7,1012.1 1144.7,1012.1 1144.7,1029.1 1158,1029.1 1158,1046.1 1171.3,1046.1 1171.3,1063 1184.6,1063 1184.6,1080 
		1207.7,1080 1303.5,1080 1326.5,1080 1326.5,1063 	"/>
	
		<rect x="960" y="616.3" transform="matrix(-1 -1.224647e-16 1.224647e-16 -1 2284.1113 1464.4069)" class="st0" width="364.1" height="231.8"/>
	<g>
		<path class="st8" d="M1297.5,712.2v95.6h-42.3v-95.6c0.6-19.1,8.6-36.2,21.2-48.8C1288.9,676,1296.9,693.2,1297.5,712.2z"/>
		<path class="st8" d="M1276.4,663.4c-12.6,12.6-20.5,29.8-21.2,48.8c-0.6-19.1-8.6-36.2-21.1-48.8c6.1-6.1,13.2-11.1,21.2-14.8
			C1263.2,652.2,1270.3,657.3,1276.4,663.4z"/>
		<path class="st8" d="M1255.2,712.2v95.6h-42.3v-95.6c0.6-19.1,8.6-36.2,21.2-48.8C1246.6,676,1254.6,693.2,1255.2,712.2z"/>
	</g>
	<g>
		<path class="st8" d="M1185.7,712.2v95.6h-42.3v-95.6c0.6-19.1,8.6-36.2,21.2-48.8C1177.1,676,1185,693.2,1185.7,712.2z"/>
		<path class="st8" d="M1164.5,663.4c-12.6,12.6-20.5,29.8-21.2,48.8c-0.6-19.1-8.6-36.2-21.1-48.8c6.1-6.1,13.2-11.1,21.2-14.8
			C1151.3,652.2,1158.4,657.3,1164.5,663.4z"/>
		<path class="st8" d="M1143.3,712.2v95.6H1101v-95.6c0.6-19.1,8.6-36.2,21.2-48.8C1134.8,676,1142.7,693.2,1143.3,712.2z"/>
	</g>
	<g>
		<path class="st8" d="M1073.8,712.2v95.6h-42.3v-95.6c0.6-19.1,8.6-36.2,21.2-48.8C1065.2,676,1073.2,693.2,1073.8,712.2z"/>
		<path class="st8" d="M1052.6,663.4c-12.6,12.6-20.5,29.8-21.2,48.8c-0.6-19.1-8.6-36.2-21.1-48.8c6.1-6.1,13.2-11.1,21.2-14.8
			C1039.4,652.2,1046.6,657.3,1052.6,663.4z"/>
		<path class="st8" d="M1031.5,712.2v95.6h-42.3v-95.6c0.6-19.1,8.6-36.2,21.2-48.8C1022.9,676,1030.9,693.2,1031.5,712.2z"/>
	</g>
	
		<rect x="1324.1" y="616.3" transform="matrix(-1 -1.224647e-16 1.224647e-16 -1 3012.3352 1464.4069)" class="st2" width="364.1" height="231.8"/>
	
		<rect x="1440" y="616.3" transform="matrix(-1 -1.224647e-16 1.224647e-16 -1 3128.2231 1464.4069)" class="st1" width="248.2" height="231.8"/>
	<path class="st0" d="M1440,615.7v233c64.3,0,116.5-52.1,116.5-116.5S1504.3,615.7,1440,615.7z"/>
	<path class="st0" d="M1688.2,616.3v0.1c-63.9,0-115.7,51.9-115.7,115.8c0,63.9,51.8,115.8,115.7,115.8v0.1H1920V616.3H1688.2z"/>
	<g>
		<g>
			<rect x="1339.6" y="640.2" class="st9" width="84.9" height="183.6"/>
		</g>
		<line class="st9" x1="1339.6" y1="732" x2="1424.5" y2="732"/>
		<line class="st9" x1="1383.7" y1="822.2" x2="1383.7" y2="640.3"/>
	</g>
	<g>
		<g>
			<path class="st3" d="M1691.7,745.1c-7.1,0-12.9-5.8-12.9-12.9c0-7.1,5.8-12.9,12.9-12.9c7.1,0,12.9,5.8,12.9,12.9
				C1704.5,739.3,1698.8,745.1,1691.7,745.1z M1691.7,721.9c-5.7,0-10.3,4.6-10.3,10.3s4.6,10.3,10.3,10.3c5.7,0,10.3-4.6,10.3-10.3
				S1697.3,721.9,1691.7,721.9z"/>
		</g>
		<g>
			<rect x="1691.7" y="626.6" class="st3" width="228.3" height="2.6"/>
		</g>
		<g>
			<rect x="1691.7" y="638.2" class="st3" width="228.3" height="2.6"/>
		</g>
		<g>
			<g>
				<path class="st3" d="M1691.7,837.8c-58.2,0-105.6-47.4-105.6-105.6c0-58.2,47.4-105.6,105.6-105.6v2.6c-56.8,0-103,46.2-103,103
					c0,56.8,46.2,103,103,103V837.8z"/>
			</g>
			<g>
				<path class="st3" d="M1691.7,826.2c-51.8,0-94-42.2-94-94s42.2-94,94-94v2.6c-50.4,0-91.4,41-91.4,91.4
					c0,50.4,41,91.4,91.4,91.4V826.2z"/>
			</g>
			<g>
				<path class="st3" d="M1691.7,814.6c-45.4,0-82.4-37-82.4-82.4c0-45.4,37-82.4,82.4-82.4v2.6c-44,0-79.8,35.8-79.8,79.8
					c0,44,35.8,79.8,79.8,79.8V814.6z"/>
			</g>
			<g>
				<path class="st3" d="M1691.7,803c-39.1,0-70.8-31.8-70.8-70.8c0-39.1,31.8-70.8,70.8-70.8v2.6c-37.6,0-68.2,30.6-68.2,68.2
					s30.6,68.2,68.2,68.2V803z"/>
			</g>
			<g>
				<path class="st3" d="M1691.7,791.4c-32.7,0-59.2-26.6-59.2-59.2c0-32.7,26.6-59.2,59.2-59.2v2.6c-31.2,0-56.7,25.4-56.7,56.7
					s25.4,56.7,56.7,56.7V791.4z"/>
			</g>
			<g>
				<path class="st3" d="M1691.7,779.9c-26.3,0-47.6-21.4-47.6-47.6s21.4-47.6,47.6-47.6v2.6c-24.8,0-45.1,20.2-45.1,45.1
					c0,24.8,20.2,45.1,45.1,45.1V779.9z"/>
			</g>
			<g>
				<path class="st3" d="M1691.7,768.3c-19.9,0-36.1-16.2-36.1-36.1c0-19.9,16.2-36.1,36.1-36.1v2.6c-18.5,0-33.5,15-33.5,33.5
					c0,18.5,15,33.5,33.5,33.5V768.3z"/>
			</g>
			<g>
				<path class="st3" d="M1691.7,756.7c-13.5,0-24.5-11-24.5-24.5c0-13.5,11-24.5,24.5-24.5v2.6c-12.1,0-21.9,9.8-21.9,21.9
					c0,12.1,9.8,21.9,21.9,21.9V756.7z"/>
			</g>
			<g>
				<rect x="1691.7" y="649.8" class="st3" width="228.3" height="2.6"/>
			</g>
			<g>
				<rect x="1691.7" y="661.4" class="st3" width="228.3" height="2.6"/>
			</g>
			<g>
				<rect x="1691.7" y="673" class="st3" width="228.3" height="2.6"/>
			</g>
			<g>
				<rect x="1691.7" y="684.6" class="st3" width="228.3" height="2.6"/>
			</g>
			<g>
				<rect x="1691.7" y="696.1" class="st3" width="228.3" height="2.6"/>
			</g>
			<g>
				<rect x="1691.7" y="707.7" class="st3" width="228.3" height="2.6"/>
			</g>
			<g>
				<rect x="1691.7" y="754.1" class="st3" width="228.3" height="2.6"/>
			</g>
			<g>
				<rect x="1691.7" y="765.7" class="st3" width="228.3" height="2.6"/>
			</g>
			<g>
				<rect x="1691.7" y="777.3" class="st3" width="228.3" height="2.6"/>
			</g>
			<g>
				<rect x="1691.7" y="788.9" class="st3" width="228.3" height="2.6"/>
			</g>
			<g>
				<rect x="1691.7" y="800.4" class="st3" width="228.3" height="2.6"/>
			</g>
			<g>
				<rect x="1691.7" y="812" class="st3" width="228.3" height="2.6"/>
			</g>
			<g>
				<rect x="1691.7" y="823.6" class="st3" width="228.3" height="2.6"/>
			</g>
		</g>
		<g>
			<rect x="1691.7" y="835.2" class="st3" width="228.3" height="2.6"/>
		</g>
	</g>
	<path class="st1" d="M559.8,949.9c-9.1-0.4-18.2-0.4-27.3,0l-168.4,7.3v62h51.6l0,0c0-16.8,12.6-30.7,28.9-32.6h0c0,0,0,0,0,0
		c1.3-0.2,2.6-0.3,4-0.3c0,0,0,0,0,0c0,0,0,0,0,0l0,0c11.1,0,20.9,5.5,26.9,14c0.1,0.2,0.3,0.3,0.4,0.5c0,0,0,0,0,0
		c0.8,1.2,1.5,2.4,2.1,3.7c0.2,0.3,0.3,0.6,0.5,1c1.2,2.6,2.1,5.3,2.5,8.2c0.1,0.4,0.1,0.7,0.2,1.1c0.2,1.5,0.3,3,0.3,4.5h13.2
		c0-26.3,19.8-48,45.2-51v0c0,0,0,0,0,0c0.7-0.1,1.4-0.1,2.1-0.2c1.4-0.1,2.7-0.2,4.1-0.2c0,0,0,0,0,0l0,0
		c14.1,0,26.9,5.7,36.2,14.9c0.1,0.1,0.1,0.1,0.2,0.2v0c2.2,2.2,4.1,4.5,5.8,7c0.1,0.2,0.3,0.4,0.4,0.6c0.8,1.2,1.6,2.5,2.3,3.8
		c0.2,0.4,0.4,0.8,0.6,1.2c0.5,1,1,2,1.4,3c0.2,0.4,0.4,0.8,0.5,1.2c0.6,1.4,1.1,2.8,1.5,4.2c0,0,0,0.1,0,0.1
		c0.4,1.4,0.8,2.9,1.1,4.4c0.1,0.5,0.2,0.9,0.3,1.4c0.2,1.1,0.4,2.2,0.5,3.3c0.1,0.5,0.1,1,0.2,1.4c0.1,1.5,0.2,3.1,0.2,4.6
		c0,0,0,0.1,0,0.1h13.2c0-16.8,12.6-30.7,28.9-32.6l0,0l0,0c1.3-0.2,2.6-0.3,4-0.3c0,0,0,0,0,0l0,0l0,0c11.1,0,21,5.5,26.9,14
		c0.1,0.2,0.3,0.3,0.4,0.5c0,0,0,0,0,0c0.8,1.2,1.5,2.4,2.1,3.7c0.2,0.3,0.3,0.6,0.5,1c1.2,2.6,2.1,5.3,2.5,8.2
		c0.1,0.4,0.1,0.7,0.2,1.1c0.2,1.5,0.3,3,0.3,4.5l0,0h51.6v-62L559.8,949.9z"/>
	<path class="st1" d="M559.8,1010.8c-9.1-0.4-18.2-0.4-27.3,0l-168.4,7.3v62h51.6l0,0c0-16.8,12.6-30.7,28.9-32.6h0c0,0,0,0,0,0
		c1.3-0.2,2.6-0.3,4-0.3c0,0,0,0,0,0c0,0,0,0,0,0l0,0c11.1,0,20.9,5.5,26.9,14c0.1,0.2,0.3,0.3,0.4,0.5c0,0,0,0,0,0
		c0.8,1.2,1.5,2.4,2.1,3.7c0.2,0.3,0.3,0.6,0.5,1c1.2,2.6,2.1,5.3,2.5,8.2c0.1,0.4,0.1,0.7,0.2,1.1c0.2,1.5,0.3,3,0.3,4.5h13.2
		c0-26.3,19.8-48,45.2-51v0c0,0,0,0,0,0c0.7-0.1,1.4-0.1,2.1-0.2c1.4-0.1,2.7-0.2,4.1-0.2c0,0,0,0,0,0l0,0
		c14.1,0,26.9,5.7,36.2,14.9c0.1,0.1,0.1,0.1,0.2,0.2v0c2.2,2.2,4.1,4.5,5.8,7c0.1,0.2,0.3,0.4,0.4,0.6c0.8,1.2,1.6,2.5,2.3,3.8
		c0.2,0.4,0.4,0.8,0.6,1.2c0.5,1,1,2,1.4,3c0.2,0.4,0.4,0.8,0.5,1.2c0.6,1.4,1.1,2.8,1.5,4.2c0,0,0,0.1,0,0.1
		c0.4,1.4,0.8,2.9,1.1,4.4c0.1,0.5,0.2,0.9,0.3,1.4c0.2,1.1,0.4,2.2,0.5,3.3c0.1,0.5,0.1,1,0.2,1.4c0.1,1.5,0.2,3.1,0.2,4.6
		c0,0,0,0.1,0,0.1h13.2c0-16.8,12.6-30.7,28.9-32.6l0,0l0,0c1.3-0.2,2.6-0.3,4-0.3c0,0,0,0,0,0l0,0l0,0c11.1,0,21,5.5,26.9,14
		c0.1,0.2,0.3,0.3,0.4,0.5c0,0,0,0,0,0c0.8,1.2,1.5,2.4,2.1,3.7c0.2,0.3,0.3,0.6,0.5,1c1.2,2.6,2.1,5.3,2.5,8.2
		c0.1,0.4,0.1,0.7,0.2,1.1c0.2,1.5,0.3,3,0.3,4.5l0,0h51.6v-62L559.8,1010.8z"/>
	<path class="st1" d="M559.8,892.2c-9.1-0.4-18.2-0.4-27.3,0l-168.4,7.3v62h51.6l0,0c0-16.8,12.6-30.7,28.9-32.6h0c0,0,0,0,0,0
		c1.3-0.2,2.6-0.3,4-0.3c0,0,0,0,0,0c0,0,0,0,0,0l0,0c11.1,0,20.9,5.5,26.9,14c0.1,0.2,0.3,0.3,0.4,0.5c0,0,0,0,0,0
		c0.8,1.2,1.5,2.4,2.1,3.7c0.2,0.3,0.3,0.6,0.5,1c1.2,2.6,2.1,5.3,2.5,8.2c0.1,0.4,0.1,0.7,0.2,1.1c0.2,1.5,0.3,3,0.3,4.5h13.2
		c0-26.3,19.8-48,45.2-51v0c0,0,0,0,0,0c0.7-0.1,1.4-0.1,2.1-0.2c1.4-0.1,2.7-0.2,4.1-0.2c0,0,0,0,0,0l0,0
		c14.1,0,26.9,5.7,36.2,14.9c0.1,0.1,0.1,0.1,0.2,0.2v0c2.2,2.2,4.1,4.5,5.8,7c0.1,0.2,0.3,0.4,0.4,0.6c0.8,1.2,1.6,2.5,2.3,3.8
		c0.2,0.4,0.4,0.8,0.6,1.2c0.5,1,1,2,1.4,3c0.2,0.4,0.4,0.8,0.5,1.2c0.6,1.4,1.1,2.8,1.5,4.2c0,0,0,0.1,0,0.1
		c0.4,1.4,0.8,2.9,1.1,4.4c0.1,0.5,0.2,0.9,0.3,1.4c0.2,1.1,0.4,2.2,0.5,3.3c0.1,0.5,0.1,1,0.2,1.4c0.1,1.5,0.2,3.1,0.2,4.6
		c0,0,0,0.1,0,0.1h13.2c0-16.8,12.6-30.7,28.9-32.6l0,0l0,0c1.3-0.2,2.6-0.3,4-0.3c0,0,0,0,0,0l0,0l0,0c11.1,0,21,5.5,26.9,14
		c0.1,0.2,0.3,0.3,0.4,0.5c0,0,0,0,0,0c0.8,1.2,1.5,2.4,2.1,3.7c0.2,0.3,0.3,0.6,0.5,1c1.2,2.6,2.1,5.3,2.5,8.2
		c0.1,0.4,0.1,0.7,0.2,1.1c0.2,1.5,0.3,3,0.3,4.5l0,0h51.6v-62L559.8,892.2z"/>
	<g>
		<rect x="2168.4" y="661.5" class="st7" width="7.4" height="167.2"/>
		
			<rect x="2168.4" y="661.5" transform="matrix(0.7071 -0.7071 0.7071 0.7071 109.3317 1754.1207)" class="st7" width="7.4" height="167.2"/>
		
			<rect x="2168.4" y="661.5" transform="matrix(6.123234e-17 -1 1 6.123234e-17 1426.9916 2917.1624)" class="st7" width="7.4" height="167.2"/>
		
			<rect x="2168.4" y="661.5" transform="matrix(-0.7071 -0.7071 0.7071 -0.7071 3181.1123 2807.8306)" class="st7" width="7.4" height="167.2"/>
	</g>
	<g>
		<g>
			<rect x="76.1" y="1047.3" class="st2" width="214.1" height="33.1"/>
			<polygon class="st2" points="216.7,842.2 242.7,1049.1 138.1,1049.1 156.6,842.2 			"/>
			<g>
				<path class="st1" d="M69.8,1047.6c32.2-50.6,49.2-187.8,51.1-203.9h38.9L143,1047.6H69.8z"/>
				<path class="st2" d="M158.2,845.2l-16.6,200.9H72.5c13.4-22.5,25.8-62.4,36.8-118.9c7.4-38.3,11.8-72.4,13-82H158.2
					 M161.5,842.2L161.5,842.2L161.5,842.2z M161.5,842.2h-41.9c0,0-17.9,156.2-52.6,206.9h77.3L161.5,842.2L161.5,842.2z"/>
			</g>
			<g>
				<polygon class="st10" points="130.4,1022.2 120.7,1022.2 125.7,996.1 135.4,996.1 				"/>
				<polygon class="st11" points="125.7,996.1 134,1003.3 135.4,996.1 				"/>
			</g>
			<g>
				<polygon class="st10" points="145.4,895.1 136.7,895.1 141.2,871.7 149.9,871.7 				"/>
				<polygon class="st11" points="141.2,871.7 148.6,878.1 149.9,871.7 				"/>
			</g>
			<path class="st12" d="M254.1,842.2c0,0,17.9,156.2,52.6,206.9h-77.3l-17.1-206.9H254.1z"/>
			<g>
				<path class="st1" d="M187.1,828.6c-0.1,0-0.3-0.1-0.4-0.1l-65.1-1.2l2.8-29.7l22.2-33.9h84.7l22.2,33.9l2.8,29.7l-65.1,1.2
					c-0.2,0-0.3,0-0.4,0.1l-1.8,0L187.1,828.6z"/>
				<path class="st2" d="M230.5,765.2l21.6,32.9l2.6,27.7l-63.5,1.1c-0.2,0-0.4,0-0.6,0.1l-1.6,0c0,0,0,0-0.1,0c0,0,0,0-0.1,0
					l-1.6,0c-0.2,0-0.4-0.1-0.6-0.1l-63.5-1.1l2.6-27.7l21.6-32.9h39.3h4.6H230.5 M232.1,762.2h-40.9h-4.6h-40.9l-22.9,34.9l-3,31.7
					l66.7,1.2v0.1l2.3,0l2.3,0V830l66.7-1.2l-3-31.7L232.1,762.2L232.1,762.2z"/>
			</g>
			<g>
				<polygon class="st10" points="246.2,1018.7 255.9,1018.7 250.8,992.7 241.2,992.7 				"/>
				<polygon class="st2" points="250.8,992.7 242.6,999.8 241.2,992.7 				"/>
			</g>
			<g>
				<rect x="242.4" y="864.4" class="st1" width="11.2" height="11.2"/>
				<path class="st2" d="M252.1,865.9v8.2h-8.2v-8.2H252.1 M255.1,862.9h-14.2v14.2h14.2V862.9L255.1,862.9z"/>
			</g>
			<g>
				<path class="st1" d="M120.4,844.5c-2.8,0-5.1-2.3-5.1-5.1v-7.6c0-2.8,2.3-5.1,5.1-5.1h137.2c2.8,0,5.1,2.3,5.1,5.1v7.6
					c0,2.8-2.3,5.1-5.1,5.1H120.4z"/>
				<path class="st2" d="M257.5,828.3c2,0,3.6,1.6,3.6,3.6v7.6c0,2-1.6,3.6-3.6,3.6H120.4c-2,0-3.6-1.6-3.6-3.6v-7.6
					c0-2,1.6-3.6,3.6-3.6H257.5 M257.5,825.3H120.4c-3.6,0-6.6,2.9-6.6,6.6v7.6c0,3.6,2.9,6.6,6.6,6.6h137.2c3.6,0,6.6-2.9,6.6-6.6
					v-7.6C264.1,828.2,261.1,825.3,257.5,825.3L257.5,825.3z"/>
			</g>
		</g>
		<g>
			<g>
				<g>
					
						<rect x="223.2" y="703.3" transform="matrix(0.7071 -0.7071 0.7071 0.7071 -423.6598 420.0529)" class="st13" width="144.1" height="36.2"/>
					
						<rect x="215.1" y="707.4" transform="matrix(0.7071 -0.7071 0.7071 0.7071 -420.1968 411.8719)" class="st2" width="143.9" height="11.5"/>
					<line class="st14" x1="186.8" y1="804.2" x2="331.3" y2="659.7"/>
				</g>
				<g>
					
						<rect x="32" y="677.8" transform="matrix(-0.7071 -0.7071 0.7071 -0.7071 -314.4544 1261.4607)" class="st13" width="144.1" height="36.2"/>
					
						<rect x="23.8" y="698.2" transform="matrix(-0.7071 -0.7071 0.7071 -0.7071 -334.3318 1269.5148)" class="st2" width="143.9" height="11.5"/>
					<line class="st14" x1="186.8" y1="804.2" x2="42.3" y2="659.7"/>
				</g>
				<g>
					
						<rect x="6.4" y="869" transform="matrix(-0.7071 0.7071 -0.7071 -0.7071 761.1697 1458.8031)" class="st13" width="144.1" height="36.2"/>
					
						<rect x="14.6" y="889.6" transform="matrix(-0.7071 0.7071 -0.7071 -0.7071 780.9202 1467.1635)" class="st2" width="143.9" height="11.5"/>
					<line class="st14" x1="186.8" y1="804.2" x2="42.3" y2="948.7"/>
				</g>
				<g>
					
						<rect x="197.6" y="894.5" transform="matrix(0.7071 0.7071 -0.7071 0.7071 724.2958 76.6313)" class="st13" width="144.1" height="36.2"/>
					
						<rect x="206" y="898.7" transform="matrix(0.7071 0.7071 -0.7071 0.7071 720.9597 68.3978)" class="st2" width="143.9" height="11.5"/>
					<line class="st14" x1="186.8" y1="804.2" x2="331.3" y2="948.7"/>
				</g>
			</g>
			<rect x="177" y="794.4" class="st13" width="19.7" height="19.7"/>
		</g>
	</g>
	<g>
		<g>
			<path class="st0" d="M850.4,652.9c20.1,0,36.4-16.3,36.4-36.4H814C814,636.6,830.3,652.9,850.4,652.9z"/>
			<path class="st0" d="M777.6,652.9c20.1,0,36.4-16.3,36.4-36.4h-72.8C741.1,636.6,757.4,652.9,777.6,652.9z"/>
			<path class="st0" d="M704.7,652.9c20.1,0,36.4-16.3,36.4-36.4h-72.8C668.3,636.6,684.6,652.9,704.7,652.9z"/>
			<path class="st0" d="M631.9,652.9c20.1,0,36.4-16.3,36.4-36.4h-72.8C595.5,636.6,611.8,652.9,631.9,652.9z"/>
			<path class="st0" d="M923.2,652.9c20.1,0,36.4-16.3,36.4-36.4h-72.8C886.8,636.6,903.1,652.9,923.2,652.9z"/>
		</g>
		<g>
			<path class="st0" d="M850.4,798.6c20.1,0,36.4-16.3,36.4-36.4H814C814,782.3,830.3,798.6,850.4,798.6z"/>
			<path class="st0" d="M777.6,798.6c20.1,0,36.4-16.3,36.4-36.4h-72.8C741.1,782.3,757.4,798.6,777.6,798.6z"/>
			<path class="st0" d="M704.7,798.6c20.1,0,36.4-16.3,36.4-36.4h-72.8C668.3,782.3,684.6,798.6,704.7,798.6z"/>
			<path class="st0" d="M631.9,798.6c20.1,0,36.4-16.3,36.4-36.4h-72.8C595.5,782.3,611.8,798.6,631.9,798.6z"/>
			<path class="st0" d="M923.2,798.6c20.1,0,36.4-16.3,36.4-36.4h-72.8C886.8,782.3,903.1,798.6,923.2,798.6z"/>
		</g>
		<g>
			<path class="st0" d="M850.4,835c20.1,0,36.4-16.3,36.4-36.4H814C814,818.7,830.3,835,850.4,835z"/>
			<path class="st0" d="M777.6,835c20.1,0,36.4-16.3,36.4-36.4h-72.8C741.1,818.7,757.4,835,777.6,835z"/>
			<path class="st0" d="M704.7,835c20.1,0,36.4-16.3,36.4-36.4h-72.8C668.3,818.7,684.6,835,704.7,835z"/>
			<path class="st0" d="M631.9,835c20.1,0,36.4-16.3,36.4-36.4h-72.8C595.5,818.7,611.8,835,631.9,835z"/>
			<path class="st0" d="M923.2,835c20.1,0,36.4-16.3,36.4-36.4h-72.8C886.8,818.7,903.1,835,923.2,835z"/>
		</g>
		<g>
			<path class="st0" d="M850.4,689.4c20.1,0,36.4-16.3,36.4-36.4H814C814,673.1,830.3,689.4,850.4,689.4z"/>
			<path class="st0" d="M777.6,689.4c20.1,0,36.4-16.3,36.4-36.4h-72.8C741.1,673.1,757.4,689.4,777.6,689.4z"/>
			<path class="st0" d="M704.7,689.4c20.1,0,36.4-16.3,36.4-36.4h-72.8C668.3,673.1,684.6,689.4,704.7,689.4z"/>
			<path class="st0" d="M631.9,689.4c20.1,0,36.4-16.3,36.4-36.4h-72.8C595.5,673.1,611.8,689.4,631.9,689.4z"/>
			<path class="st0" d="M923.2,689.4c20.1,0,36.4-16.3,36.4-36.4h-72.8C886.8,673.1,903.1,689.4,923.2,689.4z"/>
		</g>
		<g>
			<path class="st0" d="M850.4,725.8c20.1,0,36.4-16.3,36.4-36.4H814C814,709.5,830.3,725.8,850.4,725.8z"/>
			<path class="st0" d="M777.6,725.8c20.1,0,36.4-16.3,36.4-36.4h-72.8C741.1,709.5,757.4,725.8,777.6,725.8z"/>
			<path class="st0" d="M704.7,725.8c20.1,0,36.4-16.3,36.4-36.4h-72.8C668.3,709.5,684.6,725.8,704.7,725.8z"/>
			<path class="st0" d="M631.9,725.8c20.1,0,36.4-16.3,36.4-36.4h-72.8C595.5,709.5,611.8,725.8,631.9,725.8z"/>
			<path class="st0" d="M923.2,725.8c20.1,0,36.4-16.3,36.4-36.4h-72.8C886.8,709.5,903.1,725.8,923.2,725.8z"/>
		</g>
		<g>
			<path class="st0" d="M850.4,762.2c20.1,0,36.4-16.3,36.4-36.4H814C814,745.9,830.3,762.2,850.4,762.2z"/>
			<path class="st0" d="M777.6,762.2c20.1,0,36.4-16.3,36.4-36.4h-72.8C741.1,745.9,757.4,762.2,777.6,762.2z"/>
			<path class="st0" d="M704.7,762.2c20.1,0,36.4-16.3,36.4-36.4h-72.8C668.3,745.9,684.6,762.2,704.7,762.2z"/>
			<path class="st0" d="M631.9,762.2c20.1,0,36.4-16.3,36.4-36.4h-72.8C595.5,745.9,611.8,762.2,631.9,762.2z"/>
			<path class="st0" d="M923.2,762.2c20.1,0,36.4-16.3,36.4-36.4h-72.8C886.8,745.9,903.1,762.2,923.2,762.2z"/>
		</g>
	</g>
</g>
<g>
</g>
<g>
</g>
<g>
</g>
<g>
</g>
<g>
</g>
<g>
</g>
<g>
</g>
<g>
</g>
<g>
</g>
<g>
</g>
<g>
</g>
<g>
</g>
<g>
</g>
<g>
</g>
<g>
</g>
</svg>
